<?xml version="1.0" encoding="UTF-8"?>
<!-- Generator: Adobe Illustrator 15.1.0, SVG Export Plug-In . SVG Version: 6.00 Build 0)  -->
<!DOCTYPE svg PUBLIC "-//W3C//DTD SVG 1.1//EN" "http://www.w3.org/Graphics/SVG/1.1/DTD/svg11.dtd">
<svg version="1.1" id="Layer_1" xmlns="http://www.w3.org/2000/svg" xmlns:xlink="http://www.w3.org/1999/xlink" x="0px" y="0px" width="384.334px" height="325px" viewBox="0 0 384.334 325" enable-background="new 0 0 384.334 325" xml:space="preserve">
<g>
	<defs>
		<rect id="SVGID_1_" x="2.634" y="17.587" width="260.68" height="292.141"/>
	</defs>
	<clipPath id="SVGID_2_">
		<use xlink:href="#SVGID_1_" overflow="visible"/>
	</clipPath>
	<path clip-path="url(#SVGID_2_)" fill="#E4AA97" stroke="#E4AA97" stroke-width="0.5" d="M22.344,112.783   c-4.072,9.048-6.334,14.478-4.072,19.004c2.262,4.523,2.714,0.903,6.336-0.454c3.617-1.356,13.573-3.167,16.74,2.265   c3.166,5.431,0.905,24.887,1.356,30.766c0.453,5.884,6.335,9.503,5.883,16.741c-0.453,7.239-2.714,18.1,0.903,26.697   c3.62,8.598,16.29,23.529,23.529,21.721c7.239-1.811,42.983-8.6,50.223-9.051c7.239-0.453,29.752,4.297,33.429,8.934   c3.674,4.641,32.18,12.334,32.18,17.762c0,5.432,7.237,21.719,10.405,25.795c3.17,4.066,13.688,17.084,15.836,18.104   c2.148,1.018,4.026,24.961,4.026,24.961s13.831-1.861,18.359-3.672c4.523-1.809,2.051-26.727,0.242-39.393   c-1.813-12.674-0.907-52.943-1.813-61.088c-0.902-8.145-5.879-43.437-7.238-49.317c-1.356-5.884-14.933-34.391-16.743-38.915   c-1.804-4.523-23.532-30.316-28.506-38.014c-4.979-7.694-33.93-29.412-40.721-30.768c-6.786-1.356-51.127-9.955-57.916-7.24   c-6.787,2.716-27.6,19.456-31.22,23.528C49.943,75.222,22.344,112.783,22.344,112.783z"/>
	<linearGradient id="SVGID_3_" gradientUnits="userSpaceOnUse" x1="181.8257" y1="171.2617" x2="176.3015" y2="160.5813">
		<stop offset="0" style="stop-color:#83C9F0"/>
		<stop offset="1" style="stop-color:#FFFFFF"/>
	</linearGradient>
	<path clip-path="url(#SVGID_2_)" fill="url(#SVGID_3_)" d="M179.3,156.104c3.581,5.303,5.021,10.574,5.135,13.013   c0.219,4.486-3.853,4.274-6.202,1.925c-2.351-2.353-3.42-4.278-6.195-7.913"/>
	<path clip-path="url(#SVGID_2_)" fill="#E2E2E1" stroke="#E2E2E1" stroke-width="0.5" d="M20.405,135.252   c0.805-0.104,1.57-0.452,2.334-1.088c1.356-1.131,3.167-2.489,2.262-4.752c-0.906-2.261-2.036-4.751-1.131-8.598   c0.904-3.845,12.443-29.863,42.76-48.42c6.917-4.231,5.655-3.167,7.238-3.847c1.585-0.678,3.847-2.036,7.69-1.129   c15.652,3.683,47.965,6.56,59.501,4.298c4.711-0.923,6.909,0.626,7.016,2.488c0.899,16.068,9.343,20.15,12.229,23.547   c2.886,3.391,0.309,5.454-0.168,7.29c-1.188,4.577,0.444,12.561,1.704,12.749c0.365,1.36,1.456,2.602,2.942,2.494   c0.542,1.672,2.185,4.794,4.277,3.374c0.417,1.01,1.413,1.7,2.321,2.142c1.941-0.714,3.965,2.022,7.065,0.097   c6.676,1.663,10.705-0.277,13.394,0.171c2.035,0.338,4.66,2.556,5.098,5.385c0.453,2.938,0.499,5.296,0.837,7.499   c0.653,4.249,1.426,11.276,3.912,17.614c2.493,6.334,8.274,26.431,9.956,33.029c5.432,21.265,17.57,73.139,22.547,123.586h32.615   l1.002-298.587l-223.3,0.337l-0.955,0.001c-0.452,4.978-0.679,15.836-1.131,19.458c-0.453,3.619,0.452,8.822,2.49,11.538   c2.036,2.715,3.168,4.751,3.392,7.465c0.227,2.715-1.13,7.692-3.392,11.538c-2.264,3.847-7.692,13.8-10.182,17.422   c-2.488,3.62-19.229,30.771-20.813,35.297c-1.585,4.527-1.809,4.979-2.261,6.564c-0.453,1.582-0.227,5.201,1.131,6.559   c1.356,1.356,4.072,3.848,5.656,4.3C19.133,135.266,19.781,135.333,20.405,135.252"/>
	<path clip-path="url(#SVGID_2_)" fill="#FFFFFF" stroke="#666666" stroke-width="0.4391" d="M210.458,250.447   c-2.263-2.18-5.771-2.373-5.205,1.809c0.564,4.188,1.122,4.256,1.919,5.656c0.91,1.586,1.139,2.152,2.379,3.17   c1.246,1.021,2.375,1.473,3.055-0.336C213.287,258.934,213.736,253.617,210.458,250.447z"/>
	<path clip-path="url(#SVGID_2_)" fill="#FFFFFF" stroke="#666666" stroke-width="0.4391" d="M209.103,266.734   c-1.251-3.953,2.599-4.068,3.503-2.482c1.533,2.68,2.038,12.215,1.926,16.061c-0.114,3.846,0,3.053-0.343,4.184   c-0.339,1.133-1.356,1.359-2.263-0.791c-0.781-1.869-1.244-3.393-1.468-6.221c-0.231-2.828,0-4.303-0.455-6.789   C209.551,268.209,209.325,267.461,209.103,266.734z"/>
	<path clip-path="url(#SVGID_2_)" fill="#E2E2E1" stroke="#E2E2E1" stroke-width="0.5" d="M164.248,142.986   c-10.398-4.503-12.897-5.202-22.625-5.202c-7.019,0-38.138-0.351-47.281-0.681c-12.669-0.453-42.532-5.884-46.379-5.654   c-2.944,0.171-6.334,0.224-6.334,3.843c0,3.621,0.227,13.349-2.94,19.683c-3.168,6.334-2.942,6.108-3.62,8.824   c-0.509,2.037-0.383,4.455,0.858,6.296c0.414,0.618,0.951,1.169,1.63,1.62c2.714,1.812,9.276,3.396,12.216,1.812   c2.942-1.585,5.204-3.618,4.298-7.691c-0.904-4.075-2.261-7.014-0.678-10.407c1.583-3.394,3.168-4.526,3.394-2.261   c0.226,2.261-0.209,3.628-0.396,5.879c-0.114,1.358-0.377,2.392-0.565,4.471c-0.169,1.863-0.169,2.089-0.169,3.448   c0,1.357,0.904,1.131,1.583-0.224c0.17-0.342,0.297-0.54,0.432-0.646c-0.319,2.084-0.454,4.202-0.262,7.46   c0.225,3.846,0.313,3.961,0.904,5.206c0.564,1.185,1.129,0.675,2.034-0.229c0.906-0.903,1.359-1.299,1.585-2.713   c0.36-2.248,0.508-2.715,1.412-4.073c0.907-1.358,1.755-2.261,1.755-3.619c0-0.279,0.011-0.524,0.029-0.755   c0.163,0.37,0.255,0.754,0.255,1.632c0.001,2.168,0.401,3.479,2.149,1.243c1.415-1.81,0.961-1.3,4.639-5.318   c3.998-4.367,13.121-11.538,20.811-13.8c7.695-2.259,27.15-5.88,35.297-5.654c8.141,0.228,11.761-0.679,16.289,0   c4.521,0.68,13.797,3.618,17.194,7.014c3.391,3.395,6.786,6.559,9.728,10.408c2.937,3.846,4.069,5.882,6.556,8.371   c2.486,2.486,6.791,2.711,6.563-2.036C184.384,164.477,179.404,149.549,164.248,142.986z"/>
	<path clip-path="url(#SVGID_2_)" fill="#E2E2E1" stroke="#E2E2E1" stroke-width="0.5" d="M179.371,218.344   c-0.321-0.07-3.303-1.831-4.319-4.151c-0.713-1.622,1.669-2.434-0.031-3.744c2.03-0.021,1.693-3.194,0.456-4.166   c0.559-0.759,1.302-1.278,1.507-2.208c0.111-0.508-0.649-1.26-0.644-1.826c0-0.382,0.712-0.494,0.699-0.883   c-0.041-1.443,0.309-4.672-0.886-5.49c1.436-1.916-1.022-5.06-2.923-3.523c-0.625,0.502-1.404,1.989-2.082,1.765   c-1.555-0.52-0.366-1.12-0.165-1.987c0.227-0.947,0.613-2.188,0.851-2.936c0.151-0.466,0.771-0.299,0.905-0.955   c0.123-0.612-0.461-1.121-0.402-1.59c0.154-1.26,1.8-5.797-1.378-5.463c0.043-1.254-0.133-3.465-1.597-3.629   c0.509-0.75-0.384-3.641-0.746-4.708c-0.095-0.274-1.132-1.788-1.31-2.037c-0.428-0.607-0.496-1.298-1.322-1.623   c0.324-2.408-3.113-4.809-4.55-6.063c-0.973-0.851-1.869-1.531-2.956-2.276c-0.605-0.419-1.791-1.425-2.447-1.615   c-0.384-1.351-5.884-5.078-6.827-4.708c-0.389-2.682-3.98-0.395-5.204-2.518c-0.979,0.953-1.849-0.17-2.94-0.426   c-1.202-0.284-2.344,0.062-3.566-0.053c-1.123-0.097-1.932-0.763-3.217-0.574c-1.03,0.149-1.782,0.692-2.72,0.626   c-0.984-0.066-1.87-0.855-2.938-0.903c-0.998-0.043-1.985,0.679-2.769,0.631c-0.997-0.059-1.672-0.744-2.71-0.682   c-0.942,0.06-1.695,0.628-2.633,0.636c-0.5,0.001-1.026-0.537-1.602-0.562c-1.512-0.063-3.082,0.322-4.551,0.641   c-1.431,0.314-1.698,0.421-3.148,0.456c-1.431,0.03-2.674,0.142-3.613,1.342c-2.251-0.779-4.186,0.663-6.124,0.979   c-1.287,0.212-2,0.23-3.161,0.681c-3.396,1.326-6.975,1.439-10.25,3.733c-2.413,1.694-4.397,2.456-6.938,3.622   c-1.295,0.595-2.333,1.462-3.354,2.151c-1.228,0.82-1.817,1.37-2.767,2.432c-0.691,0.772-1.772,1.68-2.483,2.267   c-2.707,2.231-3.498,2.892-4.306,6.108c-0.452,1.807-0.903-0.451-0.676,3.392c0.224,3.848,2.487,4.752,5.429,6.787   c2.941,2.035,3.392,2.035,5.429,4.524c2.039,2.486,2.715,2.264,4.753,3.17c2.035,0.9,2.938,1.13,5.202,2.938   c2.263,1.812,2.038,2.717,2.263,5.43c0.052,0.629-0.012,1.32-0.255,2.029l-0.029,1.988c-1.813,0.904-2.433,0.509-5.146-0.17   c-2.716-0.678-2.942-1.582-4.528-2.939c-1.582-1.361-1.394-1.414-3.39-1.869c-1.247-0.283-2.321-0.734-2.885-1.413   c-1.025-1.23-1.301-1.414-2.885-4.809c-1.584-3.392-1.041-2.358-2.036-4.354c-0.339-0.677-1.527-2.034-1.697-0.113   c-0.082,0.934-0.453,1.133-0.679,1.471c-0.154,0.23-0.299,0.371-0.436,0.473c0.007-0.414-0.005-0.938-0.072-1.545   c-0.17-1.526-0.283-1.869-1.471-2.885c-1.189-1.02-1.19-1.379-1.923-3.056c-0.397-0.904-0.339-1.694-1.018-2.886   c-0.68-1.185-1.98-2.205-2.434,0.734c-0.182,1.188-0.215,1.77-0.508,4.639c-0.184,1.812-0.36,2.902-0.136,4.162   c-0.471-0.662-1.202-1.447-1.561-0.314c-0.247,0.781-0.395,1.584-0.395,3.845c0,2.264-0.226,3.168-0.453,7.241   c-0.227,4.07-2.036-0.229-1.809-3.395c0.226-3.166-0.227-6.559-0.227-9.274s-1.131-2.94-0.904-5.432   c0.225-2.488,0.677-1.584,1.131-3.618c0.451-2.038-0.454-2.717-2.942-4.525c-1.376-1-2.876-1.214-4.371-0.836l-0.839,0.26   c-1.209,0.305-1.575,0.734-2.707,1.706c-1.585,1.357-4.752,3.623-6.11,6.335c-1.357,2.719-2.488,4.524,0,8.598   c2.491,4.069,4.751,6.562,6.561,10.633c1.811,4.071,2.488,7.241,0.679,13.35c-1.811,6.109-2.941,13.574,0.226,18.098   c3.167,4.527,10.409,12.217,13.123,14.93c2.713,2.717,8.304,5.787,13.574,5.432c3.395-0.227,6.742,1.066,13.572,0.227   c14.706-1.813,45.48-4.754,56.109-3.848c7.913,0.68,11.763,0.906,13.798,7.014c2.033,6.109,1.581,5.652,2.942,9.277   c1.358,3.617,5.881,11.992,7.914,16.061c2.037,4.076,3.393,6.457,3.848,8.494l9.679,30.883l35.357-4.934   C215.277,317.016,185.949,225.195,179.371,218.344z"/>
	<g clip-path="url(#SVGID_2_)">
		<g>
			<path fill="#666666" d="M156.931,230.697c-0.061,0.386-0.481,0.822-0.418,1.211c0.063,0.391,0.889,0.602,1.147,0.367     c0.359-0.326,0.652-0.886,0.151-1.238c-0.254-0.178-0.68-0.305-0.958-0.125c-0.194,0.124-0.188,0.387,0,0.512     c0.125,0.084,0.241,0.101,0.389,0.116c0.059,0.006,0.127,0.021,0.181,0.046c0.031,0.022,0.037,0.015,0.018-0.021     c0.004,0.038-0.102,0.223-0.137,0.226c-0.348,0.022-0.433,0.087-0.339-0.229c0.083-0.281,0.136-0.551,0.113-0.845     C157.071,230.639,156.945,230.609,156.931,230.697L156.931,230.697z"/>
		</g>
	</g>
	<g clip-path="url(#SVGID_2_)">
		<g>
			<path fill="#666666" d="M158.354,226.666c-0.02,0.216-0.37,0.244-0.53,0.267c-0.202,0.028-0.409,0.123-0.577,0.235     c-0.567,0.381-0.572,1.146-0.515,1.75c0.017,0.177,0.227,0.371,0.406,0.233c0.521-0.4,0.728-1.278,0.83-1.894     c0.043-0.259,0.056-0.61-0.263-0.698c-0.33-0.091-0.572,0.268-0.552,0.558c0.015,0.22,0.246,0.385,0.453,0.26     c0.045-0.024,0.087-0.054,0.126-0.088c0.132-0.133,0.141-0.063-0.027-0.036c-0.092-0.012-0.185-0.024-0.277-0.036     c-0.197-0.128-0.139-0.324-0.148-0.114c-0.003,0.063-0.013,0.127-0.023,0.189c-0.029,0.184-0.073,0.364-0.12,0.544     c-0.086,0.332-0.187,0.653-0.368,0.945c0.164,0.021,0.329,0.044,0.493,0.065c-0.19-0.697-0.199-1.403,0.494-1.784     c0.151-0.083,0.582-0.182,0.602-0.396C158.358,226.663,158.354,226.663,158.354,226.666L158.354,226.666z"/>
		</g>
	</g>
	<g clip-path="url(#SVGID_2_)">
		<g>
			<path fill="#666666" d="M159.651,225.287c0.066,0.023,0.082,0.008,0.046-0.046c-0.021-0.062-0.053-0.122-0.079-0.182     c-0.064-0.146-0.189-0.288-0.272-0.426c-0.121-0.203-0.223-0.409-0.471-0.468c-0.125-0.03-0.297,0.037-0.319,0.181     c-0.059,0.384,0.372,0.899,0.698,1.077c0.152,0.082,0.658,0.216,0.505-0.137C159.739,225.24,159.674,225.252,159.651,225.287     L159.651,225.287z"/>
		</g>
	</g>
	<path clip-path="url(#SVGID_2_)" fill="#F0D1C5" stroke="#F0D1C5" stroke-width="0.5" d="M178.979,269.932   c4.645,5.871,6.404,9.377,8.963,12.678c2.559,3.299,4.612,2.48,6.038,5.791c1.428,3.309,1.923,6.297,2.544,8.686   c0.621,2.387,2.967,8.859,3.359,10.736c0.395,1.879,3.361,10.738,3.361,10.738l20.492-5.049c0,0-2.737-8.352-3.29-10.473   c-0.551-2.121-1.968-5.867-2.208-8.488s-1.646-5.236-2.611-8.951c-0.967-3.713-0.29-4.457-0.735-8.305   c-0.445-3.85-1.451-18.598-4.122-26.682"/>
	<path clip-path="url(#SVGID_2_)" fill="#F0D1C5" stroke="#F0D1C5" stroke-width="0.5" d="M156.416,232.424   c5.142,2.346,9.954,12.139,10.332,16.854c0.378,4.717,31.763-8.547,34.817-8.775c3.056-0.23,5.449-7.365,3.941-12.07   c-1.509-4.707-5.457-14.44-5.491-17.831c-0.032-3.391,0.179-9.11-2.704-4.96c-2.886,4.148-15.406,15.904-21.633,18.092   c-6.23,2.186-13.057,4.244-15.778,4.67c-2.723,0.426-3.162,3.088-3.162,3.088"/>
	<path clip-path="url(#SVGID_2_)" fill="#B8CBE8" stroke="#B8CBE8" stroke-width="0.5" d="M155.382,225.861   c5.946-3.418,10.972-4.258,18.342-5.709c7.372-1.449,13.804-4.762,18.441-9.711c4.64-4.951,4.312-5.332,6.218-6.766   c1.905-1.432,4.057-1.057,2.065,1.802c-1.991,2.857-2.487,5.329-6.046,10.932c-3.554,5.604-7.427,8.251-13.716,10.354   c-6.29,2.107-12.921,2.895-17.275,5.432c-4.355,2.535-7.999,2.549-7.602,0.572c0.398-1.975-0.712-4.49-0.712-4.49L155.382,225.861z   "/>
	<path clip-path="url(#SVGID_2_)" fill="#EC6EA5" d="M189.603,274.516c-1.946,3.314-2.006,3.094-2.472,5.791   c-0.469,2.697,1.588,5.201,4.103,4.078c2.517-1.119,10.177-4.053,16.435-4.277c6.261-0.223,6.708,0.598,7.224-2.813   c0.516-3.412,0.415-8.299-0.325-11.145c-0.744-2.85-1.606-7.072-2.347-9.92c-0.74-2.85-2.847-4.645-5.631-2.748   c-2.782,1.896-6.642,5.941-8.092,9.357c-1.45,3.422-2.584,5.355-4.653,7.295C191.776,272.078,189.603,274.516,189.603,274.516z"/>
	<g clip-path="url(#SVGID_2_)">
		<path fill="#FFFFFF" d="M192.846,235.627c7.64,1.32,11.649-0.59,11.163-4.311c-0.534-4.07-1.066-8.145-4.521-16.02    c-3.452-7.875-0.733-9.367,0.279-9.725c1.928-0.678,2.248,2.574,2.639,4.755c0.721,4.012-0.155,0.741,1.64,7.646    c1.797,6.902,4.236,12.234,4.432,15.691c0.2,3.459,1.042,5.346,1.753,10.775s3.665,12.734,3.549,17.678    c-0.119,4.945,1.539,5.916-0.42,7.832c-1.959,1.912-5.205,2.934-3.887-1.447c0.841-2.797-0.041-4.201-1.671-2.373    s-6.562,3.111-10.604,2.408c-4.043-0.701-8.159-0.332-11.191,1.51c-3.03,1.84-5.515,4.418-8.564,0.121    c-3.439-4.844-2.343-3.602-7.204-8.127c-4.047-3.768-6.494-11.475-2.104-17.527C172.523,238.457,177.044,232.893,192.846,235.627z    "/>
		<path fill="#FEFFFF" d="M192.854,235.68c7.633,1.317,11.661-0.616,11.176-4.331c-0.533-4.064-1.057-8.133-4.507-15.996    c-3.448-7.862-0.763-9.406,0.249-9.763c1.927-0.678,2.248,2.638,2.639,4.815c0.719,4.005-0.146,0.736,1.646,7.63    c1.794,6.892,4.218,12.206,4.413,15.658c0.199,3.453,1.041,5.344,1.75,10.766c0.709,5.421,3.665,12.71,3.548,17.646    c-0.12,4.938,1.545,5.918-0.413,7.831c-1.957,1.91-5.189,2.919-3.872-1.456c0.841-2.793-0.071-4.208-1.7-2.382    c-1.629,1.825-6.552,3.105-10.59,2.404c-4.039-0.7-8.153-0.331-11.183,1.509c-3.028,1.838-5.505,4.419-8.552,0.129    c-3.436-4.835-2.333-3.591-7.19-8.108c-4.042-3.761-6.486-11.443-2.099-17.487C172.556,238.496,177.066,232.952,192.854,235.68z"/>
		<path fill="#FDFEFF" d="M192.862,235.733c7.625,1.313,11.672-0.644,11.188-4.354c-0.532-4.058-1.047-8.121-4.493-15.971    c-3.443-7.851-0.792-9.445,0.219-9.802c1.925-0.677,2.249,2.701,2.639,4.875c0.718,4-0.136,0.732,1.653,7.615    c1.792,6.881,4.2,12.178,4.394,15.624c0.199,3.448,1.04,5.344,1.748,10.757s3.664,12.687,3.546,17.614    c-0.12,4.931,1.551,5.921-0.405,7.832c-1.956,1.907-5.175,2.902-3.856-1.466c0.84-2.789-0.103-4.214-1.729-2.391    c-1.628,1.823-6.542,3.099-10.577,2.399c-4.035-0.697-8.147-0.328-11.175,1.509c-3.025,1.836-5.495,4.421-8.538,0.138    c-3.432-4.828-2.325-3.581-7.176-8.091c-4.039-3.755-6.479-11.412-2.094-17.448C172.588,238.536,177.089,233.013,192.862,235.733z    "/>
		<path fill="#FCFEFF" d="M192.87,235.786c7.619,1.311,11.685-0.671,11.201-4.374c-0.531-4.052-1.037-8.109-4.479-15.947    c-3.439-7.838-0.821-9.484,0.188-9.841c1.924-0.676,2.249,2.766,2.638,4.937c0.717,3.993-0.125,0.728,1.661,7.6    c1.789,6.87,4.182,12.149,4.375,15.591c0.198,3.442,1.039,5.342,1.745,10.746c0.706,5.405,3.664,12.663,3.545,17.584    c-0.121,4.923,1.557,5.923-0.398,7.831c-1.954,1.905-5.159,2.888-3.842-1.475c0.84-2.784-0.132-4.221-1.759-2.4    c-1.627,1.821-6.532,3.094-10.563,2.396c-4.032-0.696-8.142-0.327-11.167,1.508c-3.023,1.833-5.486,4.422-8.525,0.146    c-3.428-4.819-2.315-3.57-7.162-8.072c-4.034-3.748-6.472-11.38-2.089-17.408C172.621,238.575,177.111,233.072,192.87,235.786z"/>
		<path fill="#FBFDFF" d="M192.878,235.84c7.612,1.307,11.696-0.698,11.214-4.396c-0.529-4.045-1.027-8.098-4.464-15.923    c-3.435-7.825-0.851-9.522,0.159-9.879c1.921-0.675,2.249,2.829,2.637,4.997c0.716,3.986-0.115,0.722,1.668,7.583    c1.786,6.86,4.164,12.122,4.356,15.558c0.196,3.438,1.038,5.341,1.742,10.737c0.705,5.396,3.663,12.639,3.544,17.553    c-0.122,4.915,1.563,5.925-0.392,7.831c-1.953,1.901-5.144,2.871-3.827-1.484c0.84-2.78-0.162-4.228-1.788-2.409    c-1.625,1.818-6.522,3.088-10.55,2.392c-4.028-0.694-8.137-0.325-11.159,1.508c-3.021,1.831-5.476,4.423-8.512,0.154    c-3.424-4.813-2.306-3.561-7.147-8.055c-4.03-3.742-6.464-11.349-2.084-17.368C172.653,238.614,177.134,233.133,192.878,235.84z"/>
		<path fill="#FAFDFF" d="M192.887,235.893c7.604,1.304,11.707-0.725,11.226-4.417c-0.528-4.039-1.017-8.086-4.45-15.898    c-3.43-7.813-0.879-9.563,0.13-9.918c1.92-0.675,2.249,2.893,2.637,5.057c0.714,3.981-0.105,0.718,1.676,7.568    c1.782,6.849,4.145,12.093,4.336,15.524c0.196,3.433,1.037,5.34,1.74,10.728c0.703,5.389,3.663,12.615,3.543,17.521    c-0.123,4.908,1.567,5.928-0.384,7.831c-1.952,1.899-5.13,2.856-3.813-1.493c0.84-2.776-0.192-4.233-1.816-2.418    c-1.625,1.815-6.514,3.082-10.537,2.388c-4.024-0.692-8.13-0.323-11.151,1.507c-3.019,1.829-5.466,4.425-8.499,0.162    c-3.42-4.804-2.297-3.55-7.133-8.036c-4.026-3.735-6.457-11.317-2.08-17.328C172.686,238.653,177.156,233.192,192.887,235.893z"/>
		<path fill="#F9FDFF" d="M192.895,235.945c7.598,1.301,11.719-0.751,11.239-4.438c-0.527-4.033-1.008-8.075-4.437-15.875    c-3.426-7.8-0.908-9.602,0.1-9.956c1.918-0.674,2.25,2.957,2.637,5.117c0.712,3.975-0.096,0.713,1.683,7.553    c1.78,6.838,4.127,12.064,4.317,15.49c0.195,3.428,1.036,5.339,1.737,10.719c0.702,5.38,3.662,12.591,3.541,17.489    c-0.123,4.9,1.574,5.931-0.376,7.831c-1.951,1.896-5.114,2.84-3.798-1.503c0.839-2.772-0.224-4.24-1.847-2.427    s-6.503,3.075-10.523,2.383c-4.021-0.69-8.125-0.321-11.143,1.507c-3.017,1.827-5.457,4.426-8.486,0.171    c-3.416-4.797-2.288-3.539-7.119-8.019c-4.021-3.729-6.449-11.286-2.075-17.289C172.718,238.693,177.178,233.253,192.895,235.945z    "/>
		<path fill="#F8FCFE" d="M192.902,235.999c7.592,1.297,11.73-0.778,11.252-4.46c-0.526-4.026-0.997-8.063-4.422-15.851    c-3.421-7.787-0.938-9.64,0.069-9.994c1.917-0.674,2.25,3.021,2.636,5.178c0.712,3.968-0.085,0.708,1.69,7.537    c1.777,6.827,4.108,12.036,4.298,15.457c0.195,3.422,1.035,5.337,1.735,10.709c0.7,5.371,3.662,12.566,3.54,17.458    c-0.124,4.893,1.58,5.933-0.369,7.83c-1.949,1.895-5.099,2.825-3.783-1.512c0.839-2.769-0.254-4.247-1.876-2.436    c-1.622,1.811-6.493,3.069-10.51,2.379c-4.018-0.689-8.118-0.32-11.135,1.506c-3.014,1.824-5.447,4.427-8.473,0.179    c-3.413-4.788-2.279-3.528-7.105-8c-4.017-3.723-6.441-11.255-2.07-17.249C172.75,238.732,177.201,233.313,192.902,235.999z"/>
		<path fill="#F7FCFE" d="M192.91,236.052c7.585,1.294,11.742-0.806,11.265-4.48c-0.524-4.021-0.987-8.052-4.407-15.826    c-3.417-7.775-0.967-9.68,0.039-10.034c1.915-0.672,2.251,3.085,2.636,5.238c0.71,3.963-0.075,0.704,1.697,7.522    c1.774,6.816,4.09,12.008,4.279,15.423c0.194,3.417,1.034,5.337,1.732,10.7s3.661,12.543,3.539,17.427    c-0.125,4.886,1.586,5.935-0.362,7.83c-1.948,1.892-5.084,2.809-3.769-1.521c0.839-2.765-0.284-4.254-1.904-2.446    c-1.621,1.809-6.484,3.064-10.497,2.375c-4.014-0.687-8.113-0.317-11.126,1.506c-3.012,1.822-5.438,4.429-8.46,0.188    c-3.409-4.78-2.27-3.519-7.091-7.982c-4.014-3.717-6.434-11.224-2.065-17.209C172.783,238.771,177.223,233.373,192.91,236.052z"/>
		<path fill="#F6FBFE" d="M192.919,236.105c7.577,1.29,11.754-0.833,11.277-4.502c-0.524-4.015-0.979-8.04-4.394-15.803    c-3.413-7.763-0.996-9.718,0.009-10.072c1.914-0.672,2.251,3.148,2.636,5.299c0.709,3.956-0.065,0.699,1.704,7.507    c1.771,6.806,4.072,11.979,4.261,15.39c0.193,3.411,1.033,5.335,1.729,10.689c0.697,5.355,3.661,12.52,3.537,17.396    c-0.126,4.879,1.592,5.938-0.354,7.83c-1.946,1.89-5.068,2.794-3.754-1.529c0.839-2.761-0.313-4.261-1.934-2.455    s-6.475,3.058-10.483,2.371c-4.01-0.686-8.107-0.316-11.119,1.505c-3.009,1.82-5.428,4.43-8.447,0.195    c-3.404-4.772-2.261-3.508-7.077-7.964c-4.009-3.71-6.426-11.191-2.061-17.169C172.815,238.812,177.246,233.433,192.919,236.105z"/>
		<path fill="#F5FBFE" d="M192.927,236.158c7.57,1.287,11.766-0.859,11.29-4.523c-0.522-4.008-0.968-8.027-4.379-15.778    c-3.408-7.75-1.025-9.757-0.021-10.11c1.912-0.671,2.252,3.212,2.636,5.359c0.707,3.949-0.056,0.694,1.711,7.491    c1.77,6.795,4.054,11.951,4.241,15.355c0.192,3.406,1.032,5.335,1.728,10.681c0.695,5.347,3.66,12.495,3.536,17.364    c-0.127,4.871,1.598,5.939-0.348,7.83c-1.945,1.887-5.053,2.777-3.738-1.539c0.838-2.757-0.345-4.268-1.964-2.464    s-6.464,3.052-10.47,2.366c-4.006-0.684-8.102-0.314-11.11,1.505c-3.007,1.818-5.418,4.431-8.434,0.204    c-3.401-4.765-2.252-3.498-7.063-7.946c-4.005-3.704-6.418-11.16-2.056-17.13C172.848,238.851,177.268,233.493,192.927,236.158z"/>
		<path fill="#F4FBFE" d="M192.935,236.212c7.564,1.283,11.777-0.887,11.303-4.545c-0.521-4.002-0.958-8.017-4.364-15.754    c-3.404-7.738-1.055-9.796-0.051-10.149c1.91-0.671,2.251,3.275,2.634,5.419c0.706,3.944-0.045,0.689,1.719,7.477    c1.767,6.784,4.036,11.923,4.223,15.322c0.191,3.401,1.031,5.333,1.725,10.671c0.694,5.339,3.66,12.471,3.535,17.333    c-0.128,4.863,1.604,5.941-0.341,7.829c-1.943,1.884-5.038,2.763-3.724-1.548c0.838-2.753-0.375-4.274-1.992-2.473    c-1.618,1.801-6.455,3.046-10.457,2.362c-4.003-0.683-8.096-0.313-11.102,1.504c-3.005,1.815-5.409,4.432-8.421,0.212    c-3.397-4.757-2.243-3.487-7.048-7.928c-4.001-3.697-6.411-11.129-2.051-17.09C172.88,238.89,177.291,233.553,192.935,236.212z"/>
		<path fill="#F3FAFE" d="M192.943,236.265c7.557,1.28,11.788-0.913,11.314-4.566c-0.52-3.995-0.948-8.004-4.35-15.729    c-3.399-7.726-1.084-9.835-0.081-10.188c1.908-0.67,2.252,3.339,2.634,5.479c0.705,3.938-0.035,0.685,1.726,7.46    c1.764,6.774,4.018,11.896,4.204,15.289c0.19,3.396,1.03,5.332,1.722,10.662c0.692,5.33,3.659,12.447,3.534,17.301    c-0.129,4.856,1.608,5.944-0.334,7.83c-1.942,1.881-5.022,2.746-3.709-1.558c0.838-2.748-0.405-4.28-2.021-2.481    c-1.617,1.798-6.445,3.04-10.443,2.358c-3.999-0.681-8.09-0.312-11.094,1.503c-3.002,1.813-5.399,4.434-8.408,0.221    c-3.393-4.749-2.233-3.478-7.034-7.91c-3.997-3.691-6.403-11.098-2.046-17.05C172.913,238.929,177.313,233.613,192.943,236.265z"/>
		<path fill="#F2FAFE" d="M192.951,236.317c7.55,1.277,11.8-0.939,11.328-4.587c-0.52-3.989-0.938-7.993-4.336-15.706    c-3.396-7.713-1.113-9.874-0.111-10.227c1.907-0.669,2.252,3.403,2.634,5.541c0.703,3.931-0.025,0.68,1.733,7.444    c1.761,6.764,3.998,11.867,4.184,15.256c0.19,3.391,1.029,5.331,1.72,10.652c0.691,5.321,3.659,12.423,3.532,17.27    c-0.129,4.849,1.615,5.946-0.326,7.829c-1.94,1.879-5.007,2.731-3.694-1.566c0.838-2.744-0.436-4.287-2.051-2.491    s-6.435,3.034-10.43,2.354c-3.995-0.679-8.084-0.31-11.086,1.503c-3,1.812-5.389,4.435-8.395,0.229    c-3.389-4.741-2.225-3.467-7.021-7.893c-3.992-3.684-6.396-11.065-2.041-17.01C172.945,238.969,177.335,233.673,192.951,236.317z"/>
		<path fill="#F1F9FE" d="M192.959,236.371c7.543,1.273,11.812-0.968,11.341-4.608c-0.518-3.983-0.929-7.981-4.321-15.682    c-3.392-7.701-1.143-9.913-0.142-10.266c1.906-0.668,2.253,3.467,2.634,5.601c0.702,3.926-0.016,0.676,1.74,7.43    c1.758,6.753,3.98,11.839,4.165,15.223c0.189,3.385,1.028,5.329,1.717,10.643c0.689,5.313,3.658,12.398,3.531,17.238    c-0.13,4.841,1.621,5.948-0.319,7.829c-1.939,1.876-4.992,2.715-3.679-1.576c0.837-2.74-0.467-4.294-2.08-2.5    c-1.615,1.794-6.426,3.028-10.417,2.351s-8.078-0.308-11.078,1.502c-2.998,1.81-5.379,4.436-8.381,0.237    c-3.385-4.733-2.215-3.457-7.006-7.875c-3.988-3.678-6.389-11.033-2.037-16.97C172.978,239.008,177.358,233.733,192.959,236.371z"/>
		<path fill="#F0F9FE" d="M192.968,236.424c7.536,1.271,11.823-0.994,11.353-4.63c-0.517-3.977-0.918-7.97-4.308-15.657    c-3.386-7.688-1.171-9.952-0.171-10.304c1.904-0.668,2.253,3.53,2.634,5.661c0.7,3.919-0.006,0.671,1.747,7.414    c1.755,6.741,3.962,11.81,4.146,15.188c0.188,3.38,1.027,5.328,1.714,10.633c0.688,5.306,3.658,12.376,3.53,17.207    c-0.131,4.834,1.626,5.951-0.312,7.829c-1.938,1.874-4.978,2.7-3.665-1.585c0.837-2.736-0.496-4.3-2.109-2.509    s-6.416,3.022-10.403,2.346c-3.987-0.675-8.073-0.306-11.07,1.502c-2.996,1.807-5.37,4.438-8.368,0.245    c-3.382-4.726-2.207-3.446-6.992-7.856c-3.984-3.671-6.381-11.002-2.032-16.93C173.01,239.047,177.38,233.793,192.968,236.424z"/>
		<path fill="#EFF9FE" d="M192.976,236.478c7.529,1.267,11.835-1.021,11.365-4.651c-0.515-3.971-0.908-7.958-4.293-15.634    c-3.382-7.675-1.2-9.99-0.201-10.342c1.903-0.667,2.254,3.594,2.633,5.721c0.699,3.913,0.005,0.667,1.755,7.399    c1.752,6.73,3.944,11.781,4.127,15.155c0.188,3.374,1.026,5.327,1.712,10.623c0.687,5.297,3.657,12.352,3.528,17.176    c-0.131,4.826,1.633,5.953-0.304,7.829c-1.938,1.871-4.962,2.684-3.65-1.595c0.837-2.732-0.526-4.307-2.139-2.518    c-1.612,1.788-6.406,3.016-10.39,2.342c-3.984-0.674-8.066-0.305-11.062,1.501c-2.994,1.805-5.36,4.438-8.355,0.254    c-3.377-4.718-2.197-3.437-6.978-7.839c-3.979-3.665-6.373-10.971-2.027-16.89C173.043,239.087,177.403,233.854,192.976,236.478z"/>
		<path fill="#EEF8FE" d="M192.983,236.53c7.522,1.264,11.847-1.048,11.379-4.672c-0.515-3.965-0.899-7.946-4.279-15.609    c-3.377-7.663-1.229-10.03-0.231-10.381c1.901-0.667,2.254,3.658,2.633,5.781c0.698,3.906,0.015,0.662,1.762,7.384    c1.75,6.72,3.926,11.753,4.108,15.121c0.187,3.369,1.025,5.326,1.709,10.614c0.685,5.289,3.657,12.327,3.527,17.145    c-0.132,4.818,1.639,5.955-0.297,7.828c-1.936,1.869-4.947,2.669-3.636-1.604c0.837-2.728-0.557-4.313-2.168-2.527    c-1.61,1.786-6.396,3.011-10.376,2.338c-3.98-0.672-8.062-0.302-11.054,1.501c-2.991,1.803-5.351,4.439-8.342,0.262    c-3.374-4.709-2.188-3.426-6.963-7.82c-3.976-3.658-6.366-10.939-2.022-16.851C173.075,239.126,177.425,233.913,192.983,236.53z"/>
		<path fill="#EDF8FE" d="M192.991,236.583c7.516,1.261,11.858-1.074,11.392-4.693c-0.513-3.958-0.889-7.935-4.265-15.585    c-3.373-7.65-1.259-10.069-0.261-10.42c1.899-0.665,2.254,3.723,2.632,5.843c0.696,3.9,0.024,0.656,1.769,7.368    c1.747,6.709,3.908,11.725,4.089,15.088c0.187,3.364,1.024,5.324,1.707,10.604c0.684,5.28,3.656,12.304,3.526,17.112    c-0.133,4.812,1.645,5.959-0.29,7.829c-1.935,1.865-4.932,2.652-3.62-1.613c0.836-2.724-0.588-4.319-2.197-2.536    c-1.61,1.784-6.387,3.005-10.363,2.334c-3.977-0.67-8.055-0.301-11.045,1.5c-2.989,1.801-5.341,4.441-8.329,0.271    c-3.37-4.702-2.179-3.415-6.95-7.803c-3.971-3.652-6.358-10.908-2.018-16.811C173.108,239.165,177.447,233.974,192.991,236.583z"/>
		<path fill="#ECF7FD" d="M193,236.637c7.509,1.257,11.869-1.103,11.403-4.715c-0.512-3.952-0.879-7.923-4.25-15.562    c-3.369-7.638-1.288-10.107-0.291-10.458c1.897-0.665,2.254,3.786,2.632,5.902c0.695,3.895,0.034,0.652,1.775,7.354    c1.744,6.698,3.89,11.696,4.07,15.054c0.186,3.359,1.023,5.324,1.704,10.596c0.682,5.271,3.656,12.279,3.524,17.081    c-0.133,4.804,1.65,5.961-0.282,7.828c-1.933,1.863-4.916,2.638-3.605-1.622c0.836-2.72-0.618-4.326-2.227-2.545    s-6.377,2.998-10.35,2.329c-3.973-0.668-8.05-0.299-11.038,1.5c-2.986,1.798-5.331,4.442-8.316,0.278    c-3.366-4.693-2.17-3.404-6.936-7.784c-3.967-3.646-6.351-10.876-2.013-16.771C173.14,239.205,177.47,234.033,193,236.637z"/>
		<path fill="#EBF7FD" d="M193.008,236.689c7.502,1.254,11.882-1.129,11.417-4.736c-0.511-3.945-0.87-7.911-4.236-15.536    c-3.364-7.626-1.317-10.147-0.321-10.497c1.896-0.664,2.255,3.85,2.631,5.963c0.694,3.888,0.045,0.647,1.783,7.337    c1.741,6.688,3.871,11.669,4.052,15.021c0.185,3.354,1.022,5.322,1.701,10.586c0.681,5.264,3.655,12.255,3.523,17.05    c-0.134,4.796,1.656,5.963-0.275,7.828c-1.932,1.86-4.901,2.621-3.591-1.632c0.836-2.716-0.647-4.333-2.256-2.554    c-1.607,1.778-6.367,2.992-10.336,2.325c-3.97-0.667-8.043-0.297-11.029,1.499c-2.984,1.796-5.322,4.443-8.303,0.287    c-3.362-4.687-2.161-3.395-6.921-7.767c-3.963-3.64-6.343-10.845-2.008-16.73C173.173,239.244,177.492,234.094,193.008,236.689z"/>
		<path fill="#EAF7FD" d="M193.016,236.743c7.495,1.25,11.894-1.156,11.43-4.758c-0.51-3.939-0.859-7.899-4.222-15.513    c-3.36-7.613-1.347-10.186-0.352-10.535c1.895-0.664,2.255,3.913,2.631,6.023c0.692,3.882,0.055,0.643,1.791,7.321    c1.738,6.678,3.853,11.641,4.031,14.987c0.185,3.349,1.021,5.321,1.699,10.576c0.679,5.256,3.655,12.232,3.522,17.019    c-0.135,4.789,1.662,5.966-0.269,7.828c-1.93,1.858-4.886,2.606-3.576-1.641c0.836-2.712-0.678-4.339-2.284-2.563    c-1.607,1.775-6.357,2.986-10.323,2.32c-3.966-0.664-8.038-0.295-11.021,1.499c-2.982,1.794-5.313,4.445-8.29,0.295    c-3.358-4.678-2.152-3.384-6.907-7.748c-3.958-3.633-6.335-10.813-2.003-16.691C173.205,239.283,177.515,234.153,193.016,236.743z    "/>
		<path fill="#E9F6FD" d="M193.024,236.796c7.487,1.247,11.904-1.183,11.441-4.778c-0.508-3.934-0.85-7.889-4.207-15.489    c-3.356-7.601-1.376-10.225-0.382-10.573c1.894-0.663,2.256,3.977,2.631,6.083c0.691,3.876,0.064,0.639,1.798,7.307    c1.735,6.667,3.834,11.612,4.013,14.954c0.183,3.343,1.021,5.32,1.696,10.566c0.677,5.247,3.654,12.208,3.521,16.987    c-0.136,4.781,1.667,5.968-0.262,7.828c-1.929,1.855-4.87,2.59-3.561-1.65c0.835-2.707-0.709-4.346-2.314-2.572    c-1.605,1.774-6.348,2.981-10.31,2.317c-3.962-0.663-8.032-0.294-11.013,1.498c-2.979,1.792-5.302,4.446-8.277,0.304    c-3.354-4.671-2.143-3.374-6.893-7.73c-3.954-3.627-6.328-10.782-1.998-16.651C173.238,239.322,177.537,234.214,193.024,236.796z"/>
		<path fill="#E8F6FD" d="M193.032,236.85c7.481,1.243,11.916-1.21,11.454-4.801c-0.507-3.927-0.839-7.876-4.192-15.464    c-3.352-7.589-1.405-10.264-0.412-10.613c1.892-0.662,2.256,4.041,2.631,6.145c0.689,3.869,0.074,0.634,1.805,7.291    c1.732,6.656,3.816,11.584,3.994,14.92c0.182,3.338,1.02,5.319,1.693,10.558c0.676,5.239,3.654,12.184,3.52,16.956    c-0.136,4.773,1.674,5.97-0.254,7.827c-1.927,1.854-4.855,2.575-3.546-1.659c0.835-2.703-0.739-4.353-2.344-2.581    s-6.338,2.975-10.296,2.313c-3.958-0.661-8.026-0.291-11.005,1.498c-2.977,1.789-5.293,4.447-8.264,0.312    c-3.351-4.662-2.134-3.363-6.879-7.712c-3.95-3.62-6.32-10.751-1.994-16.611C173.27,239.362,177.56,234.273,193.032,236.85z"/>
		<path fill="#E7F6FD" d="M193.04,236.902c7.475,1.24,11.928-1.237,11.468-4.821c-0.506-3.921-0.83-7.865-4.18-15.44    c-3.347-7.576-1.434-10.303-0.441-10.651c1.891-0.661,2.257,4.104,2.63,6.205c0.688,3.863,0.085,0.628,1.813,7.275    c1.729,6.645,3.798,11.555,3.975,14.887c0.182,3.332,1.019,5.317,1.691,10.548c0.674,5.23,3.653,12.16,3.519,16.925    c-0.137,4.767,1.68,5.972-0.246,7.827c-1.926,1.851-4.841,2.56-3.532-1.668c0.835-2.7-0.77-4.359-2.372-2.591    c-1.604,1.769-6.328,2.969-10.282,2.309c-3.955-0.659-8.021-0.29-10.998,1.498c-2.975,1.786-5.283,4.448-8.25,0.319    c-3.347-4.654-2.125-3.354-6.865-7.694c-3.946-3.614-6.313-10.72-1.989-16.572C173.302,239.401,177.582,234.334,193.04,236.902z"/>
		<path fill="#E6F5FD" d="M193.049,236.955c7.467,1.237,11.938-1.264,11.479-4.842c-0.505-3.915-0.82-7.854-4.165-15.417    c-3.342-7.563-1.463-10.342-0.471-10.689c1.889-0.661,2.256,4.168,2.629,6.265c0.688,3.857,0.095,0.624,1.819,7.261    c1.728,6.634,3.779,11.526,3.956,14.854c0.181,3.327,1.018,5.316,1.688,10.538c0.673,5.222,3.653,12.136,3.518,16.893    c-0.139,4.76,1.685,5.975-0.239,7.827c-1.925,1.848-4.825,2.544-3.517-1.677c0.834-2.696-0.801-4.366-2.402-2.6    c-1.603,1.766-6.318,2.963-10.269,2.305c-3.952-0.658-8.016-0.289-10.99,1.497c-2.973,1.784-5.273,4.449-8.238,0.327    c-3.343-4.646-2.116-3.343-6.851-7.676c-3.942-3.607-6.305-10.688-1.984-16.532C173.335,239.44,177.604,234.394,193.049,236.955z"/>
		<path fill="#E5F5FD" d="M193.057,237.009c7.46,1.233,11.951-1.291,11.492-4.864c-0.503-3.908-0.81-7.841-4.15-15.392    c-3.338-7.551-1.492-10.381-0.501-10.729c1.887-0.66,2.257,4.231,2.629,6.325c0.686,3.851,0.104,0.619,1.826,7.245    c1.725,6.623,3.762,11.498,3.938,14.819c0.18,3.322,1.017,5.315,1.686,10.529c0.671,5.214,3.652,12.111,3.516,16.861    c-0.139,4.752,1.691,5.977-0.231,7.826c-1.923,1.846-4.811,2.529-3.502-1.686c0.834-2.692-0.83-4.373-2.432-2.608    c-1.601,1.764-6.309,2.956-10.255,2.3c-3.948-0.656-8.01-0.286-10.981,1.497c-2.97,1.782-5.264,4.45-8.225,0.335    c-3.339-4.638-2.107-3.332-6.836-7.657c-3.938-3.602-6.298-10.656-1.979-16.492C173.367,239.48,177.627,234.454,193.057,237.009z"/>
		<path fill="#E4F4FD" d="M193.064,237.062c7.453,1.23,11.963-1.317,11.506-4.885c-0.503-3.902-0.801-7.83-4.137-15.368    c-3.334-7.538-1.521-10.42-0.531-10.767c1.886-0.66,2.257,4.296,2.629,6.386c0.685,3.845,0.114,0.614,1.833,7.229    c1.722,6.612,3.743,11.47,3.918,14.786c0.18,3.316,1.016,5.314,1.684,10.519c0.67,5.206,3.652,12.088,3.515,16.831    c-0.14,4.744,1.697,5.979-0.225,7.826c-1.922,1.843-4.795,2.513-3.487-1.695c0.834-2.688-0.86-4.38-2.46-2.618    c-1.601,1.762-6.3,2.951-10.242,2.297c-3.944-0.655-8.004-0.285-10.974,1.496c-2.968,1.779-5.254,4.451-8.211,0.344    c-3.335-4.631-2.098-3.322-6.822-7.64c-3.934-3.595-6.29-10.625-1.975-16.452C173.4,239.52,177.649,234.514,193.064,237.062z"/>
		<path fill="#E3F4FD" d="M193.072,237.115c7.447,1.227,11.975-1.345,11.519-4.907c-0.501-3.896-0.791-7.817-4.122-15.344    c-3.329-7.525-1.551-10.458-0.562-10.806c1.884-0.658,2.258,4.36,2.629,6.446c0.683,3.839,0.124,0.61,1.84,7.214    c1.72,6.603,3.726,11.442,3.899,14.753c0.178,3.312,1.015,5.313,1.681,10.51c0.668,5.197,3.651,12.064,3.514,16.799    c-0.141,4.737,1.703,5.981-0.218,7.826c-1.92,1.841-4.779,2.498-3.473-1.704c0.834-2.684-0.891-4.386-2.489-2.627    s-6.289,2.945-10.229,2.292c-3.94-0.652-7.999-0.283-10.965,1.496c-2.966,1.777-5.245,4.453-8.199,0.352    c-3.331-4.622-2.088-3.312-6.808-7.621c-3.929-3.589-6.282-10.594-1.97-16.413C173.432,239.559,177.672,234.574,193.072,237.115z"/>
		<path fill="#E2F4FD" d="M193.081,237.168c7.439,1.224,11.985-1.371,11.53-4.928c-0.5-3.89-0.78-7.807-4.107-15.319    c-3.325-7.514-1.58-10.498-0.592-10.845c1.883-0.658,2.258,4.424,2.628,6.507c0.682,3.832,0.135,0.605,1.849,7.198    c1.716,6.592,3.706,11.414,3.879,14.72c0.178,3.306,1.014,5.312,1.679,10.5c0.666,5.189,3.651,12.04,3.513,16.768    c-0.142,4.729,1.708,5.983-0.211,7.826c-1.919,1.838-4.765,2.481-3.457-1.714c0.833-2.68-0.922-4.393-2.52-2.636    c-1.598,1.756-6.279,2.939-10.215,2.288c-3.938-0.651-7.992-0.281-10.957,1.495c-2.963,1.775-5.235,4.454-8.186,0.36    c-3.328-4.615-2.08-3.302-6.794-7.604c-3.925-3.582-6.275-10.563-1.965-16.373C173.465,239.598,177.694,234.634,193.081,237.168z"/>
		<path fill="#E1F3FD" d="M193.089,237.221c7.433,1.221,11.997-1.398,11.543-4.948c-0.498-3.884-0.771-7.795-4.093-15.296    c-3.32-7.501-1.609-10.537-0.622-10.883c1.881-0.657,2.259,4.487,2.628,6.567c0.681,3.826,0.145,0.601,1.855,7.183    c1.713,6.581,3.688,11.386,3.86,14.686c0.177,3.301,1.013,5.312,1.676,10.491c0.665,5.181,3.65,12.016,3.511,16.736    c-0.142,4.722,1.715,5.986-0.203,7.825c-1.917,1.836-4.749,2.467-3.442-1.723c0.833-2.676-0.952-4.399-2.548-2.645    c-1.598,1.754-6.271,2.933-10.202,2.283c-3.934-0.649-7.987-0.279-10.949,1.495c-2.961,1.773-5.225,4.455-8.172,0.368    c-3.323-4.606-2.07-3.29-6.78-7.585c-3.921-3.576-6.268-10.53-1.96-16.333C173.497,239.638,177.716,234.694,193.089,237.221z"/>
		<path fill="#E0F3FC" d="M193.097,237.274c7.426,1.217,12.009-1.426,11.557-4.971c-0.498-3.877-0.761-7.783-4.079-15.271    c-3.316-7.488-1.639-10.575-0.651-10.921c1.879-0.657,2.258,4.551,2.627,6.627c0.679,3.82,0.154,0.596,1.862,7.168    c1.71,6.57,3.67,11.357,3.842,14.652c0.176,3.296,1.012,5.31,1.673,10.481c0.663,5.172,3.65,11.992,3.51,16.704    c-0.143,4.715,1.721,5.989-0.196,7.826c-1.916,1.832-4.733,2.45-3.428-1.732c0.833-2.672-0.982-4.405-2.577-2.653    c-1.596,1.751-6.261,2.927-10.188,2.279c-3.93-0.647-7.98-0.278-10.941,1.494c-2.959,1.771-5.216,4.457-8.159,0.377    c-3.32-4.6-2.062-3.28-6.766-7.567c-3.917-3.569-6.26-10.499-1.955-16.293C173.53,239.677,177.739,234.754,193.097,237.274z"/>
		<path fill="#DFF2FC" d="M193.105,237.327c7.419,1.214,12.021-1.452,11.568-4.991c-0.496-3.871-0.751-7.771-4.064-15.247    c-3.313-7.477-1.668-10.615-0.682-10.96c1.877-0.656,2.259,4.614,2.627,6.688c0.678,3.813,0.164,0.591,1.869,7.152    c1.708,6.56,3.651,11.329,3.822,14.618c0.176,3.291,1.011,5.309,1.671,10.473c0.662,5.164,3.649,11.968,3.509,16.673    c-0.144,4.707,1.726,5.991-0.189,7.825c-1.914,1.83-4.719,2.436-3.413-1.741c0.833-2.667-1.012-4.412-2.606-2.663    s-6.25,2.922-10.175,2.275c-3.926-0.646-7.976-0.275-10.933,1.494c-2.956,1.769-5.206,4.458-8.146,0.385    c-3.316-4.591-2.052-3.27-6.751-7.549c-3.913-3.563-6.252-10.468-1.951-16.254C173.562,239.716,177.761,234.814,193.105,237.327z"/>
		<path fill="#DEF2FC" d="M193.113,237.381c7.412,1.21,12.032-1.479,11.581-5.013c-0.495-3.865-0.741-7.76-4.05-15.224    c-3.308-7.464-1.697-10.653-0.712-10.999c1.876-0.655,2.259,4.679,2.626,6.749c0.677,3.808,0.175,0.586,1.877,7.137    c1.705,6.549,3.634,11.301,3.804,14.585c0.175,3.285,1.01,5.308,1.668,10.462c0.66,5.156,3.649,11.944,3.507,16.643    c-0.144,4.699,1.732,5.993-0.182,7.825c-1.913,1.827-4.703,2.419-3.397-1.751c0.832-2.663-1.043-4.419-2.636-2.672    c-1.594,1.746-6.241,2.915-10.162,2.271c-3.923-0.645-7.97-0.274-10.925,1.493c-2.954,1.767-5.196,4.459-8.133,0.394    c-3.312-4.583-2.043-3.26-6.737-7.531c-3.908-3.557-6.245-10.437-1.946-16.214C173.595,239.756,177.784,234.874,193.113,237.381z"/>
		<path fill="#DDF2FC" d="M193.121,237.434c7.405,1.207,12.044-1.506,11.595-5.034c-0.494-3.858-0.731-7.748-4.037-15.199    c-3.303-7.45-1.726-10.692-0.741-11.037c1.874-0.654,2.26,4.742,2.626,6.809c0.675,3.802,0.185,0.582,1.884,7.122    c1.702,6.537,3.615,11.271,3.785,14.551c0.173,3.28,1.009,5.307,1.665,10.453c0.659,5.147,3.648,11.921,3.506,16.61    c-0.145,4.692,1.738,5.996-0.174,7.825c-1.912,1.825-4.688,2.404-3.384-1.76c0.832-2.659-1.073-4.425-2.665-2.681    c-1.593,1.744-6.231,2.909-10.148,2.267c-3.919-0.642-7.964-0.272-10.917,1.493c-2.952,1.765-5.187,4.461-8.12,0.401    c-3.308-4.575-2.034-3.249-6.724-7.513c-3.904-3.551-6.237-10.405-1.941-16.174C173.627,239.795,177.806,234.935,193.121,237.434z    "/>
		<path fill="#DCF1FC" d="M193.13,237.487c7.397,1.203,12.055-1.534,11.606-5.056c-0.493-3.853-0.722-7.736-4.022-15.175    c-3.299-7.438-1.755-10.731-0.771-11.076c1.873-0.654,2.26,4.806,2.626,6.869c0.674,3.795,0.194,0.577,1.891,7.106    c1.699,6.526,3.598,11.243,3.766,14.518c0.173,3.274,1.008,5.305,1.663,10.443c0.657,5.14,3.648,11.896,3.505,16.579    c-0.146,4.685,1.743,5.998-0.167,7.825c-1.911,1.822-4.674,2.388-3.369-1.77c0.832-2.655-1.104-4.432-2.694-2.689    c-1.591,1.741-6.222,2.903-10.135,2.263c-3.915-0.641-7.958-0.271-10.909,1.492c-2.949,1.762-5.177,4.462-8.107,0.41    c-3.304-4.567-2.025-3.239-6.709-7.495c-3.9-3.544-6.23-10.373-1.937-16.134C173.66,239.834,177.829,234.994,193.13,237.487z"/>
		<path fill="#DBF1FC" d="M193.138,237.54c7.392,1.2,12.066-1.561,11.619-5.077c-0.491-3.846-0.712-7.725-4.008-15.15    c-3.294-7.426-1.784-10.771-0.802-11.114c1.871-0.653,2.261,4.869,2.626,6.93c0.672,3.789,0.204,0.572,1.897,7.09    c1.697,6.517,3.579,11.216,3.747,14.484c0.172,3.27,1.007,5.305,1.66,10.435c0.655,5.131,3.647,11.872,3.504,16.548    c-0.146,4.677,1.749,6-0.16,7.824c-1.909,1.82-4.658,2.373-3.354-1.778c0.832-2.65-1.134-4.438-2.723-2.698    c-1.591,1.738-6.212,2.897-10.122,2.259c-3.911-0.64-7.952-0.27-10.9,1.491c-2.947,1.76-5.167,4.463-8.094,0.418    c-3.3-4.56-2.016-3.229-6.695-7.477c-3.896-3.538-6.222-10.342-1.932-16.095C173.692,239.873,177.851,235.055,193.138,237.54z"/>
		<path fill="#DAF0FC" d="M193.146,237.593c7.385,1.197,12.079-1.587,11.632-5.098c-0.49-3.84-0.701-7.713-3.993-15.127    c-3.29-7.413-1.813-10.81-0.832-11.152c1.87-0.653,2.261,4.933,2.626,6.989c0.671,3.783,0.214,0.568,1.905,7.075    c1.693,6.506,3.56,11.188,3.728,14.451c0.171,3.264,1.006,5.303,1.657,10.425c0.654,5.122,3.647,11.849,3.502,16.516    c-0.146,4.67,1.756,6.003-0.152,7.825c-1.908,1.817-4.643,2.356-3.339-1.788c0.831-2.646-1.164-4.444-2.753-2.708    s-6.202,2.892-10.108,2.255c-3.907-0.637-7.946-0.268-10.893,1.491c-2.945,1.758-5.158,4.465-8.081,0.427    c-3.296-4.552-2.007-3.219-6.681-7.46c-3.891-3.53-6.214-10.31-1.926-16.054C173.725,239.913,177.874,235.114,193.146,237.593z"/>
		<path fill="#D9F0FC" d="M193.153,237.646c7.378,1.193,12.091-1.614,11.646-5.119c-0.489-3.834-0.692-7.702-3.979-15.103    c-3.285-7.401-1.843-10.849-0.861-11.192c1.868-0.651,2.261,4.998,2.624,7.051c0.67,3.776,0.225,0.563,1.913,7.06    c1.69,6.495,3.542,11.159,3.708,14.418c0.171,3.259,1.005,5.301,1.655,10.415c0.652,5.114,3.646,11.824,3.501,16.484    c-0.147,4.662,1.762,6.005-0.146,7.824c-1.906,1.814-4.628,2.342-3.324-1.797c0.831-2.643-1.194-4.451-2.782-2.717    s-6.192,2.886-10.095,2.251c-3.904-0.636-7.94-0.266-10.884,1.49c-2.942,1.756-5.148,4.466-8.068,0.435    c-3.292-4.544-1.998-3.208-6.667-7.441c-3.887-3.524-6.207-10.278-1.922-16.014C173.757,239.952,177.896,235.175,193.153,237.646z    "/>
		<path fill="#D8F0FC" d="M193.162,237.699c7.37,1.19,12.102-1.641,11.657-5.141c-0.488-3.827-0.682-7.689-3.965-15.078    c-3.281-7.389-1.872-10.888-0.892-11.23c1.866-0.651,2.261,5.062,2.624,7.111c0.668,3.771,0.234,0.558,1.92,7.044    c1.688,6.484,3.523,11.131,3.689,14.384c0.17,3.254,1.004,5.301,1.652,10.405c0.651,5.106,3.646,11.801,3.5,16.454    c-0.148,4.654,1.767,6.007-0.139,7.824c-1.905,1.812-4.612,2.325-3.31-1.807c0.831-2.639-1.225-4.458-2.811-2.726    c-1.588,1.731-6.183,2.88-10.082,2.246c-3.9-0.634-7.936-0.264-10.876,1.49c-2.94,1.753-5.139,4.467-8.055,0.443    c-3.289-4.536-1.989-3.198-6.653-7.424c-3.883-3.518-6.199-10.247-1.917-15.975C173.79,239.991,177.918,235.234,193.162,237.699z"/>
		<path fill="#D7EFFC" d="M193.17,237.753c7.364,1.187,12.113-1.669,11.67-5.162c-0.486-3.821-0.672-7.679-3.95-15.055    c-3.277-7.376-1.901-10.926-0.922-11.269c1.865-0.65,2.262,5.125,2.624,7.171c0.667,3.765,0.244,0.554,1.927,7.029    c1.686,6.474,3.506,11.103,3.67,14.351c0.169,3.248,1.003,5.299,1.65,10.396c0.649,5.098,3.646,11.777,3.498,16.423    c-0.148,4.647,1.773,6.009-0.131,7.823c-1.903,1.81-4.597,2.311-3.295-1.814c0.831-2.636-1.255-4.465-2.84-2.735    c-1.586,1.729-6.173,2.873-10.068,2.242c-3.896-0.632-7.929-0.263-10.868,1.489c-2.938,1.751-5.129,4.469-8.042,0.451    c-3.285-4.527-1.979-3.188-6.639-7.405c-3.879-3.512-6.192-10.216-1.912-15.935C173.822,240.031,177.941,235.295,193.17,237.753z"/>
		<path fill="#D6EFFC" d="M193.178,237.806c7.357,1.184,12.125-1.695,11.684-5.183c-0.486-3.815-0.663-7.667-3.937-15.03    c-3.272-7.364-1.931-10.966-0.952-11.308c1.863-0.65,2.262,5.188,2.624,7.231c0.665,3.758,0.254,0.549,1.934,7.014    c1.683,6.463,3.487,11.074,3.651,14.316c0.168,3.243,1.002,5.299,1.647,10.387c0.648,5.09,3.646,11.753,3.497,16.391    c-0.15,4.641,1.779,6.012-0.124,7.824c-1.902,1.807-4.582,2.294-3.279-1.824c0.83-2.631-1.286-4.472-2.87-2.745    c-1.585,1.727-6.163,2.868-10.055,2.238c-3.893-0.63-7.924-0.26-10.86,1.489c-2.936,1.749-5.119,4.47-8.029,0.46    c-3.281-4.521-1.97-3.178-6.624-7.388c-3.875-3.505-6.185-10.184-1.908-15.895C173.854,240.07,177.963,235.354,193.178,237.806z"/>
		<path fill="#D5EEFC" d="M193.187,237.858c7.35,1.181,12.136-1.722,11.695-5.204c-0.484-3.809-0.652-7.654-3.922-15.006    c-3.269-7.352-1.96-11.005-0.982-11.346c1.862-0.649,2.263,5.252,2.623,7.292c0.665,3.752,0.265,0.544,1.941,6.998    c1.68,6.452,3.47,11.046,3.633,14.283c0.167,3.237,1.001,5.297,1.645,10.377c0.646,5.081,3.645,11.729,3.496,16.359    c-0.151,4.633,1.784,6.015-0.117,7.823c-1.9,1.805-4.566,2.279-3.265-1.833c0.83-2.627-1.316-4.479-2.898-2.754    c-1.584,1.725-6.154,2.862-10.042,2.234c-3.89-0.629-7.917-0.259-10.852,1.488c-2.933,1.747-5.109,4.471-8.015,0.468    c-3.277-4.512-1.961-3.166-6.61-7.369c-3.871-3.499-6.177-10.152-1.903-15.854C173.887,240.109,177.985,235.415,193.187,237.858z"/>
		<path fill="#D4EEFB" d="M193.194,237.912c7.343,1.177,12.148-1.749,11.708-5.226c-0.483-3.803-0.643-7.644-3.907-14.982    c-3.264-7.339-1.989-11.043-1.013-11.385c1.86-0.648,2.263,5.316,2.623,7.353c0.663,3.746,0.274,0.54,1.948,6.983    c1.678,6.441,3.451,11.018,3.613,14.249c0.167,3.232,1,5.296,1.643,10.368c0.645,5.072,3.645,11.704,3.494,16.328    c-0.151,4.625,1.791,6.017-0.109,7.823c-1.899,1.802-4.551,2.263-3.25-1.843c0.83-2.623-1.346-4.485-2.928-2.763    c-1.583,1.722-6.144,2.855-10.028,2.229c-3.886-0.627-7.912-0.257-10.844,1.488c-2.931,1.744-5.1,4.472-8.002,0.477    c-3.273-4.505-1.952-3.156-6.596-7.352c-3.866-3.492-6.169-10.121-1.898-15.815C173.919,240.149,178.008,235.475,193.194,237.912z    "/>
		<path fill="#D3EEFB" d="M193.202,237.965c7.337,1.174,12.16-1.775,11.721-5.247c-0.481-3.796-0.633-7.631-3.894-14.957    c-3.259-7.326-2.018-11.083-1.042-11.424c1.859-0.647,2.264,5.38,2.623,7.413c0.661,3.739,0.284,0.535,1.955,6.967    c1.675,6.431,3.433,10.989,3.595,14.217c0.166,3.227,0.999,5.295,1.64,10.358c0.644,5.064,3.644,11.681,3.493,16.296    c-0.152,4.618,1.797,6.02-0.102,7.823c-1.898,1.8-4.537,2.248-3.236-1.852c0.83-2.619-1.376-4.491-2.957-2.771    c-1.581,1.719-6.134,2.85-10.015,2.226c-3.882-0.625-7.905-0.255-10.835,1.487c-2.929,1.742-5.09,4.474-7.99,0.484    c-3.269-4.496-1.943-3.146-6.582-7.333c-3.862-3.486-6.162-10.09-1.894-15.775C173.952,240.188,178.03,235.535,193.202,237.965z"/>
		<path fill="#D2EDFB" d="M193.211,238.019c7.329,1.17,12.171-1.803,11.733-5.269c-0.481-3.79-0.623-7.62-3.88-14.934    c-3.255-7.313-2.047-11.121-1.071-11.462c1.856-0.647,2.263,5.443,2.622,7.474c0.66,3.733,0.294,0.529,1.963,6.951    c1.671,6.42,3.414,10.961,3.575,14.183c0.165,3.223,0.998,5.294,1.637,10.349c0.642,5.057,3.644,11.657,3.492,16.266    c-0.153,4.61,1.802,6.021-0.095,7.823c-1.897,1.796-4.521,2.231-3.221-1.861c0.829-2.615-1.407-4.498-2.986-2.78    c-1.581,1.716-6.125,2.844-10.002,2.221c-3.878-0.623-7.9-0.253-10.828,1.487c-2.926,1.74-5.081,4.475-7.976,0.493    c-3.266-4.489-1.934-3.136-6.568-7.315c-3.858-3.479-6.154-10.059-1.888-15.735C173.984,240.228,178.053,235.595,193.211,238.019z    "/>
		<path fill="#D1EDFB" d="M193.219,238.071c7.322,1.167,12.183-1.83,11.746-5.289c-0.479-3.784-0.613-7.608-3.865-14.91    c-3.25-7.301-2.076-11.16-1.102-11.5c1.855-0.646,2.264,5.507,2.621,7.533c0.659,3.728,0.305,0.525,1.971,6.937    c1.668,6.409,3.396,10.933,3.556,14.149c0.164,3.217,0.997,5.292,1.635,10.339c0.641,5.048,3.643,11.633,3.491,16.234    c-0.154,4.603,1.808,6.023-0.088,7.822c-1.896,1.794-4.506,2.217-3.206-1.87c0.829-2.61-1.438-4.505-3.016-2.79    c-1.579,1.715-6.115,2.839-9.988,2.218c-3.875-0.622-7.895-0.252-10.819,1.486c-2.924,1.738-5.071,4.476-7.963,0.501    c-3.262-4.48-1.925-3.125-6.554-7.297c-3.854-3.474-6.146-10.026-1.883-15.695C174.017,240.267,178.075,235.655,193.219,238.071z"/>
		<path fill="#D0ECFB" d="M193.227,238.125c7.315,1.163,12.194-1.857,11.759-5.312c-0.479-3.777-0.603-7.597-3.851-14.885    c-3.246-7.289-2.105-11.199-1.132-11.539c1.854-0.646,2.264,5.57,2.621,7.594c0.658,3.721,0.314,0.521,1.978,6.921    c1.666,6.398,3.378,10.904,3.537,14.115c0.163,3.212,0.996,5.292,1.632,10.33c0.639,5.04,3.643,11.609,3.489,16.202    c-0.154,4.596,1.814,6.026-0.08,7.823c-1.895,1.791-4.491,2.2-3.191-1.88c0.829-2.606-1.468-4.511-3.045-2.799    c-1.578,1.712-6.104,2.832-9.975,2.213c-3.871-0.619-7.889-0.249-10.812,1.486c-2.921,1.735-5.061,4.478-7.95,0.51    c-3.258-4.474-1.916-3.115-6.54-7.279c-3.85-3.467-6.139-9.995-1.879-15.656C174.049,240.307,178.098,235.715,193.227,238.125z"/>
		<path fill="#D0ECFB" d="M193.234,238.178c7.309,1.16,12.206-1.884,11.771-5.332c-0.478-3.771-0.593-7.585-3.836-14.861    c-3.242-7.276-2.136-11.238-1.162-11.578c1.853-0.646,2.265,5.635,2.621,7.654c0.656,3.715,0.323,0.517,1.984,6.906    c1.663,6.388,3.359,10.876,3.519,14.082c0.162,3.206,0.995,5.29,1.63,10.32c0.637,5.031,3.642,11.585,3.487,16.171    c-0.155,4.588,1.82,6.028-0.073,7.822c-1.893,1.789-4.476,2.186-3.177-1.889c0.829-2.603-1.497-4.518-3.073-2.808    c-1.577,1.709-6.096,2.826-9.962,2.209c-3.867-0.618-7.883-0.248-10.803,1.485c-2.919,1.733-5.052,4.479-7.937,0.518    c-3.254-4.465-1.907-3.104-6.525-7.261c-3.845-3.461-6.131-9.964-1.874-15.616C174.082,240.346,178.12,235.775,193.234,238.178z"/>
		<path fill="#CFECFB" d="M193.243,238.23c7.302,1.157,12.218-1.91,11.784-5.353c-0.477-3.766-0.584-7.573-3.822-14.838    c-3.237-7.264-2.165-11.277-1.192-11.616c1.852-0.645,2.265,5.699,2.621,7.715c0.654,3.709,0.333,0.512,1.991,6.891    c1.66,6.377,3.341,10.848,3.499,14.049c0.162,3.2,0.994,5.288,1.628,10.311c0.635,5.022,3.641,11.561,3.486,16.14    c-0.156,4.58,1.825,6.03-0.066,7.821c-1.891,1.787-4.46,2.171-3.161-1.897c0.829-2.599-1.528-4.524-3.104-2.816    c-1.576,1.706-6.086,2.82-9.948,2.205c-3.863-0.617-7.877-0.247-10.795,1.484c-2.917,1.731-5.042,4.479-7.924,0.525    c-3.25-4.456-1.897-3.094-6.511-7.242c-3.841-3.454-6.124-9.933-1.869-15.576C174.114,240.385,178.143,235.835,193.243,238.23z"/>
		<path fill="#CEEBFB" d="M193.251,238.284c7.295,1.153,12.229-1.938,11.797-5.375c-0.476-3.759-0.573-7.562-3.808-14.813    c-3.233-7.252-2.194-11.316-1.223-11.655c1.85-0.645,2.266,5.763,2.621,7.775c0.653,3.702,0.343,0.507,1.998,6.875    c1.658,6.366,3.323,10.819,3.48,14.015c0.161,3.195,0.993,5.288,1.625,10.302c0.633,5.015,3.641,11.537,3.484,16.107    c-0.156,4.573,1.832,6.033-0.059,7.822c-1.89,1.784-4.445,2.154-3.146-1.907c0.829-2.595-1.559-4.53-3.133-2.825    c-1.575,1.704-6.075,2.813-9.935,2.2c-3.859-0.614-7.871-0.244-10.787,1.484c-2.915,1.729-5.032,4.481-7.911,0.534    c-3.246-4.449-1.889-3.084-6.497-7.225c-3.837-3.448-6.116-9.901-1.865-15.537C174.146,240.425,178.165,235.896,193.251,238.284z"/>
		<path fill="#CDEBFB" d="M193.259,238.337c7.288,1.15,12.241-1.965,11.81-5.396c-0.474-3.753-0.563-7.55-3.793-14.789    c-3.229-7.239-2.224-11.355-1.253-11.693c1.849-0.644,2.266,5.826,2.62,7.835c0.652,3.696,0.354,0.503,2.006,6.86    c1.655,6.355,3.305,10.791,3.461,13.981c0.161,3.189,0.992,5.286,1.623,10.291c0.632,5.007,3.64,11.514,3.483,16.077    c-0.157,4.565,1.838,6.035-0.052,7.821c-1.888,1.782-4.43,2.14-3.132-1.916c0.829-2.59-1.589-4.537-3.162-2.835    s-6.065,2.809-9.921,2.197c-3.856-0.613-7.865-0.243-10.779,1.483c-2.913,1.727-5.023,4.482-7.898,0.542    c-3.242-4.44-1.879-3.073-6.483-7.206c-3.833-3.441-6.109-9.869-1.86-15.497C174.179,240.464,178.188,235.955,193.259,238.337z"/>
		<path fill="#CCEAFB" d="M193.268,238.391c7.28,1.146,12.252-1.992,11.822-5.418c-0.474-3.746-0.555-7.538-3.779-14.765    s-2.253-11.394-1.282-11.731c1.846-0.644,2.266,5.89,2.619,7.896c0.651,3.69,0.363,0.497,2.013,6.844    c1.652,6.346,3.287,10.764,3.442,13.948c0.159,3.186,0.991,5.285,1.62,10.282c0.63,4.998,3.64,11.489,3.482,16.046    c-0.158,4.558,1.843,6.037-0.045,7.821c-1.887,1.778-4.414,2.123-3.116-1.926c0.828-2.586-1.62-4.544-3.191-2.844    c-1.573,1.699-6.057,2.803-9.908,2.192c-3.853-0.611-7.86-0.241-10.771,1.483c-2.91,1.725-5.013,4.483-7.885,0.551    c-3.238-4.434-1.87-3.063-6.469-7.188c-3.828-3.436-6.101-9.838-1.855-15.457C174.211,240.503,178.21,236.016,193.268,238.391z"/>
		<path fill="#CBEAFB" d="M193.275,238.443c7.274,1.144,12.264-2.019,11.835-5.438c-0.472-3.74-0.544-7.526-3.766-14.74    c-3.22-7.214-2.281-11.434-1.312-11.771c1.845-0.643,2.266,5.953,2.619,7.956c0.649,3.684,0.373,0.492,2.021,6.828    c1.648,6.334,3.268,10.734,3.423,13.915c0.158,3.18,0.99,5.284,1.617,10.272c0.629,4.99,3.639,11.466,3.481,16.014    c-0.159,4.551,1.849,6.04-0.037,7.821c-1.886,1.776-4.4,2.108-3.103-1.935c0.828-2.582-1.65-4.55-3.221-2.853    c-1.571,1.696-6.047,2.797-9.895,2.188c-3.849-0.609-7.854-0.239-10.763,1.482c-2.908,1.723-5.003,4.485-7.872,0.559    c-3.235-4.425-1.861-3.053-6.455-7.17c-3.824-3.429-6.094-9.807-1.85-15.417C174.244,240.542,178.232,236.075,193.275,238.443z"/>
		<path fill="#CAEAFB" d="M193.283,238.496c7.268,1.141,12.276-2.045,11.848-5.459c-0.471-3.734-0.534-7.516-3.751-14.717    c-3.215-7.201-2.311-11.473-1.342-11.81c1.843-0.642,2.267,6.018,2.619,8.017c0.647,3.678,0.383,0.488,2.027,6.813    c1.646,6.323,3.25,10.706,3.403,13.881c0.158,3.175,0.989,5.283,1.615,10.264c0.627,4.981,3.639,11.441,3.479,15.982    c-0.159,4.543,1.855,6.043-0.029,7.821c-1.885,1.773-4.385,2.092-3.088-1.944c0.828-2.578-1.68-4.557-3.25-2.861    c-1.57,1.694-6.036,2.79-9.881,2.184c-3.845-0.607-7.849-0.237-10.754,1.482c-2.906,1.721-4.994,4.486-7.859,0.567    c-3.23-4.418-1.852-3.042-6.44-7.152c-3.82-3.423-6.086-9.775-1.845-15.378C174.276,240.582,178.254,236.136,193.283,238.496z"/>
		<path fill="#C9E9FA" d="M193.292,238.55c7.26,1.137,12.287-2.072,11.859-5.481c-0.469-3.728-0.523-7.503-3.736-14.692    c-3.211-7.188-2.34-11.511-1.372-11.848c1.842-0.641,2.267,6.081,2.618,8.077c0.647,3.672,0.394,0.483,2.035,6.798    c1.644,6.313,3.231,10.678,3.385,13.848c0.157,3.169,0.988,5.281,1.612,10.254c0.625,4.973,3.638,11.417,3.479,15.951    c-0.16,4.535,1.86,6.045-0.022,7.82c-1.883,1.771-4.369,2.077-3.073-1.953c0.828-2.574-1.71-4.563-3.278-2.87    c-1.569,1.691-6.027,2.784-9.868,2.18c-3.842-0.606-7.842-0.236-10.747,1.481c-2.903,1.718-4.984,4.487-7.845,0.575    c-3.227-4.409-1.843-3.031-6.427-7.134c-3.815-3.416-6.078-9.744-1.84-15.338C174.309,240.621,178.277,236.195,193.292,238.55z"/>
		<path fill="#C8E9FA" d="M193.3,238.603c7.253,1.134,12.299-2.1,11.873-5.502c-0.469-3.722-0.515-7.492-3.723-14.668    c-3.206-7.177-2.369-11.551-1.402-11.887c1.84-0.641,2.268,6.145,2.618,8.138c0.646,3.665,0.403,0.479,2.042,6.782    c1.641,6.302,3.213,10.649,3.366,13.813c0.156,3.164,0.987,5.281,1.609,10.245c0.624,4.965,3.638,11.394,3.478,15.92    c-0.161,4.528,1.866,6.047-0.016,7.82c-1.882,1.769-4.354,2.061-3.058-1.962c0.827-2.57-1.741-4.57-3.309-2.881    c-1.568,1.689-6.018,2.779-9.854,2.176c-3.838-0.604-7.837-0.233-10.738,1.481c-2.901,1.716-4.975,4.489-7.833,0.584    c-3.223-4.401-1.834-3.021-6.412-7.116c-3.812-3.41-6.071-9.713-1.836-15.298C174.341,240.66,178.299,236.256,193.3,238.603z"/>
		<path fill="#C7E8FA" d="M193.308,238.656c7.247,1.13,12.311-2.127,11.886-5.523c-0.467-3.716-0.505-7.48-3.708-14.645    c-3.202-7.164-2.398-11.589-1.433-11.925c1.839-0.64,2.268,6.208,2.618,8.197c0.645,3.659,0.413,0.475,2.049,6.768    c1.638,6.291,3.195,10.621,3.347,13.78c0.156,3.158,0.986,5.279,1.607,10.234c0.622,4.957,3.637,11.37,3.476,15.889    c-0.162,4.521,1.873,6.05-0.008,7.82c-1.88,1.767-4.339,2.046-3.043-1.971c0.827-2.566-1.771-4.577-3.338-2.89    c-1.566,1.687-6.008,2.772-9.841,2.172c-3.834-0.603-7.831-0.232-10.73,1.48c-2.898,1.714-4.965,4.49-7.819,0.592    c-3.219-4.394-1.825-3.011-6.398-7.098c-3.808-3.403-6.063-9.681-1.831-15.258C174.374,240.7,178.322,236.315,193.308,238.656z"/>
		<path fill="#C6E8FA" d="M193.316,238.709c7.239,1.127,12.321-2.153,11.897-5.545c-0.466-3.709-0.494-7.468-3.693-14.62    c-3.198-7.151-2.428-11.628-1.463-11.963c1.837-0.64,2.269,6.271,2.618,8.258c0.643,3.653,0.423,0.47,2.056,6.752    c1.636,6.28,3.177,10.593,3.328,13.746c0.154,3.153,0.985,5.279,1.604,10.226c0.621,4.948,3.637,11.346,3.475,15.857    c-0.163,4.514,1.878,6.052-0.001,7.82c-1.879,1.764-4.323,2.029-3.028-1.98c0.827-2.563-1.802-4.584-3.366-2.898    c-1.566,1.685-5.998,2.767-9.828,2.167c-3.83-0.601-7.825-0.23-10.722,1.48c-2.896,1.712-4.955,4.491-7.806,0.601    c-3.215-4.386-1.816-3.001-6.384-7.08c-3.803-3.397-6.056-9.649-1.826-15.219C174.406,240.739,178.344,236.376,193.316,238.709z"/>
		<path fill="#C5E8FA" d="M193.324,238.763c7.232,1.123,12.333-2.181,11.911-5.566c-0.465-3.703-0.485-7.457-3.68-14.596    c-3.193-7.14-2.457-11.667-1.492-12.003c1.835-0.638,2.268,6.337,2.616,8.319c0.642,3.646,0.434,0.464,2.063,6.736    c1.633,6.27,3.159,10.564,3.309,13.713c0.154,3.148,0.984,5.277,1.603,10.216c0.619,4.94,3.636,11.321,3.474,15.826    c-0.164,4.506,1.884,6.054,0.006,7.819c-1.877,1.761-4.309,2.015-3.014-1.989c0.827-2.559-1.832-4.591-3.396-2.907    c-1.565,1.682-5.988,2.761-9.814,2.163c-3.827-0.6-7.819-0.229-10.714,1.479c-2.894,1.709-4.946,4.492-7.793,0.608    c-3.211-4.378-1.807-2.99-6.37-7.062c-3.799-3.391-6.048-9.618-1.822-15.179C174.438,240.778,178.367,236.436,193.324,238.763z"/>
		<path fill="#C4E7FA" d="M193.332,238.815c7.226,1.12,12.346-2.207,11.924-5.588c-0.464-3.696-0.476-7.444-3.665-14.571    s-2.486-11.706-1.522-12.041c1.833-0.638,2.269,6.4,2.616,8.379c0.641,3.641,0.443,0.46,2.07,6.721    c1.63,6.26,3.141,10.537,3.29,13.68c0.153,3.144,0.983,5.276,1.6,10.207c0.618,4.932,3.636,11.298,3.473,15.794    c-0.165,4.499,1.89,6.057,0.013,7.82c-1.876,1.758-4.293,1.998-2.998-1.999c0.826-2.554-1.862-4.597-3.426-2.916    c-1.563,1.679-5.979,2.755-9.801,2.159c-3.823-0.598-7.813-0.228-10.706,1.479c-2.892,1.707-4.936,4.494-7.78,0.617    c-3.208-4.37-1.797-2.98-6.355-7.044c-3.795-3.385-6.041-9.587-1.817-15.139C174.471,240.817,178.389,236.496,193.332,238.815z"/>
		<path fill="#C3E7FA" d="M193.34,238.868c7.22,1.117,12.357-2.233,11.937-5.608c-0.462-3.69-0.465-7.434-3.65-14.548    c-3.185-7.114-2.516-11.745-1.553-12.079c1.832-0.637,2.269,6.464,2.616,8.439c0.639,3.635,0.453,0.455,2.078,6.705    c1.627,6.249,3.121,10.509,3.271,13.646c0.152,3.138,0.982,5.275,1.597,10.197c0.616,4.923,3.635,11.273,3.471,15.763    c-0.165,4.491,1.896,6.059,0.021,7.819c-1.874,1.756-4.277,1.983-2.983-2.008c0.826-2.55-1.893-4.604-3.454-2.926    c-1.563,1.677-5.969,2.749-9.788,2.155c-3.819-0.596-7.808-0.226-10.698,1.479c-2.89,1.705-4.926,4.495-7.767,0.625    c-3.204-4.362-1.789-2.97-6.342-7.026c-3.791-3.377-6.033-9.555-1.812-15.099C174.503,240.857,178.412,236.556,193.34,238.868z"/>
		<path fill="#C2E6FA" d="M193.349,238.922c7.212,1.113,12.368-2.262,11.948-5.63c-0.461-3.685-0.455-7.422-3.636-14.523    c-3.181-7.103-2.545-11.784-1.583-12.118c1.831-0.637,2.27,6.527,2.616,8.5c0.638,3.628,0.463,0.45,2.085,6.689    c1.624,6.238,3.104,10.48,3.251,13.613c0.152,3.132,0.981,5.273,1.595,10.188c0.614,4.915,3.635,11.249,3.47,15.731    c-0.166,4.483,1.901,6.061,0.027,7.819c-1.873,1.753-4.263,1.967-2.969-2.018c0.826-2.546-1.923-4.61-3.483-2.935    c-1.562,1.675-5.959,2.743-9.774,2.151c-3.815-0.595-7.802-0.224-10.69,1.478c-2.887,1.703-4.917,4.496-7.754,0.634    c-3.2-4.354-1.779-2.96-6.327-7.009c-3.787-3.371-6.026-9.522-1.807-15.059C174.536,240.896,178.434,236.616,193.349,238.922z"/>
		<path fill="#C1E6FA" d="M193.356,238.975c7.205,1.11,12.38-2.288,11.962-5.651c-0.46-3.678-0.445-7.41-3.623-14.499    c-3.176-7.089-2.573-11.823-1.612-12.156c1.829-0.636,2.27,6.591,2.616,8.56c0.636,3.622,0.473,0.446,2.092,6.675    c1.621,6.227,3.085,10.451,3.232,13.579c0.151,3.127,0.98,5.272,1.592,10.178c0.613,4.907,3.634,11.227,3.469,15.7    c-0.167,4.477,1.907,6.063,0.035,7.819c-1.872,1.751-4.248,1.952-2.955-2.026c0.826-2.542-1.953-4.616-3.513-2.943    c-1.561,1.672-5.949,2.737-9.761,2.146c-3.812-0.592-7.797-0.222-10.682,1.478c-2.885,1.7-4.907,4.498-7.741,0.642    c-3.196-4.347-1.771-2.949-6.313-6.99c-3.782-3.364-6.018-9.491-1.802-15.019C174.568,240.936,178.457,236.676,193.356,238.975z"/>
		<path fill="#C0E6FA" d="M193.364,239.028c7.198,1.106,12.392-2.315,11.975-5.673c-0.459-3.672-0.436-7.398-3.608-14.476    c-3.171-7.076-2.603-11.861-1.643-12.195c1.828-0.635,2.271,6.655,2.615,8.621c0.635,3.616,0.483,0.441,2.1,6.659    c1.618,6.216,3.067,10.423,3.214,13.546c0.149,3.121,0.979,5.271,1.589,10.168c0.611,4.898,3.634,11.202,3.467,15.669    c-0.167,4.469,1.914,6.065,0.043,7.819c-1.871,1.748-4.232,1.936-2.939-2.036c0.825-2.538-1.984-4.623-3.542-2.952    c-1.56,1.669-5.94,2.73-9.748,2.143c-3.809-0.591-7.79-0.221-10.673,1.477c-2.883,1.698-4.897,4.499-7.728,0.65    c-3.192-4.339-1.761-2.939-6.299-6.973c-3.778-3.358-6.01-9.46-1.797-14.979C174.601,240.976,178.479,236.736,193.364,239.028z"/>
		<path fill="#BFE5FA" d="M193.373,239.081c7.191,1.104,12.403-2.342,11.986-5.693c-0.457-3.666-0.426-7.387-3.594-14.451    c-3.167-7.064-2.632-11.901-1.673-12.234c1.826-0.634,2.271,6.719,2.615,8.682c0.634,3.609,0.493,0.437,2.106,6.644    c1.616,6.205,3.049,10.395,3.194,13.512c0.149,3.116,0.979,5.271,1.587,10.159c0.61,4.891,3.633,11.178,3.466,15.638    c-0.168,4.461,1.919,6.067,0.05,7.818c-1.869,1.746-4.218,1.921-2.925-2.045c0.825-2.533-2.014-4.63-3.571-2.962    c-1.559,1.667-5.93,2.726-9.734,2.139c-3.805-0.589-7.785-0.218-10.666,1.477c-2.88,1.696-4.888,4.5-7.715,0.658    c-3.188-4.33-1.752-2.929-6.285-6.954c-3.774-3.352-6.003-9.429-1.793-14.939C174.633,241.015,178.501,236.796,193.373,239.081z"/>
		<path fill="#BEE5FA" d="M193.381,239.134c7.185,1.101,12.415-2.368,12-5.715c-0.457-3.659-0.416-7.375-3.58-14.427    c-3.163-7.052-2.661-11.94-1.702-12.272c1.824-0.634,2.271,6.782,2.614,8.741c0.632,3.604,0.503,0.432,2.113,6.629    c1.613,6.194,3.031,10.366,3.176,13.479c0.148,3.111,0.978,5.269,1.584,10.149c0.608,4.882,3.633,11.154,3.465,15.605    c-0.169,4.454,1.925,6.071,0.057,7.819c-1.868,1.742-4.202,1.904-2.91-2.055c0.825-2.529-2.044-4.636-3.601-2.971    s-5.92,2.72-9.721,2.135c-3.801-0.587-7.778-0.217-10.657,1.476c-2.878,1.694-4.878,4.502-7.702,0.667    c-3.185-4.323-1.743-2.918-6.271-6.937c-3.77-3.346-5.995-9.397-1.788-14.899C174.666,241.054,178.523,236.856,193.381,239.134z"/>
		<path fill="#BDE4F9" d="M193.389,239.188c7.178,1.097,12.427-2.396,12.013-5.736c-0.455-3.653-0.406-7.363-3.565-14.403    c-3.158-7.039-2.69-11.979-1.732-12.311c1.822-0.633,2.271,6.846,2.614,8.802c0.631,3.598,0.513,0.427,2.12,6.613    c1.61,6.184,3.013,10.338,3.157,13.444c0.147,3.106,0.977,5.269,1.581,10.141c0.607,4.873,3.632,11.13,3.463,15.574    c-0.169,4.446,1.932,6.073,0.064,7.818c-1.866,1.74-4.187,1.89-2.896-2.063c0.825-2.525-2.074-4.643-3.629-2.979    c-1.557,1.662-5.911,2.713-9.708,2.13c-3.797-0.585-7.773-0.215-10.649,1.476c-2.875,1.691-4.868,4.503-7.688,0.675    c-3.18-4.314-1.734-2.907-6.257-6.918c-3.765-3.339-5.988-9.365-1.783-14.859C174.698,241.094,178.546,236.916,193.389,239.188z"/>
		<path fill="#BCE4F9" d="M193.397,239.24c7.17,1.094,12.438-2.423,12.024-5.758c-0.454-3.646-0.396-7.352-3.551-14.378    c-3.154-7.027-2.72-12.019-1.763-12.35c1.821-0.633,2.271,6.909,2.613,8.862c0.63,3.591,0.523,0.422,2.128,6.597    c1.607,6.174,2.994,10.311,3.138,13.412c0.147,3.101,0.976,5.267,1.579,10.131c0.605,4.865,3.632,11.105,3.462,15.543    c-0.17,4.438,1.937,6.075,0.071,7.818c-1.865,1.737-4.172,1.873-2.88-2.073c0.824-2.521-2.105-4.649-3.659-2.988    c-1.556,1.659-5.901,2.707-9.694,2.126c-3.794-0.584-7.767-0.213-10.641,1.475c-2.873,1.689-4.859,4.504-7.676,0.684    c-3.176-4.308-1.725-2.897-6.242-6.9c-3.761-3.333-5.98-9.334-1.779-14.819C174.731,241.133,178.568,236.977,193.397,239.24z"/>
		<path fill="#BBE4F9" d="M193.405,239.294c7.164,1.09,12.449-2.45,12.037-5.779c-0.452-3.641-0.386-7.34-3.536-14.354    c-3.149-7.015-2.749-12.057-1.793-12.389c1.819-0.631,2.271,6.974,2.613,8.923c0.628,3.585,0.533,0.418,2.136,6.582    c1.604,6.163,2.976,10.282,3.118,13.378c0.146,3.096,0.975,5.266,1.576,10.121c0.604,4.857,3.631,11.083,3.461,15.512    c-0.171,4.432,1.942,6.078,0.078,7.818c-1.863,1.735-4.156,1.858-2.865-2.082c0.824-2.518-2.136-4.655-3.688-2.997    c-1.554,1.656-5.891,2.701-9.681,2.121c-3.79-0.581-7.762-0.211-10.633,1.475c-2.871,1.688-4.85,4.506-7.663,0.691    c-3.173-4.299-1.716-2.887-6.229-6.882c-3.757-3.326-5.973-9.303-1.773-14.78C174.763,241.172,178.591,237.036,193.405,239.294z"/>
		<path fill="#BAE3F9" d="M193.413,239.347c7.157,1.087,12.461-2.477,12.051-5.8c-0.452-3.635-0.377-7.329-3.522-14.331    s-2.778-12.096-1.823-12.427c1.818-0.631,2.272,7.038,2.613,8.983c0.627,3.579,0.543,0.413,2.143,6.566    c1.602,6.152,2.957,10.254,3.099,13.345c0.146,3.09,0.974,5.265,1.574,10.111c0.603,4.849,3.631,11.059,3.46,15.48    c-0.172,4.424,1.948,6.08,0.085,7.818c-1.862,1.732-4.141,1.842-2.851-2.092c0.824-2.513-2.166-4.662-3.717-3.007    c-1.554,1.655-5.882,2.696-9.668,2.118c-3.786-0.58-7.756-0.21-10.625,1.474c-2.869,1.686-4.839,4.507-7.649,0.7    c-3.169-4.292-1.707-2.877-6.214-6.864c-3.752-3.32-5.965-9.271-1.769-14.74C174.796,241.211,178.613,237.097,193.413,239.347z"/>
		<path fill="#B9E3F9" d="M193.421,239.4c7.15,1.083,12.474-2.504,12.063-5.822c-0.45-3.628-0.366-7.316-3.508-14.306    c-3.142-6.99-2.808-12.135-1.854-12.466c1.816-0.63,2.272,7.102,2.613,9.044c0.625,3.572,0.553,0.408,2.149,6.551    c1.599,6.142,2.939,10.226,3.08,13.311c0.145,3.085,0.973,5.264,1.571,10.103c0.601,4.841,3.63,11.034,3.458,15.449    c-0.172,4.416,1.955,6.082,0.093,7.817c-1.86,1.73-4.126,1.827-2.836-2.101c0.824-2.509-2.195-4.669-3.746-3.016    c-1.552,1.652-5.872,2.689-9.654,2.113c-3.782-0.578-7.75-0.207-10.617,1.474c-2.866,1.683-4.83,4.508-7.636,0.708    c-3.165-4.283-1.698-2.866-6.2-6.846c-3.749-3.313-5.958-9.24-1.764-14.7C174.828,241.251,178.636,237.156,193.421,239.4z"/>
		<path fill="#B8E3F9" d="M193.43,239.453c7.143,1.08,12.484-2.531,12.075-5.843c-0.449-3.622-0.356-7.306-3.494-14.282    c-3.136-6.978-2.836-12.174-1.883-12.504c1.815-0.63,2.273,7.165,2.612,9.104c0.624,3.566,0.563,0.403,2.157,6.536    c1.596,6.13,2.921,10.196,3.062,13.277c0.144,3.079,0.972,5.262,1.568,10.093c0.6,4.832,3.63,11.011,3.457,15.418    c-0.173,4.409,1.96,6.084,0.101,7.817c-1.859,1.728-4.111,1.812-2.821-2.109c0.823-2.506-2.227-4.676-3.776-3.025    c-1.551,1.649-5.861,2.684-9.64,2.109c-3.779-0.576-7.745-0.206-10.61,1.474c-2.864,1.68-4.82,4.509-7.623,0.716    c-3.161-4.275-1.689-2.856-6.186-6.828c-3.745-3.308-5.95-9.209-1.759-14.661C174.86,241.29,178.658,237.217,193.43,239.453z"/>
		<path fill="#B7E2F9" d="M193.438,239.506c7.136,1.077,12.496-2.558,12.089-5.863c-0.448-3.616-0.348-7.294-3.48-14.259    c-3.132-6.964-2.865-12.213-1.912-12.542c1.813-0.629,2.272,7.229,2.611,9.164c0.623,3.561,0.573,0.398,2.164,6.521    c1.594,6.119,2.902,10.168,3.042,13.244c0.144,3.074,0.971,5.261,1.566,10.083c0.598,4.823,3.629,10.986,3.456,15.386    c-0.175,4.402,1.966,6.087,0.107,7.817c-1.858,1.725-4.096,1.796-2.807-2.118c0.823-2.502-2.257-4.683-3.805-3.034    c-1.55,1.646-5.853,2.678-9.627,2.105c-3.776-0.575-7.739-0.205-10.602,1.473c-2.862,1.678-4.811,4.51-7.61,0.724    c-3.157-4.268-1.68-2.846-6.172-6.81c-3.74-3.301-5.942-9.177-1.754-14.621C174.893,241.329,178.681,237.276,193.438,239.506z"/>
		<path fill="#B6E2F9" d="M193.445,239.56c7.13,1.073,12.508-2.585,12.102-5.886c-0.447-3.609-0.337-7.281-3.466-14.233    c-3.127-6.952-2.895-12.252-1.942-12.582c1.812-0.628,2.273,7.293,2.611,9.226c0.621,3.554,0.583,0.394,2.171,6.505    c1.591,6.108,2.885,10.14,3.023,13.21c0.143,3.069,0.97,5.26,1.563,10.074c0.597,4.815,3.629,10.962,3.454,15.354    c-0.175,4.395,1.973,6.089,0.115,7.816c-1.856,1.723-4.081,1.781-2.792-2.127c0.823-2.498-2.287-4.689-3.834-3.043    c-1.549,1.645-5.843,2.671-9.613,2.101c-3.772-0.573-7.733-0.202-10.593,1.473c-2.859,1.676-4.801,4.511-7.597,0.731    c-3.153-4.259-1.671-2.835-6.158-6.791c-3.736-3.295-5.935-9.146-1.75-14.581C174.925,241.369,178.703,237.337,193.445,239.56z"/>
		<path fill="#B5E1F9" d="M193.454,239.612c7.122,1.07,12.519-2.611,12.113-5.906c-0.445-3.604-0.327-7.271-3.451-14.21    c-3.123-6.939-2.924-12.291-1.973-12.62c1.811-0.627,2.273,7.356,2.611,9.285c0.62,3.548,0.593,0.39,2.178,6.49    c1.588,6.098,2.866,10.111,3.005,13.177c0.142,3.063,0.969,5.259,1.561,10.063c0.595,4.808,3.628,10.938,3.453,15.324    c-0.176,4.387,1.978,6.091,0.122,7.816c-1.855,1.72-4.065,1.765-2.776-2.137c0.822-2.493-2.318-4.696-3.864-3.053    c-1.547,1.643-5.833,2.666-9.6,2.098c-3.769-0.572-7.728-0.201-10.585,1.472c-2.857,1.673-4.791,4.512-7.584,0.74    c-3.149-4.252-1.662-2.825-6.144-6.773c-3.732-3.288-5.927-9.114-1.745-14.541C174.958,241.408,178.726,237.396,193.454,239.612z"/>
		<path fill="#B4E1F9" d="M193.462,239.666c7.115,1.066,12.53-2.639,12.126-5.929c-0.444-3.597-0.317-7.258-3.437-14.186    c-3.119-6.927-2.953-12.329-2.003-12.658c1.809-0.627,2.274,7.42,2.611,9.346c0.618,3.542,0.603,0.385,2.185,6.474    c1.586,6.088,2.849,10.084,2.985,13.144c0.141,3.059,0.968,5.258,1.559,10.055c0.593,4.799,3.628,10.915,3.452,15.292    c-0.177,4.38,1.983,6.094,0.129,7.816c-1.854,1.718-4.05,1.75-2.762-2.146c0.822-2.489-2.349-4.702-3.893-3.062    c-1.547,1.64-5.823,2.66-9.587,2.093c-3.765-0.569-7.723-0.199-10.577,1.472c-2.855,1.671-4.782,4.514-7.571,0.748    c-3.146-4.243-1.652-2.814-6.129-6.755c-3.728-3.282-5.919-9.083-1.74-14.502C174.99,241.447,178.748,237.457,193.462,239.666z"/>
		<path fill="#B3E1F9" d="M193.47,239.719c7.108,1.063,12.543-2.665,12.14-5.949c-0.443-3.591-0.308-7.247-3.423-14.161    c-3.114-6.915-2.982-12.369-2.033-12.697c1.808-0.626,2.274,7.483,2.61,9.406c0.617,3.535,0.613,0.38,2.193,6.458    c1.582,6.077,2.829,10.056,2.966,13.11c0.14,3.053,0.967,5.256,1.556,10.045c0.592,4.791,3.627,10.891,3.451,15.261    c-0.178,4.372,1.989,6.096,0.136,7.816c-1.853,1.715-4.035,1.733-2.747-2.155c0.822-2.485-2.378-4.709-3.922-3.07    c-1.546,1.637-5.813,2.654-9.573,2.089c-3.762-0.568-7.716-0.197-10.569,1.471c-2.853,1.669-4.772,4.515-7.558,0.757    c-3.142-4.236-1.644-2.805-6.115-6.737c-3.724-3.275-5.912-9.052-1.735-14.462C175.023,241.486,178.771,237.517,193.47,239.719z"/>
		<path fill="#B2E0F9" d="M193.479,239.771c7.102,1.061,12.554-2.692,12.151-5.97c-0.442-3.585-0.298-7.235-3.408-14.138    s-3.012-12.408-2.063-12.735c1.806-0.626,2.275,7.547,2.61,9.466c0.616,3.529,0.623,0.376,2.2,6.443    c1.579,6.066,2.812,10.027,2.947,13.076c0.139,3.048,0.966,5.256,1.553,10.036c0.59,4.782,3.627,10.866,3.449,15.229    c-0.178,4.364,1.995,6.099,0.144,7.815c-1.851,1.713-4.02,1.719-2.732-2.164c0.822-2.481-2.408-4.716-3.951-3.079    c-1.544,1.635-5.804,2.647-9.56,2.084c-3.758-0.566-7.711-0.195-10.561,1.471c-2.85,1.667-4.762,4.516-7.545,0.765    c-3.138-4.228-1.634-2.793-6.101-6.719c-3.719-3.27-5.905-9.02-1.73-14.422C175.055,241.526,178.792,237.577,193.479,239.771z"/>
		<path fill="#B1E0F8" d="M193.486,239.825c7.095,1.057,12.565-2.72,12.164-5.992c-0.44-3.578-0.287-7.224-3.394-14.113    s-3.041-12.446-2.093-12.774c1.804-0.624,2.274,7.611,2.609,9.527c0.614,3.523,0.633,0.37,2.207,6.428    c1.576,6.056,2.793,9.999,2.928,13.043c0.139,3.043,0.965,5.254,1.551,10.026c0.589,4.773,3.626,10.843,3.448,15.197    c-0.179,4.357,2.001,6.102,0.15,7.816c-1.85,1.709-4.004,1.702-2.717-2.174c0.821-2.478-2.439-4.722-3.98-3.088    c-1.544,1.632-5.795,2.642-9.547,2.08c-3.754-0.564-7.704-0.194-10.553,1.47c-2.848,1.664-4.753,4.518-7.532,0.773    c-3.134-4.221-1.625-2.783-6.087-6.701c-3.715-3.263-5.897-8.988-1.726-14.382C175.088,241.565,178.815,237.637,193.486,239.825z"/>
		<path fill="#B0DFF8" d="M193.494,239.878c7.088,1.054,12.577-2.746,12.177-6.013c-0.439-3.572-0.277-7.212-3.379-14.089    c-3.102-6.878-3.07-12.486-2.123-12.813c1.802-0.624,2.275,7.675,2.609,9.587c0.613,3.518,0.643,0.366,2.214,6.413    c1.574,6.045,2.774,9.971,2.909,13.009c0.138,3.038,0.964,5.253,1.548,10.018c0.587,4.766,3.626,10.818,3.447,15.166    c-0.18,4.35,2.007,6.104,0.157,7.815c-1.848,1.707-3.989,1.688-2.702-2.183c0.821-2.473-2.47-4.729-4.01-3.098    c-1.542,1.63-5.784,2.637-9.533,2.076c-3.75-0.563-7.699-0.191-10.545,1.47c-2.845,1.662-4.743,4.519-7.519,0.781    c-3.13-4.212-1.616-2.772-6.073-6.683c-3.711-3.257-5.89-8.957-1.721-14.343C175.12,241.604,178.837,237.697,193.494,239.878z"/>
		<path fill="#AFDFF8" d="M193.502,239.932c7.081,1.05,12.589-2.773,12.19-6.034c-0.438-3.566-0.269-7.2-3.365-14.065    c-3.098-6.865-3.1-12.524-2.153-12.852c1.801-0.623,2.275,7.739,2.608,9.647c0.612,3.511,0.653,0.361,2.222,6.397    c1.571,6.034,2.757,9.942,2.89,12.976c0.138,3.032,0.963,5.252,1.546,10.007c0.586,4.758,3.625,10.795,3.445,15.136    c-0.18,4.342,2.014,6.105,0.165,7.815c-1.847,1.704-3.974,1.671-2.688-2.192c0.821-2.469-2.5-4.735-4.039-3.106    c-1.541,1.627-5.774,2.63-9.52,2.072c-3.747-0.562-7.693-0.19-10.537,1.469c-2.843,1.66-4.733,4.52-7.506,0.79    c-3.126-4.204-1.607-2.763-6.059-6.665c-3.707-3.25-5.882-8.926-1.716-14.303C175.153,241.645,178.86,237.757,193.502,239.932z"/>
		<path fill="#AEDFF8" d="M193.511,239.984c7.074,1.047,12.601-2.8,12.202-6.056c-0.438-3.56-0.258-7.188-3.352-14.041    c-3.092-6.852-3.128-12.563-2.183-12.89c1.799-0.623,2.276,7.803,2.608,9.708c0.61,3.504,0.663,0.356,2.229,6.382    c1.568,6.022,2.738,9.913,2.871,12.941c0.136,3.027,0.962,5.251,1.543,9.998c0.584,4.749,3.625,10.771,3.444,15.104    c-0.181,4.335,2.019,6.108,0.173,7.815c-1.846,1.702-3.959,1.656-2.674-2.201c0.821-2.465-2.529-4.741-4.068-3.115    c-1.539,1.625-5.765,2.624-9.506,2.067c-3.743-0.559-7.688-0.188-10.528,1.469c-2.841,1.658-4.724,4.521-7.493,0.798    c-3.123-4.196-1.598-2.752-6.045-6.646c-3.702-3.244-5.874-8.895-1.711-14.263C175.185,241.684,178.882,237.817,193.511,239.984z"/>
		<path fill="#ADDEF8" d="M193.519,240.038c7.067,1.043,12.612-2.828,12.215-6.077c-0.436-3.554-0.248-7.177-3.337-14.017    c-3.088-6.84-3.157-12.603-2.213-12.929c1.798-0.622,2.276,7.866,2.608,9.768c0.609,3.499,0.673,0.353,2.235,6.367    c1.565,6.012,2.721,9.885,2.853,12.908c0.135,3.021,0.961,5.249,1.54,9.988c0.582,4.741,3.624,10.747,3.443,15.072    c-0.182,4.327,2.024,6.11,0.18,7.815c-1.845,1.699-3.944,1.64-2.658-2.211c0.82-2.461-2.561-4.748-4.098-3.124    c-1.539,1.622-5.756,2.618-9.493,2.063c-3.739-0.558-7.682-0.187-10.521,1.468c-2.838,1.655-4.714,4.522-7.479,0.807    c-3.119-4.188-1.589-2.742-6.03-6.629c-3.698-3.237-5.867-8.862-1.707-14.223C175.218,241.723,178.905,237.877,193.519,240.038z"/>
		<path fill="#ACDEF8" d="M193.526,240.091c7.061,1.04,12.624-2.854,12.229-6.099c-0.436-3.547-0.239-7.165-3.323-13.992    s-3.187-12.642-2.243-12.968c1.796-0.621,2.277,7.931,2.608,9.829c0.607,3.492,0.683,0.348,2.242,6.351    c1.563,6.002,2.702,9.857,2.833,12.875c0.135,3.017,0.96,5.249,1.538,9.979c0.581,4.732,3.624,10.723,3.442,15.041    c-0.183,4.319,2.03,6.112,0.187,7.814c-1.843,1.697-3.929,1.625-2.644-2.22c0.82-2.456-2.591-4.755-4.127-3.133    c-1.537,1.619-5.745,2.612-9.479,2.06c-3.735-0.557-7.676-0.186-10.512,1.467c-2.836,1.653-4.705,4.523-7.467,0.814    c-3.115-4.181-1.58-2.731-6.016-6.61c-3.694-3.231-5.859-8.831-1.702-14.184C175.25,241.762,178.927,237.938,193.526,240.091z"/>
		<path fill="#ABDDF8" d="M193.535,240.144c7.053,1.037,12.635-2.881,12.24-6.119c-0.434-3.541-0.229-7.153-3.309-13.969    c-3.079-6.814-3.216-12.681-2.273-13.006c1.795-0.62,2.277,7.994,2.608,9.89c0.606,3.485,0.692,0.343,2.25,6.335    c1.56,5.991,2.683,9.829,2.813,12.842c0.134,3.011,0.959,5.247,1.535,9.97c0.579,4.724,3.623,10.699,3.44,15.009    c-0.183,4.313,2.036,6.115,0.194,7.815c-1.842,1.694-3.913,1.608-2.629-2.229c0.82-2.452-2.621-4.761-4.156-3.143    c-1.536,1.617-5.735,2.606-9.466,2.056c-3.731-0.554-7.67-0.184-10.504,1.467c-2.834,1.651-4.695,4.525-7.453,0.823    c-3.111-4.173-1.571-2.722-6.002-6.594c-3.689-3.224-5.852-8.799-1.697-14.143C175.283,241.802,178.95,237.997,193.535,240.144z"/>
		<path fill="#AADDF8" d="M193.543,240.197c7.047,1.033,12.646-2.908,12.253-6.141c-0.433-3.535-0.219-7.143-3.294-13.944    c-3.075-6.803-3.245-12.72-2.303-13.045c1.793-0.62,2.277,8.058,2.606,9.949c0.605,3.48,0.703,0.338,2.258,6.32    c1.557,5.98,2.665,9.801,2.795,12.809c0.133,3.006,0.958,5.245,1.532,9.96c0.578,4.716,3.623,10.675,3.439,14.978    c-0.184,4.305,2.042,6.117,0.201,7.814c-1.84,1.691-3.898,1.594-2.614-2.238c0.82-2.448-2.651-4.768-4.185-3.151    c-1.535,1.615-5.727,2.601-9.453,2.052c-3.729-0.553-7.664-0.182-10.496,1.466c-2.832,1.649-4.686,4.526-7.44,0.831    c-3.107-4.165-1.562-2.711-5.988-6.575c-3.686-3.218-5.844-8.768-1.692-14.103C175.315,241.841,178.972,238.058,193.543,240.197z"/>
		<path fill="#A9DDF8" d="M193.551,240.25c7.04,1.03,12.658-2.935,12.266-6.162c-0.431-3.528-0.208-7.13-3.279-13.92    c-3.07-6.79-3.274-12.759-2.333-13.083c1.791-0.619,2.277,8.121,2.606,10.01c0.604,3.474,0.713,0.333,2.265,6.305    c1.555,5.97,2.646,9.772,2.775,12.774c0.133,3.001,0.957,5.245,1.53,9.95c0.576,4.708,3.622,10.651,3.438,14.947    c-0.185,4.297,2.048,6.119,0.208,7.814c-1.839,1.688-3.883,1.577-2.599-2.248c0.819-2.444-2.683-4.774-4.215-3.16    c-1.534,1.612-5.716,2.595-9.439,2.047c-3.725-0.551-7.659-0.18-10.488,1.466c-2.83,1.646-4.676,4.527-7.427,0.84    c-3.104-4.157-1.553-2.701-5.974-6.558c-3.681-3.211-5.836-8.736-1.688-14.063C175.348,241.88,178.995,238.117,193.551,240.25z"/>
		<path fill="#A8DCF8" d="M193.56,240.304c7.032,1.026,12.67-2.963,12.278-6.184c-0.431-3.522-0.199-7.119-3.266-13.896    s-3.304-12.797-2.363-13.121c1.79-0.619,2.278,8.185,2.606,10.07c0.603,3.467,0.723,0.328,2.271,6.289    c1.552,5.959,2.629,9.744,2.757,12.741c0.131,2.995,0.956,5.243,1.527,9.94c0.575,4.699,3.622,10.628,3.437,14.916    c-0.185,4.29,2.054,6.121,0.216,7.813c-1.837,1.687-3.867,1.563-2.584-2.256c0.819-2.441-2.712-4.781-4.244-3.17    c-1.533,1.609-5.706,2.588-9.426,2.043c-3.721-0.549-7.652-0.179-10.48,1.465c-2.827,1.645-4.666,4.529-7.414,0.848    c-3.099-4.148-1.543-2.69-5.96-6.539c-3.677-3.205-5.829-8.705-1.683-14.023C175.38,241.92,179.017,238.178,193.56,240.304z"/>
		<path fill="#A7DCF8" d="M193.567,240.356c7.025,1.023,12.682-2.989,12.291-6.204c-0.429-3.517-0.189-7.107-3.251-13.872    c-3.063-6.766-3.333-12.837-2.394-13.161c1.788-0.617,2.278,8.249,2.606,10.131c0.601,3.462,0.732,0.324,2.278,6.274    c1.549,5.948,2.61,9.716,2.738,12.707c0.13,2.99,0.955,5.243,1.524,9.932c0.573,4.691,3.621,10.604,3.436,14.884    c-0.187,4.283,2.06,6.124,0.223,7.814c-1.836,1.684-3.853,1.546-2.569-2.266c0.819-2.437-2.742-4.788-4.272-3.18    c-1.532,1.607-5.697,2.583-9.413,2.039c-3.717-0.547-7.647-0.176-10.472,1.465c-2.825,1.643-4.656,4.53-7.401,0.856    c-3.095-4.142-1.534-2.681-5.945-6.521c-3.673-3.198-5.822-8.673-1.678-13.983C175.413,241.959,179.04,238.237,193.567,240.356z"/>
		<path fill="#A6DBF8" d="M193.575,240.409c7.02,1.021,12.693-3.016,12.304-6.226c-0.428-3.51-0.179-7.095-3.236-13.848    s-3.362-12.876-2.424-13.199c1.787-0.617,2.279,8.313,2.605,10.191c0.601,3.455,0.743,0.319,2.286,6.259    c1.546,5.938,2.593,9.688,2.719,12.674c0.13,2.984,0.954,5.241,1.522,9.922c0.571,4.683,3.621,10.579,3.435,14.853    c-0.188,4.275,2.065,6.127,0.229,7.813c-1.834,1.682-3.837,1.531-2.555-2.274c0.819-2.433-2.772-4.795-4.302-3.188    c-1.531,1.605-5.688,2.577-9.399,2.035c-3.714-0.546-7.641-0.175-10.464,1.464c-2.822,1.641-4.646,4.531-7.388,0.864    c-3.092-4.133-1.525-2.669-5.932-6.503c-3.669-3.192-5.814-8.642-1.673-13.943C175.445,241.998,179.062,238.298,193.575,240.409z"/>
		<path fill="#A5DBF7" d="M193.583,240.463c7.013,1.017,12.705-3.043,12.317-6.247c-0.427-3.504-0.17-7.084-3.223-13.824    c-3.054-6.74-3.392-12.914-2.454-13.237c1.785-0.616,2.279,8.377,2.605,10.252c0.599,3.448,0.753,0.314,2.293,6.243    c1.544,5.927,2.574,9.659,2.7,12.64c0.129,2.979,0.953,5.24,1.52,9.913c0.57,4.674,3.62,10.555,3.433,14.821    c-0.188,4.268,2.072,6.129,0.237,7.813c-1.833,1.679-3.821,1.515-2.539-2.284c0.818-2.429-2.804-4.802-4.332-3.197    c-1.529,1.603-5.677,2.57-9.386,2.03c-3.71-0.544-7.636-0.173-10.456,1.464c-2.82,1.638-4.637,4.532-7.375,0.873    c-3.087-4.126-1.516-2.659-5.917-6.485c-3.665-3.186-5.806-8.61-1.668-13.904C175.478,242.038,179.084,238.357,193.583,240.463z"/>
		<path fill="#A4DBF7" d="M193.592,240.516c7.005,1.014,12.716-3.069,12.329-6.269c-0.426-3.497-0.16-7.071-3.209-13.799    s-3.42-12.954-2.483-13.276c1.784-0.616,2.28,8.44,2.605,10.312c0.597,3.443,0.763,0.311,2.3,6.228    c1.541,5.916,2.556,9.631,2.681,12.607c0.129,2.974,0.952,5.239,1.518,9.903c0.568,4.666,3.62,10.531,3.432,14.789    c-0.188,4.261,2.077,6.132,0.245,7.813c-1.832,1.677-3.808,1.5-2.525-2.293c0.818-2.425-2.834-4.808-4.36-3.206    c-1.529,1.6-5.668,2.564-9.373,2.026c-3.706-0.542-7.629-0.171-10.447,1.463c-2.818,1.636-4.627,4.534-7.362,0.881    c-3.083-4.117-1.507-2.648-5.903-6.467c-3.661-3.18-5.799-8.579-1.664-13.864C175.51,242.077,179.106,238.418,193.592,240.516z"/>
		<path fill="#A3DAF7" d="M193.6,240.569c6.998,1.01,12.728-3.097,12.342-6.29c-0.424-3.491-0.149-7.061-3.194-13.775    c-3.044-6.715-3.449-12.992-2.513-13.314c1.781-0.615,2.279,8.504,2.604,10.372c0.596,3.437,0.772,0.305,2.308,6.212    c1.537,5.905,2.537,9.603,2.661,12.573c0.128,2.97,0.951,5.238,1.515,9.894c0.567,4.658,3.619,10.508,3.431,14.759    c-0.189,4.253,2.083,6.134,0.252,7.813c-1.831,1.673-3.792,1.483-2.511-2.303c0.818-2.421-2.864-4.814-4.39-3.215    c-1.527,1.597-5.658,2.559-9.359,2.021c-3.702-0.54-7.624-0.169-10.439,1.463c-2.815,1.634-4.618,4.535-7.349,0.89    c-3.08-4.11-1.498-2.639-5.889-6.449c-3.656-3.173-5.791-8.548-1.659-13.824C175.542,242.116,179.129,238.478,193.6,240.569z"/>
		<path fill="#A2DAF7" d="M193.607,240.622c6.992,1.007,12.74-3.124,12.354-6.311c-0.423-3.485-0.14-7.049-3.18-13.752    c-3.04-6.702-3.479-13.031-2.543-13.354c1.78-0.614,2.28,8.568,2.604,10.434c0.595,3.43,0.783,0.3,2.315,6.196    c1.534,5.895,2.519,9.574,2.643,12.54c0.126,2.964,0.95,5.236,1.512,9.884c0.565,4.649,3.619,10.483,3.43,14.728    c-0.19,4.245,2.089,6.136,0.259,7.813c-1.829,1.671-3.776,1.469-2.496-2.312c0.818-2.416-2.894-4.821-4.419-3.225    c-1.526,1.596-5.648,2.554-9.346,2.019c-3.699-0.539-7.618-0.168-10.431,1.462c-2.813,1.632-4.608,4.536-7.336,0.897    c-3.076-4.102-1.489-2.628-5.875-6.431c-3.652-3.167-5.784-8.516-1.654-13.784C175.575,242.155,179.151,238.538,193.607,240.622z"/>
		<path fill="#A1D9F7" d="M193.616,240.676c6.984,1.003,12.751-3.151,12.367-6.333c-0.422-3.479-0.13-7.037-3.166-13.727    c-3.035-6.69-3.508-13.07-2.573-13.393c1.778-0.613,2.28,8.632,2.604,10.493c0.594,3.425,0.793,0.296,2.322,6.182    c1.532,5.884,2.501,9.546,2.623,12.506c0.126,2.959,0.949,5.236,1.51,9.875c0.564,4.642,3.618,10.46,3.428,14.695    c-0.19,4.238,2.095,6.139,0.267,7.813c-1.828,1.668-3.762,1.452-2.48-2.321c0.817-2.412-2.925-4.827-4.448-3.233    c-1.525,1.593-5.639,2.547-9.333,2.014c-3.695-0.536-7.612-0.165-10.423,1.462c-2.811,1.629-4.598,4.538-7.322,0.906    c-3.072-4.095-1.48-2.618-5.861-6.413c-3.648-3.16-5.776-8.484-1.649-13.745C175.607,242.195,179.174,238.598,193.616,240.676z"/>
		<path fill="#A0D9F7" d="M193.624,240.729c6.978,1,12.763-3.178,12.38-6.354c-0.421-3.473-0.12-7.025-3.151-13.703    s-3.537-13.109-2.604-13.431c1.777-0.613,2.281,8.695,2.604,10.554c0.592,3.418,0.803,0.291,2.329,6.166    c1.529,5.873,2.482,9.518,2.604,12.473c0.125,2.953,0.948,5.234,1.507,9.865c0.563,4.633,3.618,10.436,3.427,14.664    c-0.191,4.23,2.101,6.141,0.273,7.813c-1.826,1.666-3.746,1.438-2.466-2.33c0.817-2.408-2.955-4.834-4.478-3.242    c-1.524,1.59-5.629,2.541-9.319,2.01c-3.691-0.535-7.606-0.164-10.415,1.461c-2.809,1.627-4.589,4.539-7.31,0.914    c-3.068-4.086-1.471-2.607-5.847-6.395c-3.644-3.154-5.769-8.453-1.645-13.705C175.64,242.234,179.196,238.658,193.624,240.729z"/>
	</g>
	<path clip-path="url(#SVGID_2_)" fill="#B8CBE8" stroke="#B8CBE8" stroke-width="0.5" d="M192.937,235.627   c7.641,1.322,11.648-0.588,11.162-4.309c-0.531-4.072-1.065-8.145-4.52-16.021c-3.453-7.875-0.734-9.367,0.278-9.724   c1.93-0.679,2.248,2.574,2.64,4.755c0.721,4.012-0.156,0.74,1.64,7.645c1.796,6.902,4.234,12.234,4.433,15.691   c0.199,3.459,1.04,5.346,1.751,10.777c0.711,5.43,3.666,12.734,3.548,17.678c-0.117,4.943,1.539,5.916-0.42,7.832   c-1.959,1.91-5.202,2.932-3.886-1.449c0.841-2.797-0.04-4.201-1.671-2.371c-1.63,1.828-6.562,3.111-10.604,2.408   c-4.043-0.703-8.16-0.334-11.189,1.508c-3.031,1.84-5.518,4.42-8.566,0.121c-3.439-4.844-2.343-3.602-7.204-8.127   c-4.046-3.768-6.495-11.473-2.104-17.527S177.134,232.893,192.937,235.627z"/>
	<path clip-path="url(#SVGID_2_)" fill="#B8CBE8" stroke="#B8CBE8" stroke-width="0.5" d="M193.544,290.568   c0.856,3.297,2.721,3.271,4.573,1.387c1.85-1.885,7.88-2.988,11.004-3.564c3.125-0.58,4.326-1.363,5.811-1.047   c1.487,0.316,1.745-1.389,1.401-2.705c-0.342-1.314-1.075-3.229-3.426-2.381c-2.354,0.846-12.167,2.697-14.081,3.43   c-1.918,0.73-2.92,0.699-4.615,1.375C192.516,287.736,193.374,289.912,193.544,290.568z"/>
	<path clip-path="url(#SVGID_2_)" fill="#B8CBE8" stroke="#B8CBE8" stroke-width="0.5" d="M197.979,295.031   c5.493-0.023,12.227-2.48,15.017-3.438c2.791-0.961,4.442-0.924,5.002,0.336c0.56,1.258,0.692,3.561,0.147,4.172   c-0.542,0.609-3.117,0.85-4.888,1.445c-2.257,0.766-9.192,1.986-11.384,2.557c-2.191,0.568-3.983,1.324-4.647,0.563   c-0.666-0.76-1.241-1.605-1.362-2.977C195.741,296.316,196.255,295.037,197.979,295.031z"/>
	<path clip-path="url(#SVGID_2_)" fill="#B8CBE8" stroke="#B8CBE8" stroke-width="0.5" d="M201.031,304.064   c5.492-0.025,12.227-2.479,15.019-3.439c2.791-0.963,4.44-0.922,4.999,0.336c0.56,1.26,0.694,3.564,0.15,4.174   c-0.542,0.609-3.12,0.85-4.889,1.445c-2.259,0.766-9.192,1.984-11.384,2.555c-2.193,0.57-3.984,1.328-4.649,0.566   c-0.666-0.764-1.238-1.609-1.361-2.98C198.791,305.35,199.307,304.072,201.031,304.064z"/>
	<path clip-path="url(#SVGID_2_)" fill="#B8CBE8" stroke="#B8CBE8" stroke-width="0.5" d="M203.837,313.514   c5.479-0.024,12.198-2.474,14.98-3.434c2.785-0.959,4.433-0.919,4.994,0.341c0.557,1.26,0.69,3.563,0.15,4.172   c-0.544,0.608-3.114,0.85-4.879,1.444c-2.253,0.762-9.172,1.979-11.359,2.548c-2.187,0.569-3.975,1.326-4.639,0.562   c-0.665-0.762-1.238-1.605-1.359-2.979C201.603,314.795,202.112,313.519,203.837,313.514z"/>
</g>
<g>
	<g>
		<path fill="none" d="M43.4,16.899c-0.356,5.454-0.58,14.291-0.98,17.488c-0.452,3.619,0.452,8.822,2.49,11.538    c2.035,2.715,3.167,4.751,3.393,7.465c0.226,2.715-1.132,7.692-3.393,11.538c-2.263,3.847-7.691,13.8-10.181,17.422    c-2.489,3.62-19.23,30.771-20.813,35.297c-1.586,4.527-1.81,4.979-2.262,6.564c-0.454,1.582-0.228,5.201,1.131,6.559    c1.356,1.356,4.072,3.848,5.656,4.3c0.692,0.197,1.338,0.264,1.963,0.183c0.805-0.104,1.57-0.452,2.334-1.088    c1.019-0.849,2.291-1.825,2.481-3.214"/>
		<path fill="none" d="M41.819,133.964c-0.124,0.379-0.192,0.818-0.192,1.329c0,3.621,0.227,13.349-2.939,19.683    c-3.169,6.334-2.944,6.108-3.622,8.824c-0.507,2.037-0.381,4.455,0.859,6.296c0.413,0.618,0.951,1.169,1.63,1.62    c2.035,1.359,6.235,2.59,9.448,2.452"/>
		<path fill="none" d="M46.712,174.762c-1.209,0.305-1.576,0.734-2.707,1.706c-1.586,1.357-4.753,3.623-6.111,6.335    c-1.356,2.719-2.489,4.524,0,8.598c2.492,4.07,4.75,6.562,6.562,10.633c1.81,4.07,2.487,7.241,0.679,13.35    c-1.812,6.109-2.941,13.574,0.225,18.098c3.168,4.527,10.409,12.217,13.124,14.93c2.714,2.717,8.303,5.787,13.573,5.432    c3.394-0.229,6.743,1.066,13.574,0.227c14.706-1.813,45.48-4.754,56.109-3.848c7.912,0.68,11.763,0.906,13.797,7.014    c2.032,6.109,1.582,5.652,2.942,9.275c1.357,3.617,5.882,11.996,7.915,16.063c2.037,4.076,3.392,6.455,3.848,8.492L176,309.111"/>
	</g>
</g>
<text transform="matrix(1 0 0 1 15 280.3447)"><tspan x="0" y="0" fill="#333333" font-family="Liberation Sans, Helvetica, Arial, sans-serif" font-size="14.1">Adam's apple</tspan><tspan x="0" y="16.92" fill="#333333" font-family="Liberation Sans, Helvetica, Arial, sans-serif" font-size="14.1">(thyroid cartilage)</tspan></text>
<text transform="matrix(1 0 0 1 276.7295 210.8447)"><tspan x="0" y="0" fill="#333333" font-family="Liberation Sans, Helvetica, Arial, sans-serif" font-size="14.1">Area above</tspan><tspan x="0" y="15" fill="#333333" font-family="Liberation Sans, Helvetica, Arial, sans-serif" font-size="14.1">vocal chords</tspan></text>
<text transform="matrix(1 0 0 1 276.7295 252.3447)"><tspan x="0" y="0" fill="#333333" font-family="Liberation Sans, Helvetica, Arial, sans-serif" font-size="14.1">Area containing</tspan><tspan x="0" y="15" fill="#333333" font-family="Liberation Sans, Helvetica, Arial, sans-serif" font-size="14.1">vocal chords</tspan></text>
<text transform="matrix(1 0 0 1 276.7295 293.8447)"><tspan x="0" y="0" fill="#333333" font-family="Liberation Sans, Helvetica, Arial, sans-serif" font-size="14.1">Area beneath</tspan><tspan x="0" y="15" fill="#333333" font-family="Liberation Sans, Helvetica, Arial, sans-serif" font-size="14.1">vocal chords</tspan></text>
<polyline fill="none" stroke="#1D1D1B" points="102,277 148,277 148.385,276.746 167.304,257.827 "/>
<line fill="none" stroke="#333333" x1="196" y1="223" x2="271" y2="223"/>
<line fill="none" stroke="#333333" x1="203" y1="248" x2="271" y2="248"/>
<line fill="none" stroke="#333333" x1="206.5" y1="277.5" x2="206.5" y2="292.5"/>
<line fill="none" stroke="#333333" x1="206" y1="293" x2="271" y2="293"/>
</svg>