<?xml version="1.0" encoding="UTF-8"?>
<!-- Generator: Adobe Illustrator 15.1.0, SVG Export Plug-In . SVG Version: 6.00 Build 0)  -->
<!DOCTYPE svg PUBLIC "-//W3C//DTD SVG 1.0//EN" "http://www.w3.org/TR/2001/REC-SVG-20010904/DTD/svg10.dtd">
<svg version="1.0" xmlns="http://www.w3.org/2000/svg" xmlns:xlink="http://www.w3.org/1999/xlink" x="0px" y="0px" width="350px" height="420px" viewBox="0 0 350 420" enable-background="new 0 0 350 420" xml:space="preserve">
<g id="Layer_1">
	<path fill="#FFFFFF" stroke="#000000" stroke-width="0.1524" d="M211.938,180.583L211.938,180.583L211.938,180.583L211.938,180.583   z"/>
	<path display="none" stroke="#000000" stroke-width="2.4327" d="M175.838,201.306c0,2.559,0.268,10.974-0.08,13.75   c-0.239,1.918-0.16,2.878-1.438,4.317c-1.278,1.119-1.439,1.759-1.119,3.358c0.159-0.959,1.279-1.438,2.239-1.759   c0.158,2.078,0,3.836-0.641,5.915c-0.799,2.398-0.639,4.477-0.479,6.875c0.16,3.838,0.479,7.996,0.319,11.833   c-0.159,1.439-0.159,1.439-1.279,0.959c-0.799-0.16-1.438-0.639-2.078-1.119c-0.32-0.319-0.32-0.64-0.8-0.959   c-0.479-0.159-0.799-0.159-1.278-0.32c-0.8-0.479-0.8-1.278-1.599-1.758c-0.8-0.48-1.759-0.16-2.398-1.12   c-0.479-0.64-0.319-1.278-0.96-2.078c-0.639-0.8-1.599-1.118-2.077-2.078c-0.479-0.801-0.32-1.438-1.119-2.08   c-1.6-1.279-3.358-0.799-3.038-3.196c0.32-2.079,1.598-3.199,2.398-4.797c-2.398-0.48-5.117,3.037-5.437,5.276   c0,0-3.598,0-5.596-6.396c-0.833-2.666-1.04-7.193-1.04-8.953l2.318-8.313c1.12-2.719,3.213-3.67,6.076-3.998   c6.955-0.799,8.634,6.076,8.955,7.355c0.159,1.278,0.318,2.557,0.318,3.837c0.16,1.599-0.159,3.677,0.32,5.116   c0.64,1.599,0.64,0.8,1.279,0c0.64-0.64,1.279-0.959,2.237-1.118c-0.319-0.96-1.278-0.801-1.598-1.44   c-0.48-0.639-0.56-3.997-0.56-4.796c0-1.599-0.4-11.032-0.4-12.311"/>
	<path display="none" stroke="#000000" stroke-width="2.4327" d="M178.396,201.065c0,2.559,0.159,11.033,0.398,13.83   c0.151,1.76,0.433,3.038,1.712,4.477c1.278,1.119,1.438,1.759,1.118,3.358c-0.16-0.959-1.279-1.438-2.238-1.759   c-0.159,2.078,0,3.836,0.64,5.915c0.799,2.398,0.641,4.477,0.48,6.875c-0.161,3.838-0.48,7.996-0.32,11.833   c0.159,1.439,0.159,1.439,1.278,0.959c0.802-0.16,1.438-0.639,2.08-1.119c0.318-0.319,0.318-0.64,0.799-0.959   c0.479-0.159,0.8-0.159,1.279-0.32c0.799-0.479,0.799-1.278,1.6-1.758c0.799-0.48,1.759-0.16,2.396-1.12   c0.481-0.64,0.32-1.278,0.96-2.078c0.642-0.8,1.6-1.118,2.08-2.078c0.479-0.801,0.318-1.438,1.118-2.08   c1.599-1.279,3.356-0.799,3.038-3.196c-0.319-2.079-1.6-3.199-2.398-4.797c2.398-0.48,5.115,3.037,5.437,5.276   c0,0,3.598,0,5.596-6.396c0.833-2.666,1.486-7.913,1.04-9.913l-2.318-7.354c-1.121-2.719-3.213-3.67-6.077-3.998   c-6.956-0.799-8.634,6.076-8.952,7.355c-0.16,1.278-0.321,2.557-0.321,3.837c-0.159,1.599,0.161,3.677-0.319,5.116   c-0.64,1.599-0.64,0.8-1.278,0c-0.64-0.64-1.279-0.959-2.239-1.118c0.32-0.96,1.28-0.801,1.6-1.44   c0.479-0.639,0.279-1.759,0.279-2.558c0-1.6-0.078-13.911,0-15.109"/>
	<path display="none" fill="none" stroke="#000000" stroke-width="13.3801" stroke-linecap="round" stroke-linejoin="round" d="   M171.601,204.504c0.161-12.151-3.196-23.185-19.185-23.823c-15.988-0.64-27.181-3.836-28.14-17.587   c-0.959-13.75,8.633-20.785,17.907-21.104c9.273-0.32,15.988-0.32,15.988-0.32"/>
	<path display="none" fill="none" stroke="#000000" stroke-width="13.3801" stroke-linecap="round" stroke-linejoin="round" d="   M148.578,212.658h-38.053c0,0-20.785,1.28-21.424-17.907c-0.687-20.613,0-81.541,0-81.541s-1.599-19.825,24.942-20.145   c26.541-0.32,41.89,0,41.89,0"/>
	<path display="none" fill="none" stroke="#000000" stroke-width="13.3801" stroke-linecap="round" stroke-linejoin="round" d="   M192.387,376.697h49.259c0,0,20.785,1.28,21.425-17.907c0.729-21.879,0.68-21.892,0-160.203c0,0,0.625-21.744-24.942-21.424"/>
	<path display="none" fill="none" stroke="#000000" stroke-width="13.3801" stroke-linecap="round" stroke-linejoin="round" d="   M155.613,376.378h-45.088c0,0-19.186,1.28-21.424-17.906c-2.39-20.486,0-125.669,0-125.669s-1.599-19.825,24.942-20.145   c26.541-0.32,41.89,0,41.89,0"/>
	<path display="none" fill="none" stroke="#000000" stroke-width="13.3801" stroke-linecap="round" stroke-linejoin="round" d="   M88.462,266.379c0.32,12.151,3.837,20.145,22.384,19.187"/>
	<g display="none">
		<path display="inline" fill="none" stroke="#000000" stroke-width="7.2983" d="M193.983,90.347    c-2.637-10.072-14.839-10.192-18.704-10.192c-3.868,0-16.07,0.12-18.707,10.192"/>
		<path display="inline" fill="none" stroke="#000000" stroke-width="7.2983" d="M192.425,91.846    c-5.635-2.938-14.747-3.118-17.146-3.118c-2.399,0-11.272,0.42-17.148,3.118"/>
		<path display="inline" fill="none" stroke="#000000" stroke-width="7.2983" d="M193.983,95.743    c-2.637,10.073-14.839,10.193-18.704,10.193c-3.868,0-16.07-0.12-18.707-10.193"/>
		<path display="inline" fill="none" stroke="#000000" stroke-width="7.2983" d="M192.425,94.064    c-5.156,2.997-14.747,3.117-17.146,3.117c-2.399,0-11.033-0.12-17.148-3.117"/>
	</g>
	<g display="none">
		<path display="inline" fill="none" stroke="#000000" stroke-width="7.2983" d="M193.983,138.951    c-2.637-10.073-14.839-10.192-18.704-10.192c-3.868,0-16.07,0.12-18.707,10.192"/>
		<path display="inline" fill="none" stroke="#000000" stroke-width="7.2983" d="M192.425,140.45    c-5.635-2.938-14.747-3.118-17.146-3.118c-2.399,0-11.272,0.42-17.148,3.118"/>
		<path display="inline" fill="none" stroke="#000000" stroke-width="7.2983" d="M193.983,144.347    c-2.637,10.073-14.839,10.193-18.704,10.193c-3.868,0-16.07-0.12-18.707-10.193"/>
		<path display="inline" fill="none" stroke="#000000" stroke-width="7.2983" d="M192.425,142.668    c-5.156,2.998-14.747,3.118-17.146,3.118c-2.399,0-11.033-0.12-17.148-3.118"/>
	</g>
	<g display="none">
		<path display="inline" fill="none" stroke="#000000" stroke-width="7.2983" d="M146.98,282.526    c-2.639-10.072-14.84-10.19-18.707-10.19c-3.867,0-16.069,0.119-18.707,10.19"/>
		<path display="inline" fill="none" stroke="#000000" stroke-width="7.2983" d="M145.42,284.027    c-5.636-2.94-14.75-3.119-17.147-3.119c-2.399,0-11.272,0.42-17.149,3.119"/>
		<path display="inline" fill="none" stroke="#000000" stroke-width="7.2983" d="M146.98,287.922    c-2.639,10.073-14.84,10.193-18.707,10.193c-3.867,0-16.069-0.12-18.707-10.193"/>
		<path display="inline" fill="none" stroke="#000000" stroke-width="7.2983" d="M145.42,286.242    c-5.156,2.999-14.75,3.119-17.147,3.119c-2.399,0-11.033-0.12-17.149-3.119"/>
	</g>
	<g display="none">
		<path display="inline" fill="none" stroke="#000000" stroke-width="7.2983" d="M230.439,320.579    c-2.639-10.072-14.84-10.191-18.708-10.191c-3.866,0-16.068,0.12-18.705,10.191"/>
		<path display="inline" fill="none" stroke="#000000" stroke-width="7.2983" d="M228.88,322.079    c-5.637-2.938-14.749-3.118-17.148-3.118c-2.398,0-11.272,0.419-17.147,3.118"/>
		<path display="inline" fill="none" stroke="#000000" stroke-width="7.2983" d="M230.439,325.975    c-2.639,10.074-14.84,10.192-18.708,10.192c-3.866,0-16.068-0.118-18.705-10.192"/>
		<path display="inline" fill="none" stroke="#000000" stroke-width="7.2983" d="M228.88,324.297    c-5.156,2.998-14.749,3.118-17.148,3.118c-2.398,0-11.031-0.12-17.147-3.118"/>
	</g>
	<g display="none">
		<path display="inline" fill="none" stroke="#000000" stroke-width="7.2983" d="M192.387,373.662    c-2.638-10.073-14.841-10.195-18.707-10.195c-3.867,0-16.068,0.122-18.707,10.195"/>
		<path display="inline" fill="none" stroke="#000000" stroke-width="7.2983" d="M190.828,375.16    c-5.636-2.939-14.75-3.119-17.148-3.119s-11.271,0.42-17.148,3.119"/>
		<path display="inline" fill="none" stroke="#000000" stroke-width="7.2983" d="M192.387,379.056    c-2.638,10.073-14.841,10.192-18.707,10.192c-3.867,0-16.068-0.12-18.707-10.192"/>
		<path display="inline" fill="none" stroke="#000000" stroke-width="7.2983" d="M190.828,377.377    c-5.157,2.999-14.75,3.119-17.148,3.119s-11.033-0.121-17.148-3.119"/>
	</g>
	<path display="none" fill="none" stroke="#000000" stroke-width="13.3801" stroke-linecap="round" stroke-linejoin="round" d="   M195.425,141.989c0,0,19.504-0.188,25.421,0c10.072,0.319,16.786,0.959,16.628,14.229c0,0,0,30.537-0.32,37.892   c-0.263,6.064-0.32,17.806-18.702,18.327h-13.914"/>
	<path display="none" fill="none" stroke="#000000" stroke-width="13.3801" stroke-linecap="round" stroke-linejoin="round" d="   M182.634,204.343c0,0-2.111-26.544,21.585-26.861c23.98-0.319,41.889-0.959,41.889-0.959s16.476-0.159,16.956-13.43   s0-49.884,0-49.884s1.607-19.825-24.936-20.145c-26.54-0.32-41.888,0-41.888,0"/>
	<path display="none" fill="none" stroke="#000000" stroke-width="13.3801" stroke-linecap="round" stroke-linejoin="round" d="   M146.66,284.607h96.571c0,0,18.864,0.319,19.822-15.35"/>
	<path display="none" fill="none" stroke="#000000" stroke-width="13.3801" stroke-linecap="round" stroke-linejoin="round" d="   M230.439,322.976c0,0,8.629,0,12.792,0c6.073,0,19.983,0.48,20.144-15.667"/>
	<path display="none" fill="none" stroke="#000000" stroke-width="13.3801" stroke-linecap="round" stroke-linejoin="round" d="   M158.491,284.607c6.396,1.277,13.751,5.434,15.03,19.503c1.278,14.072,7.674,18.549,18.866,18.868"/>
	<path fill="#F7E6DF" stroke="#E6AC99" d="M177.629,165.704c5.436-0.48,10.074,2.08,10.074,2.08   c1.278-2.239,5.594-4.957,12.469-3.198c8.543,2.186,10.714,13.75,8.155,22.543c-3.154,10.842-9.274,11.191-9.274,11.191   c-0.319,4.957-14.182,17.75-21.616,18.068c-7.434,0.318-21.344-13.111-21.664-18.068c0,0-6.119-0.35-9.273-11.191   c-2.558-8.793-0.389-20.357,8.154-22.543c6.875-1.759,11.192,0.959,12.471,3.198c0,0,4.636-2.56,10.073-2.08H177.629z"/>
	<path fill="#FFFFFF" stroke="#000000" stroke-width="0.1524" d="M211.938,180.583L211.938,180.583L211.938,180.583L211.938,180.583   z"/>
	<path fill="#7DA7D9" d="M176.398,165.144c0,2.559-0.293,9.136-0.641,11.912c-0.239,1.918-0.16,2.878-1.438,4.317   c-1.278,1.119-1.439,1.759-1.119,3.358c0.159-0.959,1.279-1.438,2.239-1.759c0.158,2.078,0,3.836-0.641,5.915   c-0.799,2.398-0.639,4.477-0.479,6.875c0.16,3.838,0.479,7.996,0.319,11.833c-0.159,1.439-0.159,1.439-1.279,0.959   c-0.799-0.16-1.438-0.639-2.078-1.119c-0.32-0.319-0.32-0.64-0.8-0.959c-0.479-0.159-0.799-0.159-1.278-0.32   c-0.8-0.479-0.8-1.278-1.599-1.758c-0.8-0.48-1.759-0.16-2.398-1.12c-0.479-0.64-0.319-1.278-0.96-2.078   c-0.639-0.8-1.599-1.118-2.077-2.078c-0.479-0.801-0.32-1.438-1.119-2.08c-1.6-1.279-3.358-0.799-3.038-3.196   c0.32-2.079,1.598-3.199,2.398-4.797c-2.398-0.48-5.117,3.037-5.437,5.276c0,0-3.598,0-5.596-6.396   c-0.833-2.666-1.04-7.193-1.04-8.953l2.318-8.313c1.12-2.719,3.213-3.67,6.076-3.998c6.955-0.799,8.296,5.704,8.713,6.956   c0.4,1.198,0.56,2.957,0.56,4.236c0.16,1.599-0.159,3.677,0.32,5.116c0.64,1.599,0.64,0.8,1.279,0   c0.64-0.64,1.279-0.959,2.237-1.118c-0.319-0.96-1.278-0.801-1.598-1.44c-0.48-0.639-0.791-4.082-0.88-4.876   c-0.24-2.159-0.399-7.035-0.32-9.033"/>
	<path fill="#F69679" d="M177.757,164.984c0,2.558,0.799,9.114,1.038,11.911c0.151,1.76,0.433,3.038,1.712,4.477   c1.278,1.119,1.438,1.759,1.118,3.358c-0.16-0.959-1.279-1.438-2.238-1.759c-0.159,2.078,0,3.836,0.64,5.915   c0.799,2.398,0.641,4.477,0.48,6.875c-0.161,3.838-0.48,7.996-0.32,11.833c0.159,1.439,0.159,1.439,1.278,0.959   c0.802-0.16,1.438-0.639,2.08-1.119c0.318-0.319,0.318-0.64,0.799-0.959c0.479-0.159,0.8-0.159,1.279-0.32   c0.799-0.479,0.799-1.278,1.6-1.758c0.799-0.48,1.759-0.16,2.396-1.12c0.481-0.64,0.32-1.278,0.96-2.078   c0.642-0.8,1.6-1.118,2.08-2.078c0.479-0.801,0.318-1.438,1.118-2.08c1.599-1.279,3.356-0.799,3.038-3.196   c-0.319-2.079-1.6-3.199-2.398-4.797c2.398-0.48,5.115,3.037,5.437,5.276c0,0,3.598,0,5.596-6.396   c0.833-2.666,1.486-7.913,1.04-9.913l-2.318-7.354c-1.121-2.719-3.213-3.67-6.077-3.998c-6.956-0.799-8.634,6.076-8.952,7.355   c-0.16,1.278-0.321,2.557-0.321,3.837c-0.159,1.599,0.161,3.677-0.319,5.116c-0.64,1.599-0.64,0.8-1.278,0   c-0.64-0.64-1.279-0.959-2.239-1.118c0.32-0.96,1.28-0.801,1.6-1.44c0.479-0.639,0.279-1.759,0.279-2.558   c0-1.6,0.727-10.553,0.486-12.152"/>
	<path fill="none" stroke="#7DA7D9" stroke-width="10.9473" stroke-linecap="round" stroke-linejoin="round" d="M171.601,166.504   c0.161-12.151-3.196-23.185-19.185-23.823c-15.988-0.64-27.181-3.836-28.14-17.587c-0.959-13.75,8.633-20.785,17.907-21.104   c9.273-0.32,15.988-0.32,15.988-0.32"/>
	<path fill="none" stroke="#7DA7D9" stroke-width="10.9473" stroke-linecap="round" stroke-linejoin="round" d="M148.578,174.658   h-38.053c0,0-20.785,1.28-21.424-17.907c-0.687-20.613,0-81.541,0-81.541s-1.599-19.825,24.942-20.145c26.541-0.32,41.89,0,41.89,0   "/>
	<path fill="none" stroke="#F69679" stroke-width="10.9473" stroke-linecap="round" stroke-linejoin="round" d="M192.387,338.697   h49.259c0,0,20.785,1.28,21.425-17.907c0.729-21.879,0.68-21.892,0-160.203c0,0,0.625-21.744-24.942-21.424"/>
	<path fill="none" stroke="#7DA7D9" stroke-width="10.9473" stroke-linecap="round" stroke-linejoin="round" d="M155.613,338.378   h-45.088c0,0-19.186,1.28-21.424-17.906c-2.39-20.486,0-125.669,0-125.669s-1.599-19.825,24.942-20.145   c26.541-0.32,41.89,0,41.89,0"/>
	<path fill="none" stroke="#7DA7D9" stroke-width="10.9473" stroke-linecap="round" stroke-linejoin="round" d="M88.462,228.379   c0.32,12.151,3.837,20.145,22.384,19.187"/>
	<g>
		<g>
			<linearGradient id="SVGID_1_" gradientUnits="userSpaceOnUse" x1="162.0903" y1="46.5342" x2="187.5132" y2="46.5342">
				<stop offset="0" style="stop-color:#7DA7D9"/>
				<stop offset="1" style="stop-color:#F69679"/>
			</linearGradient>
			<path fill="url(#SVGID_1_)" d="M154.717,51.86l3.71,0.972c1.544-5.896,7.055-8.761,16.852-8.761     c9.795,0,15.306,2.865,16.85,8.761l3.712-0.972c-2.021-7.714-8.938-11.625-20.562-11.625S156.736,44.146,154.717,51.86z"/>
		</g>
		<g>
			<linearGradient id="SVGID_2_" gradientUnits="userSpaceOnUse" x1="162.0879" y1="52.1992" x2="187.5095" y2="52.1992">
				<stop offset="0" style="stop-color:#7DA7D9"/>
				<stop offset="1" style="stop-color:#F69679"/>
			</linearGradient>
			<path fill="url(#SVGID_2_)" d="M157.331,52.103l1.6,3.487c5.258-2.415,13.585-2.943,16.349-2.943c2.508,0,11.096,0.21,16.26,2.9     l1.774-3.402c-5.775-3.01-14.535-3.336-18.034-3.336C175.17,48.809,164.419,48.846,157.331,52.103z"/>
		</g>
		<g>
			<linearGradient id="SVGID_3_" gradientUnits="userSpaceOnUse" x1="162.0903" y1="63.5552" x2="187.5132" y2="63.5552">
				<stop offset="0" style="stop-color:#7DA7D9"/>
				<stop offset="1" style="stop-color:#F69679"/>
			</linearGradient>
			<path fill="url(#SVGID_3_)" d="M175.279,66.016c-9.797,0-15.308-2.865-16.852-8.759l-3.71,0.972     c2.02,7.714,8.938,11.625,20.563,11.625s18.541-3.911,20.562-11.625l-3.712-0.972C190.585,63.151,185.074,66.016,175.279,66.016z     "/>
		</g>
		<g>
			<linearGradient id="SVGID_4_" gradientUnits="userSpaceOnUse" x1="162.0874" y1="57.7207" x2="187.5089" y2="57.7207">
				<stop offset="0" style="stop-color:#7DA7D9"/>
				<stop offset="1" style="stop-color:#F69679"/>
			</linearGradient>
			<path fill="url(#SVGID_4_)" d="M157.286,57.787c5.883,2.883,13.797,3.313,17.994,3.313c4.592,0,13.057-0.439,18.111-3.378     l-1.929-3.317c-4.562,2.652-13.539,2.859-16.183,2.859c-3.111,0-10.925-0.285-16.303-2.923L157.286,57.787z"/>
		</g>
	</g>
	<g>
		<g>
			<linearGradient id="SVGID_5_" gradientUnits="userSpaceOnUse" x1="162.0903" y1="95.1387" x2="187.5132" y2="95.1387">
				<stop offset="0" style="stop-color:#7DA7D9"/>
				<stop offset="1" style="stop-color:#F69679"/>
			</linearGradient>
			<path fill="url(#SVGID_5_)" d="M154.717,100.465l3.71,0.973c1.544-5.895,7.055-8.761,16.852-8.761     c9.795,0,15.306,2.866,16.85,8.761l3.712-0.973c-2.021-7.714-8.938-11.625-20.562-11.625S156.736,92.751,154.717,100.465z"/>
		</g>
		<g>
			<linearGradient id="SVGID_6_" gradientUnits="userSpaceOnUse" x1="162.0879" y1="100.8032" x2="187.5095" y2="100.8032">
				<stop offset="0" style="stop-color:#7DA7D9"/>
				<stop offset="1" style="stop-color:#F69679"/>
			</linearGradient>
			<path fill="url(#SVGID_6_)" d="M157.331,100.706l1.6,3.486c5.258-2.413,13.585-2.94,16.349-2.94     c2.508,0,11.096,0.208,16.26,2.899l1.774-3.402c-5.775-3.01-14.535-3.334-18.034-3.334     C175.17,97.414,164.419,97.45,157.331,100.706z"/>
		</g>
		<g>
			<linearGradient id="SVGID_7_" gradientUnits="userSpaceOnUse" x1="162.0903" y1="112.1592" x2="187.5132" y2="112.1592">
				<stop offset="0" style="stop-color:#7DA7D9"/>
				<stop offset="1" style="stop-color:#F69679"/>
			</linearGradient>
			<path fill="url(#SVGID_7_)" d="M175.279,114.622c-9.797,0-15.308-2.866-16.852-8.761l-3.71,0.972     c2.02,7.714,8.938,11.625,20.563,11.625s18.541-3.911,20.562-11.625l-3.712-0.972     C190.585,111.755,185.074,114.622,175.279,114.622z"/>
		</g>
		<g>
			<linearGradient id="SVGID_8_" gradientUnits="userSpaceOnUse" x1="162.0874" y1="106.3247" x2="187.5089" y2="106.3247">
				<stop offset="0" style="stop-color:#7DA7D9"/>
				<stop offset="1" style="stop-color:#F69679"/>
			</linearGradient>
			<path fill="url(#SVGID_8_)" d="M157.286,106.391c5.883,2.884,13.797,3.313,17.994,3.313c4.592,0,13.057-0.438,18.111-3.377     l-1.929-3.316c-4.562,2.651-13.539,2.857-16.183,2.857c-3.111,0-10.925-0.285-16.303-2.922L157.286,106.391z"/>
		</g>
	</g>
	<g>
		<g>
			<linearGradient id="SVGID_9_" gradientUnits="userSpaceOnUse" x1="115.084" y1="238.7134" x2="140.5072" y2="238.7134">
				<stop offset="0" style="stop-color:#7DA7D9"/>
				<stop offset="1" style="stop-color:#F69679"/>
			</linearGradient>
			<path fill="url(#SVGID_9_)" d="M107.71,244.041l3.712,0.971c1.543-5.893,7.055-8.758,16.851-8.758     c9.795,0,15.306,2.865,16.85,8.758l3.712-0.971c-2.02-7.715-8.938-11.626-20.562-11.626     C116.648,232.415,109.731,236.326,107.71,244.041z"/>
		</g>
		<g>
			<linearGradient id="SVGID_10_" gradientUnits="userSpaceOnUse" x1="115.0825" y1="244.3794" x2="140.5038" y2="244.3794">
				<stop offset="0" style="stop-color:#7DA7D9"/>
				<stop offset="1" style="stop-color:#F69679"/>
			</linearGradient>
			<path fill="url(#SVGID_10_)" d="M110.326,244.283l1.599,3.485c5.258-2.412,13.584-2.942,16.349-2.942     c2.508,0,11.097,0.209,16.259,2.9l1.775-3.403c-5.775-3.009-14.536-3.333-18.034-3.333     C128.165,240.99,117.413,241.028,110.326,244.283z"/>
		</g>
		<g>
			<path fill="#7DA7D9" d="M128.273,258.198c-9.796,0-15.308-2.866-16.851-8.763l-3.712,0.975     c2.021,7.714,8.938,11.626,20.563,11.626c11.624,0,18.542-3.912,20.562-11.626l-3.712-0.975     C143.579,255.332,138.068,258.198,128.273,258.198z"/>
		</g>
		<g>
			<linearGradient id="SVGID_11_" gradientUnits="userSpaceOnUse" x1="115.0815" y1="249.9014" x2="140.5027" y2="249.9014">
				<stop offset="0" style="stop-color:#7DA7D9"/>
				<stop offset="1" style="stop-color:#F69679"/>
			</linearGradient>
			<path fill="url(#SVGID_11_)" d="M110.28,249.967c5.882,2.883,13.798,3.314,17.994,3.314c4.593,0,13.058-0.438,18.111-3.378     l-1.928-3.316c-4.561,2.652-13.539,2.856-16.183,2.856c-3.111,0-10.924-0.283-16.303-2.92L110.28,249.967z"/>
		</g>
	</g>
	<g>
		<g>
			<linearGradient id="SVGID_12_" gradientUnits="userSpaceOnUse" x1="198.5439" y1="276.7676" x2="223.9662" y2="276.7676">
				<stop offset="0" style="stop-color:#7DA7D9"/>
				<stop offset="1" style="stop-color:#F69679"/>
			</linearGradient>
			<path fill="url(#SVGID_12_)" d="M191.171,282.093l3.71,0.974c1.544-5.896,7.057-8.761,16.851-8.761     c9.796,0,15.308,2.865,16.851,8.761l3.712-0.974c-2.021-7.713-8.938-11.624-20.563-11.624     C200.108,270.469,193.19,274.38,191.171,282.093z"/>
		</g>
		<g>
			<linearGradient id="SVGID_13_" gradientUnits="userSpaceOnUse" x1="198.542" y1="282.4307" x2="223.9629" y2="282.4307">
				<stop offset="0" style="stop-color:#7DA7D9"/>
				<stop offset="1" style="stop-color:#F69679"/>
			</linearGradient>
			<path fill="url(#SVGID_13_)" d="M193.785,282.334l1.599,3.487c5.259-2.412,13.585-2.941,16.348-2.941     c2.508,0,11.1,0.208,16.262,2.9l1.773-3.403c-5.773-3.01-14.536-3.336-18.035-3.336     C211.624,279.041,200.872,279.079,193.785,282.334z"/>
		</g>
		<g>
			<linearGradient id="SVGID_14_" gradientUnits="userSpaceOnUse" x1="198.5439" y1="293.7871" x2="223.9662" y2="293.7871">
				<stop offset="0" style="stop-color:#7DA7D9"/>
				<stop offset="1" style="stop-color:#F69679"/>
			</linearGradient>
			<path fill="url(#SVGID_14_)" d="M211.731,296.25c-9.794,0-15.307-2.866-16.851-8.761l-3.71,0.972     c2.02,7.714,8.938,11.624,20.561,11.624c11.625,0,18.542-3.91,20.563-11.624l-3.712-0.972     C227.039,293.384,221.527,296.25,211.731,296.25z"/>
		</g>
		<g>
			<linearGradient id="SVGID_15_" gradientUnits="userSpaceOnUse" x1="198.541" y1="287.9541" x2="223.9615" y2="287.9541">
				<stop offset="0" style="stop-color:#7DA7D9"/>
				<stop offset="1" style="stop-color:#F69679"/>
			</linearGradient>
			<path fill="url(#SVGID_15_)" d="M193.739,288.02c5.884,2.884,13.798,3.313,17.992,3.313c4.594,0,13.059-0.438,18.111-3.378     l-1.928-3.317c-4.561,2.652-13.54,2.857-16.184,2.857c-3.11,0-10.923-0.284-16.302-2.919L193.739,288.02z"/>
		</g>
	</g>
	<g>
		<g>
			<linearGradient id="SVGID_16_" gradientUnits="userSpaceOnUse" x1="160.4907" y1="329.8477" x2="185.9136" y2="329.8477">
				<stop offset="0" style="stop-color:#7DA7D9"/>
				<stop offset="1" style="stop-color:#F69679"/>
			</linearGradient>
			<path fill="url(#SVGID_16_)" d="M153.117,335.175l3.711,0.973c1.544-5.896,7.057-8.762,16.852-8.762s15.306,2.866,16.85,8.762     l3.712-0.973c-2.019-7.715-8.938-11.626-20.562-11.626S155.137,327.46,153.117,335.175z"/>
		</g>
		<g>
			<linearGradient id="SVGID_17_" gradientUnits="userSpaceOnUse" x1="160.4888" y1="335.5127" x2="185.9093" y2="335.5127">
				<stop offset="0" style="stop-color:#7DA7D9"/>
				<stop offset="1" style="stop-color:#F69679"/>
			</linearGradient>
			<path fill="url(#SVGID_17_)" d="M155.732,335.415l1.6,3.489c5.257-2.414,13.584-2.944,16.348-2.944     c2.508,0,11.098,0.209,16.26,2.899l1.773-3.401c-5.773-3.011-14.534-3.336-18.033-3.336     C173.571,332.122,162.819,332.161,155.732,335.415z"/>
		</g>
		<g>
			<linearGradient id="SVGID_18_" gradientUnits="userSpaceOnUse" x1="160.4907" y1="346.8701" x2="185.9136" y2="346.8701">
				<stop offset="0" style="stop-color:#7DA7D9"/>
				<stop offset="1" style="stop-color:#F69679"/>
			</linearGradient>
			<path fill="url(#SVGID_18_)" d="M173.68,349.33c-9.795,0-15.308-2.865-16.852-8.759l-3.711,0.971     c2.02,7.714,8.938,11.626,20.563,11.626s18.543-3.912,20.562-11.626l-3.712-0.971C188.985,346.465,183.475,349.33,173.68,349.33z     "/>
		</g>
		<g>
			<linearGradient id="SVGID_19_" gradientUnits="userSpaceOnUse" x1="160.4893" y1="341.0342" x2="185.9091" y2="341.0342">
				<stop offset="0" style="stop-color:#7DA7D9"/>
				<stop offset="1" style="stop-color:#F69679"/>
			</linearGradient>
			<path fill="url(#SVGID_19_)" d="M155.688,341.101c5.882,2.882,13.796,3.314,17.992,3.314c4.595,0,13.057-0.441,18.11-3.376     l-1.927-3.319c-4.563,2.653-13.54,2.857-16.184,2.857c-3.11,0-10.923-0.283-16.303-2.922L155.688,341.101z"/>
		</g>
	</g>
	<path fill="none" stroke="#F69679" stroke-width="10.9473" stroke-linecap="round" stroke-linejoin="round" d="M195.425,103.989   c0,0,19.504-0.188,25.421,0c10.072,0.319,16.786,0.959,16.628,14.229c0,0,0,30.537-0.32,37.892   c-0.263,6.064-0.32,17.806-18.702,18.327h-13.914"/>
	<path fill="none" stroke="#F69679" stroke-width="10.9473" stroke-linecap="round" stroke-linejoin="round" d="M182.634,166.343   c0,0-2.111-26.544,21.585-26.861c23.98-0.319,41.889-0.959,41.889-0.959s16.476-0.159,16.956-13.43s0-49.884,0-49.884   s1.607-19.825-24.936-20.145c-26.54-0.32-41.888,0-41.888,0"/>
	<path fill="none" stroke="#F69679" stroke-width="10.9473" stroke-linecap="round" stroke-linejoin="round" d="M146.66,246.607   h96.571c0,0,18.864,0.319,19.822-15.35"/>
	<path fill="none" stroke="#F69679" stroke-width="10.9473" stroke-linecap="round" stroke-linejoin="round" d="M230.439,284.976   c0,0,8.629,0,12.792,0c6.073,0,19.983,0.48,20.144-15.667"/>
	<g>
		<path fill="#7DA7D9" d="M150.017,247.484c-2.598,0.56-4.357,1.839-5.316,3.358c-0.548,0.868,1.619,0.309,4.077,0.08h8.913    c4.439,0.887,10.423,3.394,11.53,15.58c1.377,15.14,8.697,22.382,23.044,22.792c2.381,0.067,4.37-1.81,4.437-4.193    c0.068-2.381-1.808-4.369-4.191-4.438c-8.67-0.247-13.578-2.702-14.69-14.943c-0.671-7.379-2.668-11.74-4.986-14.742    c-1.713-2.214-5.109-3.653-11.424-4.093C160.045,246.79,154.357,246.549,150.017,247.484z"/>
	</g>
	<line display="none" fill="none" stroke="#000000" stroke-width="1.2163" x1="146.541" y1="207.741" x2="151.295" y2="207.78"/>
	<line display="none" fill="none" stroke="#000000" stroke-width="1.2163" x1="144.141" y1="217.494" x2="148.818" y2="217.414"/>
	<line display="none" fill="none" stroke="#000000" stroke-width="1.2163" x1="207.694" y1="207.661" x2="203.459" y2="207.78"/>
	<line display="none" fill="none" stroke="#000000" stroke-width="1.2163" x1="210.412" y1="217.253" x2="206.295" y2="217.214"/>
	<text transform="matrix(1 0 0 1 82.1592 378.2627)" font-family="Liberation Sans, Helvetica, Arial, sans-serif" font-size="14.1">Blood carrying carbon dioxide in veins</text>
	<text transform="matrix(1 0 0 1 156.8965 36.5454)" font-family="Liberation Sans, Helvetica, Arial, sans-serif" font-size="16.3194">Head</text>
	<text transform="matrix(1 0 0 1 154.5054 84.5103)" font-family="Liberation Sans, Helvetica, Arial, sans-serif" font-size="16.3194">Lungs</text>
	<text transform="matrix(1 0 0 1 108.9243 225.5283)" font-family="Liberation Sans, Helvetica, Arial, sans-serif" font-size="16.3194">Liver</text>
	<text transform="matrix(1 0 0 1 201.3545 210.6577)" font-family="Liberation Sans, Helvetica, Arial, sans-serif" font-size="16.3194">Heart</text>
	<text transform="matrix(1 0 0 1 198.4248 266.1938)" font-family="Liberation Sans, Helvetica, Arial, sans-serif" font-size="16.3194">Gut</text>
	<text transform="matrix(1 0 0 1 127.562 318.9556)" font-family="Liberation Sans, Helvetica, Arial, sans-serif" font-size="16.3194">Rest of body</text>
	<text transform="matrix(1 0 0 1 82.1299 392.8677)" font-family="Liberation Sans, Helvetica, Arial, sans-serif" font-size="14.1">Blood carrying oxygen in arteries</text>
	<g>
		<line fill="none" stroke="#0072BC" stroke-width="3.6491" x1="143.303" y1="55.064" x2="123.157" y2="55.064"/>
		<polygon fill="#0072BC" points="117.062,55.064 125.651,51.554 123.613,55.064 125.651,58.573   "/>
	</g>
	<g>
		<line fill="none" stroke="#0072BC" stroke-width="3.6491" x1="89.101" y1="79.367" x2="89.101" y2="98.553"/>
		<polygon fill="#0072BC" points="89.101,104.648 85.592,96.058 89.101,98.097 92.611,96.058   "/>
	</g>
	<g>
		<line fill="none" stroke="#0072BC" stroke-width="3.6491" x1="88.782" y1="128.931" x2="88.782" y2="151.954"/>
		<polygon fill="#0072BC" points="88.782,158.049 85.272,149.459 88.782,151.497 92.291,149.459   "/>
	</g>
	<g>
		<line fill="none" stroke="#0072BC" stroke-width="3.6491" x1="115.322" y1="174.658" x2="136.107" y2="174.658"/>
		<polygon fill="#0072BC" points="142.203,174.658 133.612,178.167 135.65,174.658 133.612,171.148   "/>
	</g>
	<g>
		<path fill="none" stroke="#0072BC" stroke-width="3.6491" d="M128.113,135.646c-2.878-2.878-5.437-13.111-2.559-20.784"/>
		<polygon fill="#0072BC" points="127.694,109.153 127.965,118.43 125.394,115.289 121.393,115.964   "/>
	</g>
	<g>
		<path fill="none" stroke="#0072BC" stroke-width="3.6491" d="M171.281,161.866c-0.64-6.075-3.518-16.947-14.708-18.547"/>
		<polygon fill="#0072BC" points="150.537,142.458 159.539,140.198 157.023,143.385 158.545,147.146   "/>
	</g>
	<g>
		<path fill="none" stroke="#0072BC" stroke-width="3.6491" d="M147.3,174.338c5.755,0,10.072,3.037,12.95,7.516"/>
		<polygon fill="#0072BC" points="163.545,186.98 155.948,181.651 160.003,181.468 161.852,177.856   "/>
	</g>
	<g>
		<path fill="none" stroke="#0072BC" stroke-width="3.6491" d="M164.566,190.326c2.398,4.637,7.514,10.712,6.875-15.508"/>
		<polygon fill="#0072BC" points="171.293,168.724 175.01,177.227 171.453,175.273 167.993,177.396   "/>
	</g>
	<g>
		<path fill="none" stroke="#ED1C24" stroke-width="3.6491" d="M207.627,174.338c-5.756,0-10.073,3.037-12.951,7.516"/>
		<polygon fill="#ED1C24" points="191.381,186.98 198.978,181.651 194.924,181.468 193.075,177.856   "/>
	</g>
	<g>
		<path fill="none" stroke="#ED1C24" stroke-width="3.6491" d="M190.36,190.326c-2.398,4.637-7.515,10.712-6.876-15.508"/>
		<polygon fill="#ED1C24" points="183.633,168.724 179.916,177.227 183.475,175.273 186.932,177.396   "/>
	</g>
	<g>
		<line fill="none" stroke="#0072BC" stroke-width="3.6491" x1="88.462" y1="223.902" x2="88.462" y2="202.957"/>
		<polygon fill="#0072BC" points="88.462,196.861 91.971,205.451 88.462,203.413 84.953,205.451   "/>
	</g>
	<g>
		<line fill="none" stroke="#0072BC" stroke-width="3.6491" x1="88.462" y1="297.29" x2="88.462" y2="276.343"/>
		<polygon fill="#0072BC" points="88.462,270.248 91.971,278.838 88.462,276.798 84.953,278.838   "/>
	</g>
	<g>
		<line fill="none" stroke="#0072BC" stroke-width="3.6491" x1="139.304" y1="338.378" x2="116.282" y2="338.378"/>
		<polygon fill="#0072BC" points="110.186,338.378 118.776,334.869 116.738,338.378 118.776,341.887   "/>
	</g>
	<g>
		<line fill="none" stroke="#0072BC" stroke-width="3.6491" x1="50.373" y1="374.124" x2="73.395" y2="374.124"/>
		<polygon fill="#0072BC" points="79.492,374.124 70.901,370.615 72.939,374.124 70.901,377.634   "/>
	</g>
	<g>
		<line fill="none" stroke="#ED1C24" stroke-width="3.6491" x1="50.373" y1="388.729" x2="73.395" y2="388.729"/>
		<polygon fill="#ED1C24" points="79.492,388.729 70.901,385.22 72.939,388.729 70.901,392.238   "/>
	</g>
	<g>
		<line fill="none" stroke="#0072BC" stroke-width="3.6491" x1="139.304" y1="103.829" x2="151.295" y2="103.829"/>
		<polygon fill="#0072BC" points="157.392,103.829 148.801,107.338 150.84,103.829 148.801,100.319   "/>
	</g>
	<g>
		<line fill="none" stroke="#ED1C24" stroke-width="3.6491" x1="232.356" y1="54.425" x2="207.415" y2="54.425"/>
		<polygon fill="#ED1C24" points="201.32,54.425 209.909,50.916 207.871,54.425 209.909,57.935   "/>
	</g>
	<g>
		<line fill="none" stroke="#ED1C24" stroke-width="3.6491" x1="263.534" y1="112.942" x2="263.534" y2="87.521"/>
		<polygon fill="#ED1C24" points="263.534,81.425 267.044,90.016 263.534,87.978 260.025,90.016   "/>
	</g>
	<g>
		<line fill="none" stroke="#ED1C24" stroke-width="3.6491" x1="199.26" y1="103.829" x2="220.846" y2="103.829"/>
		<polygon fill="#ED1C24" points="226.94,103.829 218.351,107.338 220.39,103.829 218.351,100.319   "/>
	</g>
	<g>
		<line fill="none" stroke="#ED1C24" stroke-width="3.6491" x1="237.632" y1="121.096" x2="237.632" y2="154.672"/>
		<polygon fill="#ED1C24" points="237.632,160.768 234.125,152.178 237.632,154.215 241.143,152.178   "/>
	</g>
	<g>
		<path fill="none" stroke="#ED1C24" stroke-width="3.6491" d="M182.953,160.907c0-6.714,5.757-19.666,16.787-20.625"/>
		<polygon fill="#ED1C24" points="205.814,139.755 197.559,143.995 199.286,140.322 196.952,137.002   "/>
	</g>
	<g>
		<line fill="none" stroke="#ED1C24" stroke-width="3.6491" x1="212.211" y1="138.844" x2="222.285" y2="138.844"/>
		<polygon fill="#ED1C24" points="228.381,138.844 219.789,142.353 221.828,138.844 219.789,135.335   "/>
	</g>
	<g>
		<line fill="none" stroke="#ED1C24" stroke-width="3.6491" x1="236.672" y1="246.765" x2="214.131" y2="246.765"/>
		<polygon fill="#ED1C24" points="208.034,246.765 216.624,243.257 214.586,246.765 216.624,250.273   "/>
	</g>
	<g>
		<line fill="none" stroke="#ED1C24" stroke-width="3.6491" x1="199.26" y1="246.765" x2="176.718" y2="246.765"/>
		<polygon fill="#ED1C24" points="170.621,246.765 179.212,243.257 177.174,246.765 179.212,250.273   "/>
	</g>
	<g>
		<line fill="none" stroke="#ED1C24" stroke-width="3.6491" x1="250.104" y1="285.136" x2="237.632" y2="285.136"/>
		<polygon fill="#ED1C24" points="231.537,285.136 240.126,281.627 238.09,285.136 240.126,288.646   "/>
	</g>
	<g>
		<line fill="none" stroke="#ED1C24" stroke-width="3.6491" x1="234.754" y1="338.858" x2="209.333" y2="338.858"/>
		<polygon fill="#ED1C24" points="203.237,338.858 211.829,335.35 209.79,338.858 211.829,342.366   "/>
	</g>
	<g>
		<line fill="none" stroke="#ED1C24" stroke-width="3.6491" x1="262.575" y1="294.732" x2="262.575" y2="317.273"/>
		<polygon fill="#ED1C24" points="262.575,323.369 259.065,314.778 262.575,316.816 266.083,314.778   "/>
	</g>
	<g>
		<line fill="none" stroke="#ED1C24" stroke-width="3.6491" x1="262.575" y1="250.604" x2="262.575" y2="269.788"/>
		<polygon fill="#ED1C24" points="262.575,275.883 259.065,267.292 262.575,269.331 266.083,267.292   "/>
	</g>
	<g>
		<line fill="none" stroke="#ED1C24" stroke-width="3.6491" x1="262.575" y1="157.07" x2="262.575" y2="176.256"/>
		<polygon fill="#ED1C24" points="262.575,182.353 259.065,173.762 262.575,175.799 266.083,173.762   "/>
	</g>
	<g>
		<line fill="none" stroke="#ED1C24" stroke-width="3.6491" x1="262.575" y1="196.401" x2="262.575" y2="215.587"/>
		<polygon fill="#ED1C24" points="262.575,221.684 259.065,213.093 262.575,215.131 266.083,213.093   "/>
	</g>
	<g>
		<g>
			<path fill="none" stroke="#0072BC" stroke-width="3.6491" d="M186.631,284.338c-3.997-0.479-10.873-3.038-12.312-13.111"/>
			<polygon fill="#0072BC" points="173.457,265.192 178.146,273.2 174.384,271.678 171.198,274.193    "/>
		</g>
	</g>
	<g>
		<path fill="none" stroke="#0072BC" stroke-width="3.6491" d="M171.921,258.276c-0.96-4.315-4.316-7.193-7.675-8.152"/>
		<polygon fill="#0072BC" points="158.386,248.448 167.609,247.433 164.685,250.249 165.682,254.182   "/>
	</g>
</g>
<g id="Layer_7">
</g>
<g id="Layer_8">
</g>
</svg>