<?xml version="1.0" encoding="UTF-8"?>
<!-- Generator: Adobe Illustrator 15.1.0, SVG Export Plug-In . SVG Version: 6.00 Build 0)  -->
<!DOCTYPE svg PUBLIC "-//W3C//DTD SVG 1.0//EN" "http://www.w3.org/TR/2001/REC-SVG-20010904/DTD/svg10.dtd">
<svg version="1.0" id="Layer_1" xmlns="http://www.w3.org/2000/svg" xmlns:xlink="http://www.w3.org/1999/xlink" x="0px" y="0px" width="375px" height="390px" viewBox="0 0 375 390" enable-background="new 0 0 375 390" xml:space="preserve">
<g>
	<defs>
		<polygon id="SVGID_1_" points="132.354,20.326 156.007,125.895 156.007,202.043 11.788,202.043 11.788,123.01 27.94,20.904   "/>
	</defs>
	<clipPath id="SVGID_2_">
		<use xlink:href="#SVGID_1_" overflow="visible"/>
	</clipPath>
	<path clip-path="url(#SVGID_2_)" fill="#E3E3E3" stroke="#E3E3E3" d="M80.438,159.353c0.385,10.384,0.385,27.306,1.154,38.458   c0.958,13.898,1.921,26.151,1.921,39.997c4.615-0.385,9.229-0.385,13.845-0.385c6.539-0.383,18.844,0.771,24.612-1.537   c4.232-1.924,5.771,1.153,6.924-3.462c1.54-4.615,2.307-10.384,3.461-15c6.539-22.689,10.698-42.743,12.308-66.147   c0.767-11.154-0.385-23.46-2.693-33.46c-2.309-9.613-3.076-19.229-5.769-28.843c-3.076-11.538-9.23-23.075-10.384-34.997   c-1.154-11.922,0.769-21.921,3.461-33.459c2.307-8.461,3.461-16.921,5-25.383c1.923,10,3.46,21.153,8.076,29.998   c8.076-4.23,17.69-8.076,26.535-10.769c-3.844-13.46-9.229-27.305-9.999-41.149c-0.768-11.922,1.539-31.921-12.306-37.306   c0,0-12.69-6.153-18.459-8.076c-5.384-1.539-10.769-2.692-16.536-4.615c-16.538-6.922-10.769-18.461-11.539-33.459H59.668   c-0.77,14.998,5,26.537-11.538,33.459c-5.769,1.923-11.579,2.607-16.441,5.384c-5.384,3.076-17.787,7.691-17.787,7.691   C0.058-58.321,2.365-38.323,1.596-26.401C0.827-12.555-4.556,1.289-8.403,14.75c8.845,2.693,18.46,6.538,26.537,10.769   c4.615-8.846,6.153-19.999,8.076-29.998c1.538,8.46,2.692,16.921,5,25.382c2.693,11.538,4.615,21.537,3.461,33.459   c-1.154,11.922-7.308,23.459-10.384,34.997c-2.693,9.615-3.461,19.229-5.769,28.844c-2.308,9.999-3.461,21.537-2.692,33.458   c1.508,23.412,5.769,43.459,12.306,66.15c1.154,4.614,1.923,10.382,3.462,14.998c1.154,4.616,2.692,1.537,6.923,3.463   c5.769,2.307,18.075,1.153,24.613,1.536c4.615,0,9.231,0,13.846,0.384c0-13.844,0.963-26.1,1.922-39.996   c0.77-11.153,0.768-28.075,1.154-38.459"/>
	<g clip-path="url(#SVGID_2_)">
		<path fill="#F9ECE6" d="M18.825-15.797c4.961-3.87,5.668,2.58,6.023,5.804c0.709,7.096,4.884,13.65,9.921,16.125    c17.717,8.707,38.622-2.257,39.685-21.285"/>
		<g>
			<path fill="#B1877B" d="M18.855-15.746c4.587-3.034,5.249,2.427,5.581,5.753c0.418,4.189,1.928,8.128,4.372,11.549     c4.169,5.837,11.833,7.995,18.699,8.135c13.986,0.286,27.078-10.488,27.46-24.843c0.018-0.673-0.953-0.64-1.023,0     c-0.836,7.59-4.328,14.253-10.574,18.763c-6.177,4.46-14.06,5.896-21.475,4.448c-3.828-0.748-7.623-2.255-10.482-4.953     c-3.574-3.373-5.543-8.304-6.15-13.099c-0.488-3.854-1.776-9.55-6.478-5.846C18.731-15.797,18.8-15.71,18.855-15.746     L18.855-15.746z"/>
		</g>
	</g>
	
		<ellipse clip-path="url(#SVGID_2_)" fill="#F9ECE6" stroke="#B1877B" stroke-width="0.75" cx="46.208" cy="-12.555" rx="4.999" ry="3.846"/>
	
		<ellipse clip-path="url(#SVGID_2_)" fill="none" stroke="#B1877B" stroke-width="0.75" cx="46.208" cy="-12.7" rx="1.94" ry="1.493"/>
	<g clip-path="url(#SVGID_2_)">
		<path fill="#F9ECE6" d="M141.661-15.797c-4.96-3.87-5.668,2.58-6.023,5.804c-0.708,7.096-4.883,13.65-9.922,16.125    C108,14.84,87.095,3.875,86.031-15.152"/>
		<g>
			<path fill="#B1877B" d="M141.703-15.838c-4.504-3.548-5.939,1.58-6.429,5.444c-0.617,4.87-2.391,9.337-5.714,13.004     c-2.819,3.111-6.966,4.573-10.968,5.448c-7.243,1.585-14.829-0.074-20.979-4.106C91.037-0.359,87.389-7.475,86.543-15.152     c-0.07-0.64-1.042-0.673-1.023,0C85.902-0.806,98.582,9.361,112.349,9.69c7.125,0.17,14.798-2.279,19.257-8.038     c2.359-3.047,3.94-7.033,4.359-10.859c0.367-3.34,0.733-9.802,5.667-6.54C141.687-15.71,141.755-15.797,141.703-15.838     L141.703-15.838z"/>
		</g>
	</g>
	
		<ellipse clip-path="url(#SVGID_2_)" fill="#F9ECE6" stroke="#B1877B" stroke-width="0.75" cx="114.279" cy="-12.555" rx="4.999" ry="3.846"/>
	
		<ellipse clip-path="url(#SVGID_2_)" fill="none" stroke="#B1877B" stroke-width="0.75" cx="114.279" cy="-12.7" rx="1.94" ry="1.493"/>
</g>
<path fill="#F4D9CE" stroke="#E5AB97" stroke-width="0.75" d="M89.755,116.147c2.339-0.436,3.956-2.347,4.173-2.543  c0.22-0.198,0.198-0.198,0.023-0.742c-0.174-0.547,0.132-0.7,0.065-0.767c-0.065-0.062,0.351-1.696,0.46-1.825l4.66,2.134  c-0.004,0.135-0.901,1.614-1.143,1.551c-0.21-0.058-0.045,0.675-0.984,0.72c-0.676,0.03-0.765-0.198-0.896-0.33  c-0.131-0.129-1.18-0.042-1.573,0.156c-0.393,0.194-3.234,1.572-3.693,2.423"/>
<path fill="#F4D9CE" stroke="#E5AB97" stroke-width="0.75" d="M91.166,117.261c0.589,0.198,2.327,0.229,3.375-0.294  c1.049-0.525,1.826-0.727,3.214-2.358c1.114-1.312,2.818-1.115,3.277-1.049c0.457,0.065,1.975-0.875,2.557-2.227  c0.59-1.376,1.834-1.443,2.359-2.163c0.528-0.719,2.099-1.832,1.969-2.359c-0.13-0.522-0.393-0.57-1.018-0.294  c-0.622,0.278-2.326,0.428-3.392,0.311c-1.064-0.115-2.19,0.285-2.018,1.329c0.084,0.49-0.243,0.999-0.374,1.127  c-0.132,0.133,0.441,0.328,0.639,0.295c0.196-0.029,0.591,0.052,0.196,0.396c-0.394,0.343-0.524,0.294-0.656,0.309  c0.116,0.085,0.543,0.393,0.739,0.411c0.196,0.015,0.267,0.405-0.279,0.44c-0.245,0.019-0.704-0.096-0.887-0.195  c-0.177-0.098-0.349-0.154-0.162,0.526c0.098,0.359,0.359,0.849,0.378,1.062c0.017,0.212,0,0.524-0.411,0.115  c-0.369-0.368-0.396-0.565-0.441-0.67c-0.051-0.113-0.167-0.034-0.231,0.114c-0.066,0.148,0.18,0.753,0.147,0.933  c-0.032,0.181-0.156,0.643-0.476,0.115c-0.048-0.083-0.079-0.622-0.163-0.674c-0.08-0.047-0.146-0.129-0.277,0.166  c-0.132,0.295-0.262,0.705-0.508,0.885c-0.246,0.181-0.295-0.148-0.295-0.246c0-0.101,0.05-0.442-0.015-0.557  c-0.066-0.115-0.181-0.033-0.294,0.163c-0.116,0.198-0.459,0.886-0.689,1.245c-0.23,0.36-0.362,0.492-0.362-0.098  c0-0.589-0.098-0.554-0.262-0.361c-0.166,0.198-0.231,0.066-0.231-0.361c0-0.425,0.134-1.21,0.134-1.438  c0-0.232-0.134-0.166-0.23-0.071c-0.099,0.099-0.917,1.083-1.312,1.184c-0.392,0.098-0.294-0.066-0.294-0.296  c0-0.23,0.021-0.38-0.425-0.23c-0.59,0.197-0.652-0.028-0.295-0.293c0.262-0.198,0.523-0.752,0.523-1.018  c0-0.261-0.032-0.096-0.163-0.03c-0.132,0.064-1,0.854-2.131,0.361c-0.524-0.233,0.164-0.592,0.425-0.657  c0.263-0.065,1.443-0.557,0.886-0.557c-0.558,0-1.442-0.458-0.558-0.589c0.886-0.132,0.689-0.197,0.231-0.719  c-0.461-0.525-0.658-1.51-0.166-1.146c0.493,0.36,1.016,0.687,1.411,0.589c-0.329-0.46-0.524-1.018-0.492-1.312  c0.033-0.294,0.261-0.129,0.426,0.099c0.164,0.228,0.688,0.721,1.017,0.786c-0.034-0.227-0.132-0.425-0.065-0.655  c0.065-0.23,0.129-0.199,0.359,0.034c0.229,0.229,0.458,0.786,0.983-0.264c0.671-1.337,1.757-2.264,4.654-2.619  c2.133-0.264,3.084,0.523,3.805,0.72c0.721,0.194,1.127,0.153,2.361-0.133c0.982-0.229,1.442,0.918,1.442,1.572  c0,0.657-0.133,1.182-0.722,1.705c-0.589,0.525-1.376,1.833-2.559,2.489c-1.178,0.657-1.311,1.442-1.507,1.834  c-0.198,0.394-0.982,2.032-2.754,2.228c-1.771,0.197-2.359-0.066-3.473,1.377c-1.116,1.44-1.838,2.226-3.607,2.291  c-1.772,0.065-2.715,1.367-3.435,2.153"/>
<path fill="none" stroke="#E5AB97" stroke-width="0.75" d="M96.463,107.599c-0.26,0.197-0.829,0.72-1.856,0.787"/>
<path fill="none" stroke="#E5AB97" stroke-width="0.75" d="M96.048,107.906c-0.085,0.042-0.327,0.085-0.49,0.053"/>
<path fill="none" stroke="#E5AB97" stroke-width="0.75" d="M96.114,114.345c-0.152-0.11-0.328-0.239-0.349-0.479"/>
<path fill="none" stroke="#E5AB97" stroke-width="0.75" d="M97.905,113.647c0.043,0.11,0.089,0.307-0.021,0.413"/>
<path fill="none" stroke="#E5AB97" stroke-width="0.75" d="M94.017,112.162c0.044-0.129,0.175-0.176,0.241-0.153"/>
<path fill="#F4D9CE" stroke="#E5AB97" stroke-width="0.75" d="M71.181,116.147c-2.338-0.436-3.957-2.347-4.174-2.543  c-0.218-0.198-0.197-0.198-0.022-0.742c0.175-0.547-0.132-0.7-0.066-0.767c0.066-0.062-0.349-1.696-0.458-1.825l-4.66,2.134  c0.004,0.135,0.9,1.614,1.141,1.551c0.213-0.058,0.045,0.675,0.985,0.72c0.676,0.03,0.764-0.198,0.896-0.33  c0.13-0.129,1.181-0.042,1.573,0.156c0.394,0.194,3.234,1.572,3.695,2.423"/>
<path fill="#F4D9CE" stroke="#E5AB97" stroke-width="0.75" d="M69.771,117.261c-0.588,0.198-2.326,0.229-3.376-0.294  c-1.049-0.525-1.825-0.727-3.212-2.358c-1.113-1.312-2.82-1.115-3.278-1.049c-0.459,0.065-1.977-0.875-2.557-2.227  c-0.592-1.376-1.836-1.443-2.361-2.163c-0.525-0.719-2.099-1.832-1.967-2.359c0.129-0.522,0.394-0.57,1.015-0.294  c0.625,0.278,2.328,0.428,3.394,0.311c1.066-0.115,2.19,0.285,2.017,1.329c-0.081,0.49,0.246,0.999,0.376,1.127  c0.13,0.133-0.443,0.328-0.638,0.295c-0.198-0.029-0.591,0.052-0.198,0.396c0.393,0.343,0.525,0.294,0.656,0.309  c-0.115,0.085-0.542,0.393-0.738,0.411c-0.196,0.015-0.269,0.405,0.28,0.44c0.245,0.019,0.705-0.096,0.884-0.195  c0.18-0.098,0.349-0.154,0.164,0.526c-0.099,0.359-0.361,0.849-0.377,1.062c-0.016,0.212,0,0.524,0.41,0.115  c0.369-0.368,0.396-0.565,0.442-0.67c0.049-0.113,0.165-0.034,0.23,0.114c0.067,0.148-0.181,0.753-0.148,0.933  c0.033,0.181,0.159,0.643,0.476,0.115c0.049-0.083,0.083-0.622,0.165-0.674c0.082-0.047,0.147-0.129,0.278,0.166  c0.13,0.295,0.263,0.705,0.507,0.885c0.246,0.181,0.296-0.148,0.296-0.246c0-0.101-0.05-0.442,0.016-0.557  c0.066-0.115,0.179-0.033,0.294,0.163c0.116,0.198,0.459,0.886,0.69,1.245c0.228,0.36,0.361,0.492,0.361-0.098  c0-0.589,0.098-0.554,0.261-0.361c0.165,0.198,0.229,0.066,0.229-0.361c0-0.425-0.132-1.21-0.132-1.438  c0-0.232,0.132-0.166,0.231-0.071c0.098,0.099,0.917,1.083,1.311,1.184c0.394,0.098,0.295-0.066,0.295-0.296  c0-0.23-0.022-0.38,0.426-0.23c0.59,0.197,0.65-0.028,0.295-0.293c-0.262-0.198-0.524-0.752-0.524-1.018  c0-0.261,0.033-0.096,0.164-0.03c0.131,0.064,0.999,0.854,2.13,0.361c0.524-0.233-0.162-0.592-0.424-0.657  c-0.264-0.065-1.445-0.557-0.887-0.557s1.442-0.458,0.558-0.589c-0.887-0.132-0.689-0.197-0.231-0.719  c0.459-0.525,0.658-1.51,0.165-1.146c-0.492,0.36-1.016,0.687-1.409,0.589c0.327-0.46,0.522-1.018,0.491-1.312  c-0.033-0.294-0.263-0.129-0.427,0.099c-0.164,0.228-0.688,0.721-1.017,0.786c0.033-0.227,0.132-0.425,0.065-0.655  c-0.065-0.23-0.129-0.199-0.36,0.034c-0.229,0.229-0.458,0.786-0.982-0.264c-0.67-1.337-1.757-2.264-4.655-2.619  c-2.131-0.264-3.083,0.523-3.804,0.72c-0.721,0.194-1.126,0.153-2.36-0.133c-0.983-0.229-1.443,0.918-1.443,1.572  c0,0.657,0.131,1.182,0.722,1.705c0.589,0.525,1.378,1.833,2.557,2.489c1.181,0.657,1.311,1.442,1.509,1.834  c0.197,0.394,0.984,2.032,2.753,2.228c1.771,0.197,2.361-0.066,3.476,1.377c1.115,1.44,1.835,2.226,3.606,2.291  c1.772,0.065,2.714,1.367,3.435,2.153"/>
<path fill="none" stroke="#E5AB97" stroke-width="0.75" d="M64.473,107.599c0.26,0.197,0.83,0.72,1.857,0.787"/>
<path fill="none" stroke="#E5AB97" stroke-width="0.75" d="M64.887,107.906c0.087,0.042,0.328,0.085,0.491,0.053"/>
<path fill="none" stroke="#E5AB97" stroke-width="0.75" d="M64.822,114.345c0.152-0.11,0.328-0.239,0.349-0.479"/>
<path fill="none" stroke="#E5AB97" stroke-width="0.75" d="M63.028,113.647c-0.042,0.11-0.087,0.307,0.024,0.413"/>
<path fill="none" stroke="#E5AB97" stroke-width="0.75" d="M66.918,112.162c-0.042-0.129-0.173-0.176-0.24-0.153"/>
<path fill="#F4D9CE" stroke="#E5AB97" stroke-width="0.75" d="M82.191,160.043c2.378-1.191,2.033-13.18,2.033-15.322  c0-2.137,0.569-3.229,1.27-3.975c0.699-0.741,0.743-2.97-0.044-3.535c-0.786-0.567,0.086-3.757,0.35-4.719  c0.261-0.962,1.901-3.274,2.354-5.028c0.142-0.552,0.995-3.996,1.755-5.065c1.355-1.904,1.921-2.96,1.659-4.232  c-0.375-1.83-5.085-3.646-5.875-3.841c-0.691-0.175-2.636-0.828-5.197-0.833h-0.058c-2.562,0.005-4.502,0.658-5.197,0.833  c-0.789,0.194-5.499,2.011-5.875,3.841c-0.262,1.272,0.304,2.328,1.658,4.232c0.761,1.069,1.616,4.513,1.756,5.065  c0.454,1.754,2.094,4.066,2.355,5.028c0.263,0.961,1.136,4.151,0.35,4.719c-0.787,0.564-0.741,2.793-0.043,3.535  c0.7,0.746,1.269,1.837,1.269,3.975c0,2.142-0.345,14.131,2.034,15.322"/>
<path fill="#E8B29E" d="M80.439,160.533c0.677,0.035,1.171-0.169,1.752-0.489c-0.362,0.137-0.434-0.293-0.173-0.624  c0.263-0.328,0.459-0.748,0.334-1.263c-0.085-0.362,0.082-0.702,0.146-0.876c0.065-0.174,0.219-0.741-0.043-1.224  c-0.2-0.369-0.043-1.225,0.043-1.286c0.088-0.068,0.347-0.809,0.196-1.269c-0.18-0.553-0.043-0.786,0.022-0.895  c0.066-0.109,0.154-0.81,0.044-0.962c-0.11-0.15,0.022-0.742,0.065-0.828c0.044-0.09-0.252-0.753,0.07-1.199  c0.108-0.149-0.113-0.614-0.025-0.746c0.087-0.132,0.043-0.437-0.044-0.611c-0.087-0.176-0.043-0.569,0.044-0.655  c0.087-0.089,0.064-0.482,0-0.57c-0.066-0.088-0.066-0.545,0.022-0.808c0.087-0.264,0.108-0.831-0.044-1.091  c-0.153-0.261-0.24-0.806-0.087-1.113c0.153-0.307,0.247-0.525,0.219-1.202c-0.022-0.493,0.207-0.493,0.327-0.72  c0.051-0.096,0.219-0.481,0.372-0.657c0.152-0.173,0.872-1.275,0.939-1.416c0.154-0.331,0.009-0.919-0.416-0.55  c-0.103,0.092-0.613,0.869-1.532,1.412c-0.456,0.263-0.87,0.477-1.394,0.004c-0.525-0.475-0.625-1-0.593-1.197  c0.033-0.196-0.318-0.523-0.188-0.981c0.119-0.413,0.204-0.655,0.105-0.851c-0.098-0.199-0.047-0.46,0.065-0.607  c0.117-0.147,0.033-0.573-0.033-0.718c-0.064-0.149-0.064-0.607-0.033-0.674c0.033-0.065,0.165-0.393,0-0.605  c-0.163-0.214-0.027-1.578,0.022-2.405c0.053-0.869,0.303-0.671,0.317-1.146c0.018-0.476,0.302-0.56,0.287-0.92  c-0.017-0.36-0.144-0.083-0.126-0.343c0.015-0.264,0.226-0.224,0.309-0.877c0.028-0.213,0.191-0.162,0.144-0.326  c-0.051-0.164-0.094-0.044-0.042-0.427c0.02-0.174,0.096-0.639,0.183-0.6c0.117,0.048,0.108-0.219,0.026-0.3  c-0.083-0.083,0.142,0.012,0.142-0.402c0-0.257,0.529-0.571,0.316-0.671c-0.213-0.096-0.119-0.28-0.036-0.378  c0.08-0.099,0.028-0.12,0.087-0.279c0.058-0.163,0.425-0.093,0.376-0.127c-0.049-0.033-0.36-0.043-0.326-0.176  c0.032-0.133-0.071-0.423,0.063-0.4c0.151,0.024,0.263,0.125,0.287,0.048c0.045-0.14-0.228-0.103-0.275-0.15  c-0.049-0.048-0.033-0.435,0.077-0.451c0.174-0.024,0.01-0.137,0.086-0.276c0,0,0.085,0.025,0.112-0.073  c0.026-0.089-0.188-0.018-0.125-0.15c0.076-0.166,0.168-0.217,0.227-0.178c-0.061-0.04,0.113,0.124,0.175,0.039  c0.123-0.172-0.222-0.133-0.213-0.202c0.013-0.114,0.074-0.602,0.188-0.488c0.116,0.113,0.076,0.116,0.125,0.098  c0.049-0.014,0.025-0.044-0.024-0.111c-0.049-0.065-0.113-0.064-0.113-0.064s0.08-0.278,0.163-0.212  c0.083,0.067,0.141,0.126,0.207,0.159c0.066,0.031,0.196-0.079,0.144-0.159c-0.047-0.082-0.305-0.192-0.223-0.258  c0.081-0.067,0.32-0.219,0.385-0.204c0.064,0.015,0.214,0.17,0.329,0.185c0.116,0.016,0.018-0.133,0.051-0.2  c0.033-0.064-0.515-0.413,0.037-0.64c0.354-0.144,0.937-1.335,1.599-1.738c0.753-0.46,1.435-1.274,3.899-1.43  c0.524-0.032,0.557-0.427,0.196-0.492c-0.36-0.065-1.999,0.101-2.622,0.232c-0.624,0.127-2.031,0.718-2.293,0.814  c-0.263,0.1-0.197-0.128-0.197-0.225c0-0.098-0.134,0.03-0.23,0.163c-0.097,0.132-0.494,0.588-0.624,0.261  c-0.132-0.327,0-0.327-0.064-0.492c-0.068-0.162-0.1-0.128-0.1,0.166c0,0.294-0.099,0.588-0.296,0.523  c-0.196-0.065-0.262-0.396-0.327-0.099c-0.066,0.295-0.265,0.229-0.427,0.229c-0.163,0-0.196,0-0.196-0.556  c0-0.557-0.099-0.132-0.099,0.03c0,0.167,0.132,0.492-0.065,0.526c-0.196,0.032-0.228,0.032-0.393,0.165  c-0.165,0.133-0.229,0-0.229-0.099s-0.099-0.492-0.099-0.196c0,0.295,0.099,0.196-0.229,0.263c-0.329,0.066-0.589-0.023-0.688,0.009  l-0.063-0.821l-0.122,0.812c-0.097-0.034-0.194,0.066-0.523,0c-0.329-0.067-0.231,0.032-0.231-0.263  c0-0.296-0.098,0.097-0.098,0.196s-0.066,0.232-0.229,0.099c-0.165-0.133-0.196-0.133-0.393-0.165  c-0.197-0.034-0.066-0.359-0.066-0.526c0-0.162-0.098-0.586-0.098-0.03c0,0.556-0.033,0.556-0.197,0.556  c-0.164,0-0.36,0.065-0.427-0.229c-0.065-0.296-0.129,0.034-0.328,0.099c-0.195,0.065-0.294-0.229-0.294-0.523  c0-0.294-0.033-0.327-0.099-0.166c-0.066,0.166,0.065,0.166-0.066,0.492c-0.131,0.327-0.526-0.129-0.622-0.261  c-0.098-0.133-0.23-0.261-0.23-0.163c0,0.097,0.065,0.325-0.197,0.225c-0.263-0.096-1.671-0.687-2.295-0.814  c-0.621-0.131-2.261-0.297-2.622-0.232c-0.36,0.065-0.327,0.46,0.197,0.492c2.466,0.156,3.145,0.97,3.9,1.43  c0.661,0.403,1.245,1.594,1.597,1.738c0.552,0.227,0.005,0.576,0.039,0.64c0.032,0.066-0.065,0.216,0.05,0.2  c0.115-0.015,0.264-0.17,0.33-0.185c0.065-0.015,0.301,0.137,0.383,0.204c0.082,0.066-0.175,0.176-0.223,0.258  c-0.05,0.081,0.079,0.19,0.146,0.159c0.065-0.033,0.122-0.092,0.206-0.159c0.081-0.065,0.16,0.212,0.16,0.212  s-0.063-0.001-0.111,0.064c-0.049,0.067-0.075,0.097-0.026,0.111c0.05,0.018,0.01,0.015,0.126-0.098  c0.115-0.114,0.175,0.375,0.188,0.488c0.007,0.069-0.334,0.03-0.214,0.202c0.065,0.085,0.238-0.079,0.178-0.039  c0.056-0.039,0.149,0.012,0.226,0.178c0.063,0.132-0.151,0.062-0.125,0.15c0.028,0.098,0.113,0.073,0.113,0.073  c0.075,0.139-0.088,0.251,0.087,0.276c0.109,0.016,0.125,0.403,0.075,0.451c-0.048,0.048-0.322,0.01-0.275,0.15  c0.025,0.077,0.137-0.024,0.289-0.048c0.133-0.023,0.031,0.267,0.062,0.4c0.033,0.133-0.275,0.143-0.326,0.176  c-0.05,0.034,0.318-0.036,0.375,0.127c0.059,0.16,0.007,0.181,0.088,0.279c0.082,0.098,0.175,0.283-0.038,0.378  c-0.213,0.1,0.318,0.414,0.318,0.671c0,0.415,0.224,0.319,0.141,0.402c-0.082,0.081-0.091,0.348,0.026,0.3  c0.088-0.04,0.162,0.425,0.184,0.6c0.05,0.383,0.008,0.264-0.042,0.427c-0.049,0.165,0.115,0.113,0.142,0.326  c0.083,0.653,0.294,0.613,0.311,0.877c0.016,0.261-0.109-0.017-0.127,0.343c-0.016,0.36,0.271,0.444,0.286,0.92  c0.016,0.475,0.266,0.277,0.316,1.146c0.052,0.827,0.187,2.19,0.022,2.405c-0.163,0.212-0.032,0.54,0,0.605  c0.034,0.067,0.034,0.525-0.032,0.674c-0.065,0.146-0.147,0.571-0.034,0.718c0.115,0.147,0.166,0.408,0.065,0.607  c-0.097,0.196-0.012,0.438,0.107,0.851c0.131,0.458-0.22,0.785-0.187,0.981c0.032,0.198-0.067,0.722-0.591,1.197  c-0.523,0.473-0.939,0.259-1.394-0.004c-0.919-0.542-1.434-1.32-1.535-1.412c-0.425-0.369-0.567,0.219-0.415,0.55  c0.067,0.141,0.787,1.242,0.939,1.416c0.153,0.176,0.32,0.561,0.372,0.657c0.119,0.227,0.349,0.227,0.326,0.72  c-0.03,0.677,0.068,0.896,0.221,1.202c0.15,0.307,0.064,0.852-0.089,1.113c-0.152,0.26-0.132,0.827-0.042,1.091  c0.085,0.263,0.085,0.72,0.021,0.808c-0.064,0.088-0.088,0.481,0,0.57c0.088,0.086,0.132,0.479,0.043,0.655  c-0.086,0.174-0.131,0.479-0.043,0.611c0.088,0.131-0.134,0.596-0.025,0.746c0.322,0.446,0.025,1.109,0.068,1.199  c0.045,0.085,0.177,0.677,0.067,0.828c-0.11,0.152-0.022,0.853,0.042,0.962c0.068,0.109,0.204,0.342,0.023,0.895  c-0.149,0.46,0.11,1.201,0.198,1.269c0.085,0.062,0.245,0.917,0.042,1.286c-0.263,0.483-0.108,1.049-0.042,1.224  c0.065,0.175,0.231,0.515,0.146,0.876c-0.124,0.516,0.072,0.936,0.334,1.263c0.262,0.331,0.189,0.761-0.173,0.624  C79.328,160.364,79.925,160.5,80.439,160.533L80.439,160.533z"/>
<path fill="#E5AB97" stroke="#E5AB97" stroke-width="0.75" d="M80.724,137.082c0.015-0.188-0.04-0.438-0.089-0.541  c-0.064-0.149-0.064-0.607-0.033-0.674c0.033-0.065,0.165-0.393,0-0.605c-0.163-0.214-0.027-1.578,0.022-2.405  c0.053-0.869,0.303-0.671,0.317-1.146c0.018-0.476,0.302-0.56,0.287-0.92c-0.017-0.36-0.144-0.083-0.126-0.343  c0.015-0.264,0.226-0.224,0.309-0.877c0.028-0.213,0.191-0.162,0.144-0.326c-0.051-0.164-0.094-0.044-0.042-0.427  c0.02-0.174,0.096-0.639,0.183-0.6c0.117,0.048,0.108-0.219,0.026-0.3c-0.083-0.083,0.142,0.012,0.142-0.402  c0-0.257,0.529-0.571,0.316-0.671c-0.213-0.096-0.119-0.28-0.036-0.378c0.08-0.099,0.028-0.12,0.087-0.279  c0.058-0.163,0.425-0.093,0.376-0.127c-0.049-0.033-0.36-0.043-0.326-0.176c0.032-0.133-0.071-0.423,0.063-0.4  c0.151,0.024,0.263,0.125,0.287,0.048c0.045-0.14-0.228-0.103-0.275-0.15c-0.049-0.048-0.033-0.435,0.077-0.451  c0.174-0.024,0.01-0.137,0.086-0.276c0,0,0.085,0.025,0.112-0.073c0.026-0.089-0.188-0.018-0.125-0.15  c0.076-0.166,0.168-0.217,0.227-0.178c-0.061-0.04,0.113,0.124,0.175,0.039c0.123-0.172-0.222-0.133-0.213-0.202  c0.013-0.114,0.074-0.602,0.188-0.488c0.116,0.113,0.076,0.116,0.125,0.098c0.049-0.014,0.025-0.044-0.024-0.111  c-0.049-0.065-0.113-0.064-0.113-0.064s0.08-0.278,0.163-0.212c0.083,0.067,0.141,0.126,0.207,0.159  c0.066,0.031,0.196-0.079,0.144-0.159c-0.047-0.082-0.305-0.192-0.223-0.258c0.081-0.067,0.32-0.219,0.385-0.204  c0.064,0.015,0.214,0.17,0.329,0.185c0.116,0.016,0.018-0.133,0.051-0.2c0.033-0.064-0.515-0.413,0.037-0.64  c0.354-0.144,0.937-1.335,1.599-1.738c0.753-0.46,1.435-1.274,3.899-1.43c0.524-0.032,0.557-0.427,0.196-0.492  c-0.36-0.065-1.999,0.101-2.622,0.232c-0.624,0.127-2.031,0.718-2.293,0.814c-0.263,0.1-0.197-0.128-0.197-0.225  c0-0.098-0.134,0.03-0.23,0.163c-0.097,0.132-0.494,0.588-0.624,0.261c-0.132-0.327,0-0.327-0.064-0.492  c-0.068-0.162-0.1-0.128-0.1,0.166c0,0.294-0.099,0.588-0.296,0.523c-0.196-0.065-0.262-0.396-0.327-0.099  c-0.066,0.295-0.265,0.229-0.427,0.229c-0.163,0-0.196,0-0.196-0.556c0-0.557-0.099-0.132-0.099,0.03  c0,0.167,0.132,0.492-0.065,0.526c-0.196,0.032-0.228,0.032-0.393,0.165c-0.165,0.133-0.229,0-0.229-0.099s-0.099-0.492-0.099-0.196  c0,0.295,0.099,0.196-0.229,0.263c-0.329,0.066-0.589-0.023-0.688,0.009l-0.063-0.821l-0.122,0.812  c-0.097-0.034-0.194,0.066-0.523,0c-0.329-0.067-0.231,0.032-0.231-0.263c0-0.296-0.098,0.097-0.098,0.196s-0.066,0.232-0.229,0.099  c-0.165-0.133-0.196-0.133-0.393-0.165c-0.197-0.034-0.066-0.359-0.066-0.526c0-0.162-0.098-0.586-0.098-0.03  c0,0.556-0.033,0.556-0.197,0.556c-0.164,0-0.36,0.065-0.427-0.229c-0.065-0.296-0.129,0.034-0.328,0.099  c-0.195,0.065-0.294-0.229-0.294-0.523c0-0.294-0.033-0.327-0.099-0.166c-0.066,0.166,0.065,0.166-0.066,0.492  c-0.131,0.327-0.526-0.129-0.622-0.261c-0.098-0.133-0.23-0.261-0.23-0.163c0,0.097,0.065,0.325-0.197,0.225  c-0.263-0.096-1.671-0.687-2.295-0.814c-0.621-0.131-2.261-0.297-2.622-0.232c-0.36,0.065-0.327,0.46,0.197,0.492  c2.466,0.156,3.145,0.97,3.9,1.43c0.661,0.403,1.245,1.594,1.597,1.738c0.552,0.227,0.005,0.576,0.039,0.64  c0.032,0.066-0.065,0.216,0.05,0.2c0.115-0.015,0.264-0.17,0.33-0.185c0.065-0.015,0.301,0.137,0.383,0.204  c0.082,0.066-0.175,0.176-0.223,0.258c-0.05,0.081,0.079,0.19,0.146,0.159c0.065-0.033,0.122-0.092,0.206-0.159  c0.081-0.065,0.16,0.212,0.16,0.212s-0.063-0.001-0.111,0.064c-0.049,0.067-0.075,0.097-0.026,0.111  c0.05,0.018,0.01,0.015,0.126-0.098c0.115-0.114,0.175,0.375,0.188,0.488c0.007,0.069-0.334,0.03-0.214,0.202  c0.065,0.085,0.238-0.079,0.178-0.039c0.056-0.039,0.149,0.012,0.226,0.178c0.063,0.132-0.151,0.062-0.125,0.15  c0.028,0.098,0.113,0.073,0.113,0.073c0.075,0.139-0.088,0.251,0.087,0.276c0.109,0.016,0.125,0.403,0.075,0.451  c-0.048,0.048-0.322,0.01-0.275,0.15c0.025,0.077,0.137-0.024,0.289-0.048c0.133-0.023,0.031,0.267,0.062,0.4  c0.033,0.133-0.275,0.143-0.326,0.176c-0.05,0.034,0.318-0.036,0.375,0.127c0.059,0.16,0.007,0.181,0.088,0.279  c0.082,0.098,0.175,0.283-0.038,0.378c-0.213,0.1,0.318,0.414,0.318,0.671c0,0.415,0.224,0.319,0.141,0.402  c-0.082,0.081-0.091,0.348,0.026,0.3c0.088-0.04,0.162,0.425,0.184,0.6c0.05,0.383,0.008,0.264-0.042,0.427  c-0.049,0.165,0.115,0.113,0.142,0.326c0.083,0.653,0.294,0.613,0.311,0.877c0.016,0.261-0.109-0.017-0.127,0.343  c-0.016,0.36,0.271,0.444,0.286,0.92c0.016,0.475,0.266,0.277,0.316,1.146c0.052,0.827,0.187,2.19,0.022,2.405  c-0.163,0.212-0.032,0.54,0,0.605c0.034,0.067,0.034,0.525-0.032,0.674c-0.028,0.061-0.059,0.175-0.077,0.298"/>
<g>
	<g>
		<defs>
			<rect id="SVGID_3_" x="73.424" y="195.846" width="238.85" height="168.835"/>
		</defs>
		<clipPath id="SVGID_4_">
			<use xlink:href="#SVGID_3_" overflow="visible"/>
		</clipPath>
		<g clip-path="url(#SVGID_4_)">
			<path fill="#FDECE4" stroke="#E5AB97" stroke-width="0.75" d="M286.98,214.884c-6.91-4.392-15.512-3.661-21.401,1.82     c-2.265,2.105-4.595,4.859-7.063,7.775c-4.012,4.739-8.56,10.11-13.035,12.709c-4.296,2.494-8.823,3.724-13.298,4.408     c-3.845-6.444-19.321-12.384-22.122-13.082c-2.712-0.68-9.911-3.236-19.933-3.244h-0.833     c-10.021,0.008-17.222,2.563-19.933,3.244c-2.794,0.698-18.229,6.619-22.103,13.053c-4.414-0.692-8.871-1.92-13.106-4.379     c-4.476-2.599-9.023-7.97-13.035-12.709c-2.468-2.917-4.8-5.67-7.064-7.775c-5.89-5.481-14.49-6.212-21.402-1.82     c-5.833,3.708-10.769,11.635-7.964,23.073l0.163,1.746c0.275,1.281,0.463,2.693,0.511,4.278     c0.227,7.301,0.665,10.027,2.249,13.211c1.309,2.632,1.74,7.22,1.934,8.393c0.495,2.992-1.458,5.389-1.75,5.656     c-0.293,0.266-0.82,0.555-0.239,0.819c0.881,0.394,1.529-0.627,2.42-1.271c0.889-0.644,1.369-0.611,1.306,0.349     c-0.066,0.959-0.029,2.149,0.565,3.361c0.597,1.216,1.183-0.116,1.531-1.421s0.434-1.234,1-0.336     c0.564,0.897,0.824,1.111,1.29,0.194c0.465-0.923,1.263-0.918,1.316-0.368c0.053,0.551,0.855,1.426,2.008,2.664     c1.154,1.237,0.917-1.203,0.689-1.895c-0.226-0.695-0.232-1.568,0.507-1.321c0.739,0.246,1.381,1.136,1.846,1.804     c0.462,0.671,1.005,0.54,0.829-1.271c-0.178-1.812,0.104-1.363,0.451-1.078c0.346,0.284,0.963,2.464,2.38,3.12     c1.417,0.655,1.733-1.313,0.75-2.405c-0.245-0.276-0.486-1.316-0.524-1.574l0.118-0.192c0.081-1.226,2.105,2.417,2.425,3.283     c0.34,0.917,2.503,2,2.61-0.085c0.185-3.612-1.803-5.716-2.097-6.165c-0.295-0.449-0.925-0.505,0.068-0.604     c0.989-0.097,3.186,0.641,4.022,1.515c1.136,1.185,1.959,0.881,1.009-1.171c-0.722-1.56-0.15-1.537,0.717-1.62     c0.867-0.085,1.52,0.207,1.01-1.173c-0.509-1.379-4.513-3.966-4.92-4.285c-0.405-0.317-0.699-0.768,0.168-0.851     c0.865-0.087,3.883,0.096,5.493-0.063c1.61-0.157,2.083-0.442,1.281-0.96c-0.801-0.517-0.959-0.86,1.268-1.078     c1.115-0.109,1.538-0.268,1.5-0.488l-0.493-1.217c-0.042-0.877-1.537-2.468-2.459-3.272c-1.479-1.285,0.032-1.274,0.584-1.33     c0.551-0.052,1.621,0.32,0.789-0.87c-0.833-1.191-3.16-2.234-4.796-2.708c-1.635-0.474,1.31-0.517,1.916-0.815     c0.608-0.296,1.124-1.364-1.477-1.216c-1.11,0.065-7.686,1.07-11.652-2.118c-3.97-3.188-5.739-3.411-9.229-4.977     c-0.763-0.343-1.746-0.531-2.407-1.455c-4.202-5.876,0.574-14.292,4.488-16.776c4.584-2.915,10.266-2.45,14.137,1.149     c2.004,1.867,4.225,4.488,6.574,7.264c4.324,5.107,9.226,10.897,14.594,14.014c5.026,2.918,9.125,5.589,14.152,6.371     c2.486,1.863,3.785,5.89,7.621,11.289c2.969,4.178,6.292,17.606,6.847,19.757c1.759,6.849,4.942,11.555,6.869,14.815     c3.335,5.644,7.184,16.674,3.67,23.198c-1.792,3.331-3.67,9.639,1.461,16.053c2.484,3.105,2.564,4.874,3.312,13.25     c0.736,8.316-1.342,55.114,7.931,59.756l14.652,0.186c9.274-4.64,5.924-51.626,6.663-59.942     c0.745-8.375,0.828-10.145,3.313-13.25c5.129-6.415,3.253-12.723,1.458-16.053c-3.511-6.523,0.336-17.554,3.671-23.198     c1.927-3.261,5.109-7.967,6.869-14.815c0.554-2.15,3.879-15.579,6.847-19.757c3.826-5.384,5.323-10.421,7.684-11.416     c5.098-0.772,9.202-3.285,14.302-6.245c5.366-3.117,10.268-8.906,14.592-14.014c2.349-2.776,4.568-5.397,6.574-7.264     c3.87-3.6,9.553-4.064,14.139-1.149c3.912,2.485,8.688,10.9,4.486,16.776c-0.661,0.924-1.645,1.111-2.408,1.455     c-3.49,1.565-5.26,1.789-9.229,4.977c-3.967,3.188-10.542,2.183-11.651,2.118c-2.602-0.148-2.084,0.919-1.478,1.216     c0.606,0.298,3.551,0.341,1.915,0.815c-1.635,0.474-3.962,1.518-4.797,2.708c-0.829,1.19,0.239,0.818,0.79,0.87     c0.553,0.056,2.063,0.045,0.584,1.33c-0.923,0.805-2.416,2.396-2.458,3.272l-0.493,1.217c-0.038,0.22,0.385,0.379,1.5,0.488     c2.226,0.218,2.068,0.561,1.27,1.078c-0.802,0.519-0.332,0.804,1.279,0.96c1.609,0.158,4.626-0.025,5.492,0.063     c0.867,0.083,0.573,0.534,0.168,0.851c-0.406,0.318-4.41,2.906-4.921,4.285c-0.509,1.38,0.145,1.088,1.012,1.173     c0.867,0.083,1.438,0.06,0.717,1.62c-0.95,2.053-0.128,2.356,1.01,1.171c0.835-0.874,3.032-1.611,4.021-1.515     c0.992,0.098,0.362,0.155,0.067,0.604c-0.295,0.448-2.282,2.553-2.097,6.165c0.105,2.085,2.27,1.002,2.609,0.085     c0.32-0.865,2.346-4.508,2.427-3.283l0.117,0.192c-0.039,0.258-0.28,1.298-0.526,1.574c-0.981,1.093-0.665,3.06,0.752,2.405     c1.416-0.656,2.032-2.836,2.38-3.12c0.346-0.285,0.628-0.734,0.45,1.078c-0.178,1.812,0.367,1.942,0.829,1.271     c0.464-0.668,1.108-1.558,1.845-1.804c0.741-0.247,0.732,0.626,0.509,1.321c-0.229,0.692-0.467,3.131,0.688,1.895     c1.151-1.237,1.954-2.112,2.009-2.664c0.054-0.55,0.849-0.555,1.314,0.368c0.467,0.917,0.726,0.704,1.29-0.194     c0.565-0.898,0.651-0.969,1,0.336s0.934,2.637,1.531,1.421c0.595-1.211,0.632-2.401,0.566-3.361     c-0.064-0.96,0.415-0.993,1.305-0.349c0.891,0.644,1.537,1.665,2.42,1.271c0.582-0.264,0.054-0.553-0.238-0.819     c-0.291-0.267-2.245-2.664-1.751-5.656c0.192-1.173,0.626-5.761,1.935-8.393c1.583-3.184,2.021-5.91,2.247-13.211     c0.05-1.585,0.237-2.997,0.512-4.278l0.164-1.746C297.749,226.52,292.813,218.592,286.98,214.884z"/>
			
				<radialGradient id="SVGID_5_" cx="189.8564" cy="353.1787" r="32.4018" gradientTransform="matrix(1.0651 0 0 1.0349 -20.9683 -11.6027)" gradientUnits="userSpaceOnUse">
				<stop offset="0" style="stop-color:#FFFFFF"/>
				<stop offset="0.3202" style="stop-color:#F7E4D1"/>
				<stop offset="1" style="stop-color:#E3B6AD"/>
			</radialGradient>
			<path fill="url(#SVGID_5_)" stroke="#E5AB97" stroke-width="0.6257" d="M190.176,323.233c-0.063,0.32-0.169,0.699-0.334,1.16     c-0.718,2.034-0.128,2.351,0.068,3.304c0.193,0.953,0.775,4.249,2.215,5.395c1.438,1.143,3.779,2.284,6.854-0.284     c3.128-2.609,5.216-5.392,5.849-6.212c1.045-1.356,2.789-1.439,2.18,1.102c-0.611,2.543-4.665,7.288-5.407,7.713     c-1.485,0.847-1.079,3.594-1.485,4.152c-0.522,0.72-0.261,1.695,0,2.374c0.263,0.676-0.348,2.794-0.609,3.136     c-0.263,0.338-0.873,2.964,0.087,4.237c0.96,1.27,0.175,3.814-0.263,4.237c-0.434,0.423-0.434,2.626,0.263,3.813     c0.698,1.188,0.262,2.797-0.087,3.39c-0.349,0.594,0.087,2.543,0.349,2.882c0.261,0.34-0.173,2.882-0.524,3.305     c-0.348,0.424-0.26,2.118,0.176,3.052c0.436,0.931,0.181,3.308-0.085,3.644c-0.47,0.594-0.194,1.238-0.091,1.524     c0.524,1.441-0.608,2.12,0,3.392c0.611,1.272-0.697,2.203-0.087,3.561c0.611,1.356-0.173,3.22-0.435,3.728     c-0.263,0.509-0.348,1.95,0.174,2.966c0.523,1.018,0.175,2.372,0,2.798c-0.174,0.424-0.699,1.524-0.699,2.541     c0,1.018,0.178,2.203,0.525,2.712c0.349,0.51,0.349,1.782,0,2.629c-0.348,0.846-0.525,2.541-0.525,3.049     c0,0.51-0.61,1.78-1.306,2.289c-0.699,0.509-0.438,1.951,0.695,2.202c-0.87,0.765-7.653,3.719-14.815-0.125     c1.438,0.542,1.731-1.144,0.687-2.417c-1.047-1.27-1.827-2.9-1.338-4.912c0.347-1.398-0.32-2.715-0.582-3.393     c-0.261-0.678-0.874-2.879,0.175-4.746c0.802-1.432,0.171-4.747-0.175-4.998c-0.349-0.257-1.384-3.136-0.787-4.92     c0.723-2.141,0.176-3.05-0.085-3.472c-0.262-0.422-0.612-3.137-0.177-3.728c0.438-0.596-0.085-2.884-0.261-3.223     c-0.174-0.338,1.009-2.914-0.273-4.636c-0.435-0.588,0.45-2.397,0.099-2.906c-0.35-0.511-0.173-1.695,0.174-2.374     c0.349-0.679,0.176-2.203-0.174-2.542c-0.35-0.34-0.259-1.864,0-2.203c0.264-0.339,0.264-2.118-0.087-3.138     c-0.345-1.016-0.434-3.219,0.177-4.236c0.608-1.018,0.959-3.135,0.346-4.324c-0.609-1.186-0.992-2.034-0.868-4.661     c0.083-1.906-0.834-1.906-1.311-2.794c-0.204-0.377-0.872-1.865-1.484-2.544c-0.61-0.679-3.482-4.949-3.75-5.508     c-0.61-1.272-0.037-3.56,1.656-2.119c0.412,0.348,2.449,3.37,6.119,5.466c1.818,1.037,4.287,2.454,6.381,0.61     c2.095-1.842,1.675-4.467,1.545-5.229c-0.131-0.762,0.915-2.033,0.392-3.813c-0.089-0.3-0.156-0.576-0.216-0.833"/>
			<path fill="none" stroke="#E5AB97" stroke-width="0.75" stroke-linecap="round" stroke-linejoin="round" d="M159.414,396.659     c1.874,4.26,9.959,17.515,23.927,10.531"/>
			<path fill="#E5AB97" stroke="#E5AB97" stroke-width="0.75" stroke-linecap="round" stroke-linejoin="round" d="M189.737,309.267     c0.051,0.468,0.136,0.811,0.262,0.975c0.64,0.829,0.129,2.107,0,2.362c-0.128,0.255-0.254,2.045,0,2.619     c0.257,0.575,0.446,2.235,0,2.812c-0.448,0.574-0.383,1.597,0,2.363c0.385,0.766,0.462,1.709,0,3.323     c-0.51,1.79,0.129,3.068,0,3.834c-0.128,0.766,0.296,3.605,2.558,5.187c1.926,1.347,4.919,0.917,6.694-0.125     c-2.112,2.111-5.859,2.819-9.197,2.982h-1.119c-3.337-0.163-5.687-1.236-7.954-2.735l-0.745-0.745     c0.081,0.049,0.706,0.029,0.787,0.079c1.773,1.042,3.647,1.699,5.763,0.642c2.469-1.235,2.51-4.518,2.382-5.284     c-0.127-0.766,0.511-2.044,0-3.834c-0.46-1.613-0.384-2.557,0-3.323c0.381-0.766,0.446-1.789,0-2.363     c-0.447-0.576-0.255-2.236,0-2.812c0.255-0.574,0.128-2.364,0-2.619c-0.127-0.255-0.639-1.533,0-2.362     c0.125-0.165,0.21-0.503,0.261-0.966L189.737,309.267z"/>
			<path fill="none" stroke="#E5AB97" stroke-width="0.75" stroke-linecap="round" stroke-linejoin="round" d="M158.484,247.723     c9.693,3.356,12.441,9.868,16.095,16.199c0.547,0.948,7.24,15.307,8.868,24.257c1.161,6.39,3.37,10.712,4.173,16.171     c0.503,3.413-0.822,6.019-0.267,7.935c0.382,1.322-0.333,2.538-0.384,2.938c-0.172,1.364,0,3.067,0.257,3.579     c0.254,0.51-0.944,3.708-0.259,5.175c1.146,2.456,0.329,7.44-1.887,7.866"/>
			<path fill="none" stroke="#E5AB97" stroke-width="0.75" stroke-linecap="round" stroke-linejoin="round" d="M217.896,245.485     c-6.713,0.996-10.067,0.25-12.305,0.499c-1.92,0.212-8.579,0.26-15.463,0.53h-0.833c-6.885-0.27-13.816-0.622-15.698-1.056     c-1.35-0.309-11.976,0.163-15.859-0.595"/>
			<path fill="none" stroke="#E5AB97" stroke-width="0.75" stroke-linecap="round" stroke-linejoin="round" d="M194.342,331.842     c-2.214-0.426-3.033-5.411-1.885-7.866c0.682-1.467-0.516-4.665-0.26-5.175c0.256-0.512,0.428-2.215,0.256-3.579     c-0.05-0.401-0.766-1.617-0.384-2.938c0.556-1.916-0.77-4.522-0.265-7.935c0.804-5.459,3.011-9.782,4.173-16.171     c1.627-8.95,8.32-23.309,8.867-24.257c3.91-6.78,6.7-9.585,8.451-11.725c1.118-1.367,4.78-4.302,5.469-4.598"/>
			<path fill="none" stroke="#E5AB97" stroke-width="0.75" stroke-linecap="round" stroke-linejoin="round" d="M220.01,396.659     c-1.873,4.26-8.652,17.515-22.623,10.531"/>
			<g>
				<g>
					<path fill="#E5AB97" d="M193.841,340.056c2.113,0.043,4.776-0.107,6.142-1.985c0.12-0.166-0.117-0.402-0.283-0.283       c-0.875,0.629-1.608,1.18-2.655,1.514c-1.027,0.329-2.133,0.388-3.203,0.426C193.63,339.735,193.629,340.052,193.841,340.056       L193.841,340.056z"/>
				</g>
			</g>
			<g>
				<g>
					<path fill="#E5AB97" d="M193.359,346.844c1.627-0.037,4.169-0.361,5.128-1.875c0.079-0.125-0.078-0.283-0.203-0.203       c-1.554,0.999-3.077,1.609-4.925,1.835C193.209,346.62,193.199,346.847,193.359,346.844L193.359,346.844z"/>
				</g>
			</g>
			<g>
				<g>
					<path fill="#E5AB97" d="M193.969,355.496c2.044-0.289,4.286-0.695,5.405-2.626c0.102-0.176-0.126-0.332-0.27-0.208       c-0.882,0.756-1.474,1.514-2.601,1.953c-0.832,0.324-1.724,0.496-2.6,0.648C193.749,355.29,193.817,355.518,193.969,355.496       L193.969,355.496z"/>
				</g>
			</g>
			<g>
				<g>
					<path fill="#E5AB97" d="M194.417,361.217c1.715,0.032,3.481-0.548,4.572-1.938c0.164-0.209-0.085-0.466-0.293-0.293       c-1.305,1.083-2.548,1.81-4.279,1.91C194.212,360.908,194.209,361.213,194.417,361.217L194.417,361.217z"/>
				</g>
			</g>
			<g>
				<g>
					<path fill="#E5AB97" d="M194.032,368.711c1.565-0.023,3.829-0.318,4.94-1.56c0.116-0.13,0.006-0.365-0.179-0.307       c-0.741,0.232-1.401,0.713-2.138,0.988c-0.836,0.313-1.741,0.473-2.624,0.574C193.842,368.428,193.831,368.714,194.032,368.711       L194.032,368.711z"/>
				</g>
			</g>
			<g>
				<g>
					<path fill="#E5AB97" d="M193.841,374.89c1.67,0.088,3.793,0.069,4.835-1.487c0.169-0.251-0.191-0.489-0.398-0.308       c-1.325,1.164-2.707,1.34-4.437,1.451C193.62,374.561,193.619,374.878,193.841,374.89L193.841,374.89z"/>
				</g>
			</g>
			<g>
				<g>
					<path fill="#E5AB97" d="M193.455,382.654c1.633-0.131,4.135-0.531,4.979-2.163c0.086-0.167-0.093-0.376-0.268-0.267       c-0.815,0.507-1.445,1.136-2.362,1.505c-0.768,0.309-1.573,0.5-2.387,0.642C193.256,382.398,193.293,382.667,193.455,382.654       L193.455,382.654z"/>
				</g>
			</g>
			<g>
				<g>
					<path fill="#E5AB97" d="M192.877,388.486c1.624,0.021,3.736-0.11,4.725-1.626c0.127-0.194-0.126-0.45-0.32-0.32       c-0.745,0.496-1.36,0.987-2.229,1.272c-0.703,0.231-1.474,0.353-2.205,0.459C192.723,388.29,192.758,388.485,192.877,388.486       L192.877,388.486z"/>
				</g>
			</g>
			<g>
				<g>
					<path fill="#E5AB97" d="M192.936,398.908c1.368,0.355,3.331-0.25,4.342-1.227c0.195-0.188-0.054-0.495-0.284-0.368       c-1.188,0.653-2.604,1.496-4.02,1.311C192.81,398.603,192.781,398.869,192.936,398.908L192.936,398.908z"/>
				</g>
			</g>
			<g>
				<g>
					<path fill="#E5AB97" d="M185.663,339.824c-1.087-0.039-2.152-0.143-3.205-0.424c-1.049-0.281-1.799-0.896-2.656-1.513       c-0.166-0.119-0.404,0.118-0.283,0.283c1.365,1.878,4.031,2.026,6.145,1.982C185.875,340.147,185.874,339.831,185.663,339.824       L185.663,339.824z"/>
				</g>
			</g>
			<g>
				<g>
					<path fill="#E5AB97" d="M186.079,346.702c-1.798-0.33-3.32-0.861-4.865-1.839c-0.125-0.079-0.282,0.078-0.203,0.203       c0.941,1.49,3.449,1.746,5.035,1.874C186.183,346.951,186.213,346.727,186.079,346.702L186.079,346.702z"/>
				</g>
			</g>
			<g>
				<g>
					<path fill="#E5AB97" d="M185.373,355.356c-1.071-0.11-2.03-0.391-2.99-0.881c-0.827-0.422-1.294-1.152-1.987-1.718       c-0.147-0.12-0.368,0.028-0.27,0.208c1.001,1.831,3.304,2.497,5.247,2.632C185.53,355.609,185.526,355.372,185.373,355.356       L185.373,355.356z"/>
				</g>
			</g>
			<g>
				<g>
					<path fill="#E5AB97" d="M185.128,360.902c-0.757-0.109-1.5-0.248-2.229-0.479c-0.828-0.262-1.434-0.804-2.092-1.342       c-0.167-0.137-0.479,0.05-0.325,0.251c1.114,1.462,2.878,1.771,4.604,1.885C185.264,361.229,185.307,360.928,185.128,360.902       L185.128,360.902z"/>
				</g>
			</g>
			<g>
				<g>
					<path fill="#E5AB97" d="M185.471,368.504c-0.858-0.109-1.702-0.307-2.524-0.574c-0.784-0.255-1.463-0.75-2.238-0.99       c-0.184-0.057-0.297,0.177-0.179,0.307c1.099,1.211,3.395,1.52,4.941,1.562C185.673,368.814,185.66,368.528,185.471,368.504       L185.471,368.504z"/>
				</g>
			</g>
			<g>
				<g>
					<path fill="#E5AB97" d="M185.663,374.641c-1.73-0.111-3.113-0.283-4.438-1.451c-0.207-0.182-0.567,0.056-0.399,0.308       c1.041,1.56,3.167,1.575,4.836,1.487C185.885,374.973,185.884,374.655,185.663,374.641L185.663,374.641z"/>
				</g>
			</g>
			<g>
				<g>
					<path fill="#E5AB97" d="M185.989,382.359c-0.864-0.158-1.714-0.341-2.544-0.632c-0.854-0.3-1.367-0.966-2.111-1.407       c-0.18-0.107-0.346,0.098-0.267,0.267c0.787,1.686,3.292,1.917,4.884,2.056C186.113,382.657,186.149,382.388,185.989,382.359       L185.989,382.359z"/>
				</g>
			</g>
			<g>
				<g>
					<path fill="#E5AB97" d="M186.528,388.461c-0.739-0.07-1.479-0.257-2.178-0.505c-0.82-0.291-1.419-0.853-2.129-1.321       c-0.196-0.13-0.445,0.125-0.32,0.32c0.932,1.46,3.035,1.829,4.628,1.725C186.67,388.671,186.668,388.475,186.528,388.461       L186.528,388.461z"/>
				</g>
			</g>
			<g>
				<g>
					<path fill="#E5AB97" d="M186.624,398.719c-1.5-0.04-2.824-0.601-4.116-1.309c-0.23-0.126-0.48,0.18-0.284,0.368       c1.09,1.043,2.955,1.369,4.399,1.23C186.807,398.991,186.813,398.724,186.624,398.719L186.624,398.719z"/>
				</g>
			</g>
			<g>
				<g>
					<path fill="#E5AB97" d="M202.629,326.167c-2,2.321-5.158,5.191-8.287,5.417c-0.182,0.013-0.338,0.213-0.223,0.388       c1.469,2.223,7.8-4.594,8.65-5.697C202.832,326.195,202.695,326.09,202.629,326.167L202.629,326.167z"/>
				</g>
			</g>
			<g>
				<g>
					<path fill="#E5AB97" d="M176.333,325.708c0.992,1.696,2.563,3.166,4.004,4.469c1.102,0.996,3.322,2.921,4.936,1.993       c0.389-0.224,0.117-0.773-0.292-0.692c-1.873,0.368-3.796-1.315-5.126-2.432c-1.187-0.997-2.468-2.147-3.333-3.448       C176.444,325.481,176.26,325.585,176.333,325.708L176.333,325.708z"/>
				</g>
			</g>
			<g>
				<g>
					<path fill="#E5AB97" d="M169.846,323.981c-0.764,2.244-0.474,4.195,0.486,6.327c1.068,2.371,3.124,4.027,4.135,6.445       c0.066,0.158,0.313,0.103,0.264-0.072c-0.408-1.439-1.221-2.572-2.135-3.737c-2.032-2.592-3.263-5.56-2.479-8.888       C170.159,323.878,169.904,323.811,169.846,323.981L169.846,323.981z"/>
				</g>
			</g>
			<path fill="#E5AB97" stroke="#E5AB97" stroke-width="0.75" d="M289.343,218.852c-4.053-3.809-8.219-5.609-12.382-5.352     c-7.737,0.479-13.934,7.946-18.46,13.397l-1.776,2.118c-6.54,7.63-11.562,10.616-18.543,13.455     c-4.961,2.019-9.851,2.138-14.163,2.243l-2.208,0.274l0.005,0.049c-2.358,0.234-5.18,0.669-6.621,1.086     c-2.38,0.691-7.897,2.493-8.921,2.877c-1.021,0.382-0.768-0.512-0.768-0.894c0-0.384-0.51,0.125-0.895,0.639     c-0.382,0.511-1.915,2.3-2.427,1.023c-0.511-1.28,0-1.28-0.255-1.917c-0.256-0.641-0.383-0.513-0.383,0.636     c0,1.15-0.384,2.301-1.151,2.046s-1.021-1.534-1.276-0.384c-0.256,1.15-1.023,0.896-1.663,0.896c-0.638,0-0.765,0-0.765-2.172     s-0.385-0.513-0.385,0.127c0,0.638,0.512,1.915-0.255,2.045c-0.767,0.127-0.896,0.127-1.534,0.638     c-0.638,0.512-0.893,0-0.893-0.383c0-0.385-0.384-1.917-0.384-0.766c0,1.149,0.384,0.766-0.896,1.022     c-1.275,0.255-1.899-0.127-2.281,0c-0.384,0.127,0-0.383,0-0.895c0-0.512,0-1.534,0-2.046c0,0-0.137-0.648-0.522-0.638     c-0.385,0.005-0.312,0.638-0.312,0.638c0,0.512,0,1.534,0,2.046c0,0.511,0.384,1.022,0,0.895c-0.381-0.127-1.003,0.255-2.281,0     c-1.279-0.256-0.893,0.127-0.893-1.022c0-1.151-0.386,0.381-0.386,0.766c0,0.383-0.255,0.896-0.892,0.383     c-0.641-0.511-0.767-0.511-1.535-0.638c-0.767-0.13-0.252-1.407-0.252-2.045c0-0.641-0.385-2.3-0.385-0.127     s-0.13,2.172-0.767,2.172s-1.404,0.255-1.664-0.896c-0.252-1.149-0.508,0.129-1.274,0.384c-0.767,0.255-1.151-0.896-1.151-2.046     c0-1.149-0.128-1.277-0.384-0.636c-0.255,0.636,0.256,0.636-0.255,1.917c-0.511,1.277-2.043-0.512-2.429-1.023     c-0.381-0.513-0.893-1.023-0.893-0.639c0,0.381,0.256,1.276-0.766,0.894c-1.023-0.385-4.323-2.237-8.945-3.193     c-1.337-0.278-8.65-1.094-8.65-1.094c-4.313-0.105-9.201-0.225-14.164-2.243c-6.978-2.839-12.001-5.824-18.541-13.455     l-1.776-2.118c-4.525-5.451-10.723-12.917-18.459-13.397c-4.165-0.258-8.33,1.543-12.383,5.352     c-5.202,4.888-4.94,11.917-4.737,13.957c0.173,1.73,1.095,4.461,2.491,7.498c-0.315,1.392-1.04,3.173-1.005,4.31     c0.226,7.302,0.406,8.996,1.989,12.18c1.309,2.631,1.547,8.025,1.741,9.196c0.496,2.992-2.56,5.106-2.85,5.373     c-0.293,0.266-0.821,0.556-0.239,0.819c0.881,0.392,1.529-0.629,2.418-1.271c0.891-0.646,1.37-0.612,1.308,0.349     c-0.067,0.961-0.031,2.149,0.566,3.36c0.595,1.215,1.181-0.115,1.53-1.419c0.347-1.307,0.435-1.236,1-0.338     c0.566,0.899,0.822,1.114,1.289,0.193c0.466-0.921,1.262-0.918,1.317-0.368c0.054,0.552,0.857,1.428,2.008,2.665     c1.155,1.236,0.917-1.203,0.688-1.895c-0.225-0.695-0.231-1.568,0.508-1.321c0.739,0.244,1.381,1.134,1.847,1.803     c0.461,0.671,1.004,0.539,0.828-1.271c-0.178-1.812,0.104-1.361,0.45-1.078c0.346,0.287,0.963,2.466,2.38,3.121     c1.415,0.657,1.732-1.311,0.75-2.408c-0.246-0.275-0.486-1.313-0.525-1.574l0.119-0.19c0.08-1.226,2.105,2.417,2.424,3.282     c0.341,0.92,2.504,2.001,2.612-0.085c0.183-3.611-1.805-5.715-2.1-6.163c-0.293-0.448-0.923-0.507,0.068-0.604     c0.99-0.096,3.186,0.642,4.022,1.514c1.137,1.186,1.962,0.881,1.011-1.171c-0.724-1.561-0.153-1.536,0.716-1.621     c0.867-0.084,1.521,0.209,1.01-1.172c-0.51-1.38-4.514-3.967-4.918-4.285c-0.408-0.319-0.702-0.768,0.167-0.851     c0.865-0.087,3.883,0.097,5.492-0.061c1.611-0.157,2.082-0.443,1.28-0.962c-0.798-0.517-0.959-0.859,1.269-1.078     c1.116-0.109,1.537-0.269,1.499-0.488l-0.491-1.217c-0.042-0.878-1.538-2.468-2.459-3.271c-1.479-1.286,0.032-1.276,0.584-1.328     c0.55-0.053,1.62,0.316,0.789-0.873c-0.832-1.191-3.159-2.234-4.795-2.708c-1.636-0.474,1.31-0.516,1.916-0.816     c0.608-0.295,1.101-0.626-1.499-0.479c-1.109,0.065-8.338,1.698-12.304-1.49c-3.969-3.188-5.833-3.531-9.323-5.097     c-0.694-0.311-2.647-0.937-3.496-1.742c-0.897-2.13-1.483-3.99-1.606-5.217c-0.175-1.752-0.408-7.79,3.965-11.896     c3.585-3.369,7.029-4.899,10.528-4.682c6.663,0.413,12.229,7.115,16.7,12.505l1.803,2.146     c6.869,8.015,12.149,11.153,19.492,14.14c5.382,2.188,10.739,2.319,15.041,2.426c0,0,10.698,0.647,14.453,5.209     c1.914,2.328,4.853,6.221,6.226,6.783c2.151,0.879,0.021,2.236,0.147,2.493c0.125,0.257-0.252,0.844,0.196,0.782     c0.447-0.06,1.027-0.664,1.283-0.726c0.257-0.063,1.179,0.538,1.498,0.794c0.315,0.255-0.679,0.688-0.873,1.005     c-0.196,0.318,0.312,0.744,0.565,0.619c0.256-0.125,0.481-0.363,0.803-0.616c0.32-0.255,0.636,0.83,0.636,0.83     s-0.248-0.01-0.442,0.245c-0.193,0.255-0.288,0.375-0.098,0.441c0.191,0.063,0.039,0.051,0.49-0.393     c0.451-0.442,0.684,1.466,0.733,1.909c0.032,0.269-1.306,0.116-0.831,0.78c0.195,0.277,0.66-0.081,0.721-0.153     c0.225-0.113,0.564,0.087,0.842,0.694c0.247,0.534-0.587,0.245-0.487,0.587c0.111,0.387,0.441,0.293,0.441,0.293     c0.291,0.536-0.344,0.977,0.341,1.074c0.426,0.062,0.486,1.568,0.293,1.76c-0.192,0.193-1.256,0.046-1.076,0.587     c0.097,0.294,0.536-0.097,1.125-0.195c0.519-0.086,0.118,1.054,0.245,1.564c0.127,0.511-1.08,0.557-1.272,0.685     c-0.19,0.127,1.241-0.142,1.467,0.489c0.227,0.633,0.024,0.715,0.343,1.098c0.32,0.383,0.682,1.095-0.148,1.479     c-0.832,0.381,1.24,1.608,1.24,2.607c0,1.626,0.871,1.25,0.551,1.571s-0.356,1.364,0.1,1.168     c0.343-0.147,0.629,1.667,0.718,2.348c0.194,1.498,0.028,1.024-0.163,1.663c-0.192,0.637,0.449,0.437,0.553,1.272     c0.33,2.542,1.142,2.399,1.207,3.421c0.063,1.023-0.425-0.069-0.487,1.338c-0.065,1.406,1.044,1.734,1.106,3.586     c0.063,1.854,1.212,1.086,1.414,4.467c0.151,2.5,0.452,6.259,0.283,8.211l0.262-0.092c-0.154-1.977,0.141-5.658,0.289-8.119     c0.206-3.381,1.35-2.613,1.415-4.467c0.063-1.852,1.172-2.18,1.108-3.586c-0.063-1.407-0.553-0.315-0.49-1.338     c0.064-1.022,0.883-0.879,1.208-3.421c0.105-0.835,0.745-0.635,0.555-1.272c-0.192-0.639-0.361-0.165-0.165-1.663     c0.09-0.681,0.375-2.495,0.716-2.348c0.459,0.196,0.425-0.848,0.104-1.168s0.549,0.056,0.549-1.571     c0-0.999,2.07-2.226,1.24-2.607c-0.831-0.384-0.465-1.097-0.149-1.479c0.32-0.383,0.117-0.465,0.346-1.098     c0.228-0.63,1.659-0.361,1.466-0.489c-0.189-0.128-1.398-0.173-1.271-0.685c0.128-0.511-0.274-1.65,0.244-1.564     c0.588,0.098,1.027,0.489,1.125,0.195c0.181-0.542-0.885-0.395-1.074-0.587c-0.192-0.192-0.131-1.698,0.293-1.76     c0.684-0.097,0.048-0.539,0.342-1.074c0,0,0.329,0.094,0.439-0.293c0.099-0.342-0.733-0.053-0.488-0.587     c0.28-0.607,0.619-0.807,0.843-0.694c0.061,0.073,0.525,0.43,0.723,0.153c0.474-0.664-0.86-0.511-0.833-0.78     c0.05-0.442,0.285-2.351,0.737-1.909c0.447,0.444,0.294,0.456,0.485,0.393c0.192-0.066,0.097-0.186-0.098-0.441     c-0.194-0.255-0.439-0.245-0.439-0.245s0.314-1.085,0.635-0.83c0.321,0.253,0.548,0.49,0.803,0.616     c0.257,0.125,0.761-0.301,0.567-0.619c-0.192-0.317-1.19-0.75-0.873-1.005c0.318-0.256,1.241-0.856,1.497-0.794     c0.256,0.062,0.835,0.666,1.283,0.726c0.448,0.062,0.071-0.525,0.195-0.782c0.127-0.256-2.005-1.614,0.148-2.493     c1.375-0.563,3.649-5.215,6.227-6.783c2.727-1.659,5.216-4.522,13.226-5.408l1.471-0.085c4.302-0.107,9.563,0.045,14.948-2.143     c7.341-2.987,12.621-6.125,19.491-14.14l1.801-2.146c4.473-5.39,10.038-12.092,16.701-12.505     c3.501-0.218,6.944,1.313,10.528,4.682c4.371,4.106,4.141,10.144,3.964,11.896c-0.121,1.228-0.709,3.087-1.604,5.217     c-0.849,0.805-2.803,1.432-3.496,1.742c-3.49,1.566-5.354,1.91-9.322,5.097c-3.968,3.188-11.196,1.555-12.306,1.49     c-2.602-0.147-2.107,0.184-1.499,0.479c0.607,0.3,3.553,0.342,1.917,0.816c-1.636,0.474-3.964,1.518-4.798,2.708     c-0.829,1.188,0.24,0.819,0.79,0.873c0.553,0.052,2.062,0.042,0.584,1.328c-0.922,0.803-2.418,2.394-2.46,3.271l-0.491,1.217     c-0.037,0.219,0.385,0.379,1.499,0.488c2.228,0.218,2.068,0.561,1.27,1.078c-0.801,0.519-0.33,0.805,1.279,0.962     c1.609,0.158,4.628-0.026,5.493,0.061c0.868,0.083,0.574,0.532,0.168,0.851c-0.405,0.318-4.409,2.904-4.92,4.285     c-0.51,1.381,0.144,1.088,1.01,1.172c0.868,0.085,1.439,0.061,0.717,1.621c-0.951,2.052-0.126,2.356,1.01,1.171     c0.835-0.873,3.032-1.61,4.023-1.514c0.991,0.097,0.361,0.156,0.066,0.604c-0.294,0.448-2.281,2.552-2.097,6.163     c0.106,2.086,2.271,1.005,2.61,0.085c0.319-0.865,2.346-4.507,2.425-3.282l0.116,0.19c-0.038,0.261-0.279,1.299-0.524,1.574     c-0.981,1.097-0.666,3.064,0.751,2.408c1.416-0.655,2.033-2.834,2.38-3.121c0.347-0.283,0.628-0.734,0.45,1.078     c-0.176,1.811,0.368,1.942,0.828,1.271c0.465-0.669,1.108-1.559,1.848-1.803c0.738-0.247,0.731,0.625,0.506,1.321     c-0.228,0.691-0.466,3.131,0.688,1.895c1.153-1.237,1.955-2.113,2.011-2.665c0.052-0.55,0.848-0.553,1.315,0.368     c0.466,0.921,0.724,0.706,1.289-0.193c0.565-0.898,0.65-0.969,1,0.338c0.348,1.304,0.934,2.634,1.531,1.419     c0.595-1.21,0.63-2.399,0.565-3.36c-0.063-0.961,0.417-0.995,1.306-0.349c0.892,0.642,1.538,1.663,2.418,1.271     c0.584-0.264,0.057-0.554-0.236-0.819c-0.29-0.267-3.348-2.381-2.851-5.373c0.194-1.171,0.431-6.565,1.741-9.196     c1.582-3.185,1.761-4.878,1.988-12.18c0.035-1.136-0.689-2.917-1.006-4.31c1.396-3.036,2.317-5.768,2.49-7.498     C294.283,230.77,294.545,223.74,289.343,218.852z"/>
			<g>
				<g>
					<path fill="#E5AB97" d="M210.032,325.53c0.254,3.736-2.546,5.121-4.354,7.83c-1.206,1.808-1.938,3.903-1.88,6.091       c0.009,0.332,0.514,0.42,0.591,0.08c0.364-1.597,0.569-3.094,1.278-4.597c0.703-1.491,1.938-2.645,2.94-3.928       c1.285-1.644,1.84-3.43,1.486-5.484C210.088,325.487,210.03,325.495,210.032,325.53L210.032,325.53z"/>
				</g>
			</g>
			<g>
				<g>
					<path fill="#BB93C3" stroke="#BB93C3" d="M248.552,265.376c0.229,0.083,0.442,0.145,0.632,0.182       c-0.308-1.236,2.649-3.502,3.835-2.447c1.183,1.057-0.401,0.007,0.314-0.247c0.716-0.257,2.337-1.372,3.23-0.751       c0.477-0.171,6.27-0.896,7.779,0.315c1.201-0.026,3.934,1.168,4.12,2.445c2.29-0.108,5.773,4.917,4.855,6.859       c0.903,1.023,0.076,3.606-1.041,3.87c0.138,0.757-0.561,5.581-4.992,4.474c-0.783,0.818-5.104,3.067-8.359,0.057       c-2.492,0.812-4.17-2.169-5.275-2.449c-3.182-0.811-4.313-4.918-4.534-5.915c-0.442-0.111-2.438-1.549-0.912-3.304       c-0.077-0.125-0.209-0.275-0.391-0.454"/>
					<linearGradient id="SVGID_6_" gradientUnits="userSpaceOnUse" x1="229.9941" y1="259.8145" x2="248.5518" y2="259.8145">
						<stop offset="0.0056" style="stop-color:#FAD6C7"/>
						<stop offset="1" style="stop-color:#D4BDDC"/>
					</linearGradient>
					<path fill="url(#SVGID_6_)" d="M247.813,268.01c-2.689-2.657-16.072-10.971-17.819-13.534l1.738-2.858       c0.477,2.012,12.28,12.12,16.819,13.758"/>
				</g>
				<path fill="none" d="M231.815,251.7c0.501,2.116,13.507,13.171,17.451,13.94c-0.308-1.236,2.65-3.502,3.833-2.447      c1.185,1.057-0.4,0.007,0.315-0.248c0.718-0.256,2.337-1.372,3.231-0.75c0.477-0.171,6.27-0.896,7.78,0.316      c1.199-0.027,3.932,1.167,4.118,2.445c2.291-0.108,5.774,4.917,4.854,6.859c0.904,1.021,0.077,3.603-1.039,3.869      c0.138,0.759-0.563,5.582-4.992,4.475c-0.784,0.817-5.103,3.068-8.36,0.057c-2.491,0.811-4.17-2.167-5.275-2.45      c-3.182-0.809-4.313-4.917-4.534-5.913c-0.442-0.112-2.436-1.551-0.914-3.305c-1.24-1.978-16.344-11.255-18.209-13.989"/>
			</g>
			<g>
				<g>
					<path fill="#BB93C3" d="M131.038,266.122c-0.231,0.083-0.443,0.143-0.634,0.182c0.308-1.237-2.65-3.505-3.834-2.447       c-1.185,1.057,0.401,0.007-0.314-0.25c-0.717-0.255-2.336-1.371-3.231-0.75c-0.478-0.17-6.27-0.894-7.781,0.314       c-1.199-0.025-3.932,1.168-4.118,2.445c-2.291-0.108-5.773,4.919-4.854,6.86c-0.903,1.022-0.076,3.604,1.038,3.868       c-0.136,0.759,0.564,5.582,4.994,4.477c0.785,0.817,5.103,3.065,8.36,0.057c2.491,0.809,4.17-2.169,5.274-2.45       c3.184-0.811,4.314-4.917,4.536-5.915c0.442-0.111,2.437-1.55,0.914-3.305c0.077-0.124,0.209-0.274,0.388-0.453"/>
					
						<linearGradient id="SVGID_7_" gradientUnits="userSpaceOnUse" x1="432.6328" y1="260.5596" x2="451.1895" y2="260.5596" gradientTransform="matrix(-1 0 0 1 582.2266 0)">
						<stop offset="0.0056" style="stop-color:#FAD6C7"/>
						<stop offset="1" style="stop-color:#D4BDDC"/>
					</linearGradient>
					<path fill="url(#SVGID_7_)" d="M131.773,268.756c2.692-2.657,16.072-10.971,17.82-13.534l-1.739-2.859       c-0.478,2.014-12.28,12.123-16.817,13.759"/>
				</g>
				<path fill="none" d="M147.771,252.446c-0.5,2.115-13.505,13.168-17.449,13.94c0.306-1.236-2.65-3.504-3.834-2.446      c-1.185,1.056,0.4,0.007-0.315-0.25c-0.715-0.255-2.336-1.372-3.229-0.75c-0.478-0.17-6.272-0.896-7.782,0.315      c-1.2-0.026-3.931,1.17-4.118,2.445c-2.291-0.108-5.774,4.917-4.854,6.861c-0.903,1.021-0.077,3.604,1.038,3.868      c-0.136,0.758,0.563,5.583,4.995,4.474c0.783,0.818,5.102,3.067,8.358,0.058c2.492,0.811,4.169-2.169,5.274-2.45      c3.184-0.811,4.313-4.917,4.535-5.915c0.443-0.109,2.438-1.549,0.913-3.304c1.242-1.976,16.345-11.254,18.209-13.987"/>
			</g>
		</g>
	</g>
</g>
<line fill="none" stroke="#333333" stroke-width="0.75" stroke-dasharray="5,2" x1="107.655" y1="105.042" x2="288.729" y2="215.852"/>
<text transform="matrix(1 0 0 1 312.2734 283.2637)" fill="#333333" font-family="Liberation Sans, Helvetica, Arial, sans-serif" font-size="14.1">Ovaries</text>
<text transform="matrix(1 0 0 1 272.3545 154.6147)" fill="#333333" font-family="Liberation Sans, Helvetica, Arial, sans-serif" font-size="14.1">Fallopian tube</text>
<text transform="matrix(1 0 0 1 261.3945 303.3228)"><tspan x="0" y="0" fill="#333333" font-family="Liberation Sans, Helvetica, Arial, sans-serif" font-size="14.1">Lining of womb</tspan><tspan x="4.71" y="13.587" fill="#333333" font-family="Liberation Sans, Helvetica, Arial, sans-serif" font-size="14.1">(endometrium)</tspan></text>
<text transform="matrix(1 0 0 1 252.4492 351.0269)"><tspan x="0" y="0" fill="#333333" font-family="Liberation Sans, Helvetica, Arial, sans-serif" font-size="14.1">Muscle of womb</tspan><tspan x="15.89" y="13.587" fill="#333333" font-family="Liberation Sans, Helvetica, Arial, sans-serif" font-size="14.1">(myometrium)</tspan></text>
<text transform="matrix(1 0 0 1 83.5806 335.9268)" fill="#333333" font-family="Liberation Sans, Helvetica, Arial, sans-serif" font-size="14.1">Cervix</text>
<text transform="matrix(1 0 0 1 83.5806 353.0269)" fill="#333333" font-family="Liberation Sans, Helvetica, Arial, sans-serif" font-size="14.1">Vagina</text>
<line fill="none" stroke="#333333" stroke-width="0.75" stroke-dasharray="5,2" x1="52.012" y1="105.343" x2="87.731" y2="271.366"/>
<line fill="none" stroke="#333333" x1="200.52" y1="312.395" x2="248.696" y2="345.114"/>
<g>
	<defs>
		<path id="SVGID_8_" d="M175.394,713.654c0-50.811,41.186-91.995,91.995-91.995s91.997,41.185,91.997,91.995    c0,50.807-41.188,91.996-91.997,91.996S175.394,764.461,175.394,713.654z"/>
	</defs>
	<clipPath id="SVGID_9_">
		<use xlink:href="#SVGID_8_" overflow="visible"/>
	</clipPath>
	<path clip-path="url(#SVGID_9_)" fill="#FDECE4" stroke="#E5AB97" d="M591.563,323.837c-22.964-14.592-51.541-12.163-71.114,6.045   c-7.526,6.999-15.269,16.148-23.473,25.839c-13.327,15.745-28.44,33.592-43.313,42.228c-14.271,8.289-29.318,12.377-44.186,14.652   c-12.771-21.415-64.201-41.149-73.507-43.474c-9.007-2.257-32.933-10.752-66.231-10.774h-2.768   c-33.302,0.022-57.224,8.518-66.234,10.774c-9.286,2.322-60.573,21.997-73.443,43.372c-14.667-2.296-29.479-6.377-43.55-14.55   c-14.873-8.636-29.981-26.483-43.317-42.228c-8.199-9.691-15.946-18.841-23.471-25.839c-19.569-18.208-48.145-20.637-71.113-6.045   c-19.381,12.318-35.784,38.659-26.468,76.667l0.545,5.802c0.914,4.257,1.539,8.947,1.699,14.214   c0.756,24.262,2.208,33.322,7.468,43.901c4.349,8.744,5.786,23.987,6.425,27.888c1.652,9.94-4.842,17.901-5.813,18.79   c-0.971,0.886-2.723,1.852-0.789,2.723c2.926,1.304,5.076-2.083,8.037-4.224c2.957-2.141,4.552-2.027,4.339,1.161   c-0.219,3.185-0.097,7.139,1.878,11.165c1.983,4.037,3.926-0.384,5.086-4.718c1.157-4.34,1.444-4.104,3.323-1.118   c1.876,2.982,2.737,3.692,4.285,0.64c1.55-3.063,4.197-3.048,4.373-1.224c0.18,1.833,2.844,4.742,6.673,8.856   c3.836,4.111,3.046-3.995,2.29-6.298c-0.749-2.308-0.774-5.207,1.687-4.391c2.455,0.82,4.589,3.773,6.133,5.999   c1.535,2.224,3.342,1.791,2.753-4.226c-0.591-6.019,0.347-4.526,1.499-3.582c1.151,0.944,3.198,8.186,7.905,10.366   c4.709,2.181,5.76-4.356,2.493-7.994c-0.811-0.916-1.611-4.37-1.743-5.231l0.39-0.631c0.271-4.078,6.998,8.028,8.063,10.902   c1.128,3.051,8.315,6.646,8.667-0.286c0.616-11.993-5.987-18.991-6.968-20.478c-0.98-1.492-3.07-1.681,0.226-2.004   c3.289-0.324,10.585,2.129,13.366,5.033c3.779,3.94,6.515,2.926,3.354-3.893c-2.4-5.185-0.5-5.107,2.381-5.386   c2.882-0.282,5.05,0.688,3.356-3.895c-1.693-4.584-14.995-13.178-16.347-14.241c-1.346-1.052-2.321-2.55,0.56-2.826   c2.875-0.286,12.901,0.32,18.252-0.204c5.351-0.523,6.919-1.469,4.254-3.191c-2.659-1.716-3.186-2.859,4.215-3.584   c3.703-0.362,5.11-0.893,4.982-1.622l-1.639-4.041c-0.14-2.917-5.104-8.2-8.167-10.875c-4.913-4.271,0.104-4.237,1.94-4.414   c1.83-0.177,5.384,1.061,2.622-2.894c-2.772-3.958-10.504-7.427-15.939-9.002c-5.431-1.576,4.351-1.714,6.367-2.711   c2.022-0.98,3.734-4.533-4.909-4.038c-3.686,0.217-25.537,3.56-38.717-7.038c-13.193-10.589-19.071-11.333-30.666-16.535   c-2.538-1.138-5.805-1.761-7.999-4.829c-13.962-19.533,1.907-47.491,14.911-55.75c15.233-9.68,34.108-8.143,46.975,3.822   c6.661,6.199,14.037,14.913,21.845,24.137c14.368,16.971,30.654,36.208,48.492,46.563c16.701,9.699,30.32,18.57,47.023,21.168   c8.259,6.192,12.577,19.573,25.327,37.515c9.866,13.882,20.908,58.502,22.752,65.649c5.844,22.758,16.416,38.393,22.82,49.23   c11.084,18.747,23.872,55.404,12.197,77.079c-5.956,11.066-12.197,32.03,4.854,53.343c8.253,10.318,8.521,16.194,11,44.03   c2.453,27.628-4.458,183.127,26.356,198.554l48.686,0.616c30.816-15.424,19.684-171.542,22.139-199.17   c2.474-27.836,2.754-33.712,11.008-44.03c17.041-21.313,10.809-42.276,4.848-53.343c-11.67-21.675,1.111-58.332,12.193-77.079   c6.405-10.837,16.979-26.472,22.823-49.23c1.846-7.147,12.892-51.767,22.752-65.649c12.719-17.889,17.691-34.629,25.534-37.932   c16.94-2.566,30.574-10.914,47.519-20.751c17.835-10.354,34.121-29.592,48.486-46.563c7.807-9.225,15.182-17.938,21.844-24.137   c12.866-11.965,31.745-13.502,46.979-3.822c13,8.259,28.87,36.217,14.908,55.75c-2.194,3.068-5.46,3.69-7.998,4.829   c-11.597,5.202-17.477,5.946-30.665,16.535c-13.183,10.598-35.033,7.255-38.715,7.038c-8.644-0.496-6.931,3.058-4.913,4.038   c2.017,0.997,11.796,1.135,6.366,2.711c-5.435,1.575-13.167,5.043-15.942,9.002c-2.756,3.955,0.799,2.717,2.631,2.894   c1.833,0.177,6.848,0.143,1.94,4.414c-3.07,2.675-8.033,7.958-8.17,10.875l-1.642,4.041c-0.121,0.729,1.278,1.26,4.986,1.622   c7.396,0.725,6.87,1.869,4.218,3.584c-2.665,1.723-1.102,2.668,4.25,3.191c5.352,0.524,15.373-0.082,18.254,0.204   c2.879,0.276,1.906,1.774,0.555,2.826c-1.352,1.063-14.655,9.657-16.35,14.241c-1.692,4.582,0.479,3.612,3.363,3.895   c2.884,0.279,4.778,0.201,2.38,5.386c-3.161,6.819-0.426,7.833,3.353,3.893c2.778-2.903,10.076-5.356,13.366-5.033   c3.292,0.323,1.204,0.512,0.224,2.004c-0.979,1.487-7.585,8.485-6.97,20.478c0.354,6.932,7.545,3.337,8.67,0.286   c1.063-2.875,7.795-14.98,8.069-10.902l0.381,0.631c-0.129,0.861-0.926,4.315-1.742,5.231c-3.262,3.637-2.209,10.175,2.493,7.994   c4.712-2.18,6.76-9.422,7.909-10.366c1.149-0.944,2.09-2.437,1.495,3.582c-0.587,6.017,1.223,6.45,2.757,4.226   c1.544-2.226,3.684-5.179,6.131-5.999c2.463-0.815,2.438,2.083,1.688,4.391c-0.761,2.303-1.545,10.41,2.287,6.298   c3.829-4.114,6.498-7.023,6.675-8.856c0.178-1.824,2.824-1.839,4.372,1.224c1.551,3.052,2.412,2.342,4.288-0.64   c1.876-2.986,2.162-3.222,3.318,1.118c1.162,4.334,3.104,8.755,5.085,4.718c1.981-4.026,2.101-7.98,1.883-11.165   c-0.21-3.188,1.384-3.301,4.343-1.161c2.955,2.141,5.104,5.528,8.034,4.224c1.935-0.871,0.18-1.836-0.791-2.723   c-0.966-0.889-7.463-8.85-5.817-18.79c0.646-3.9,2.084-19.144,6.434-27.888c5.259-10.58,6.711-19.64,7.459-43.901   c0.168-5.267,0.793-9.957,1.703-14.214l0.542-5.802C627.343,362.496,610.947,336.155,591.563,323.837z"/>
	<g clip-path="url(#SVGID_9_)">
		<path fill="#EF848B" d="M362.445,425.246c-3.536,0.59-6.697,1.239-8.896,1.877c-7.912,2.289-26.244,8.283-29.647,9.561    c-3.391,1.267-2.547-1.701-2.547-2.975c0-1.271-1.695,0.421-2.97,2.126c-1.275,1.695-6.366,7.64-8.064,3.396    c-1.701-4.249,0-4.249-0.852-6.369c-0.85-2.126-1.269-1.703-1.269,2.12c0,3.822-1.283,7.639-3.829,6.794    c-2.548-0.847-3.395-5.093-4.238-1.275c-0.857,3.822-3.401,2.973-5.527,2.973c-2.121,0-2.541,0-2.541-7.215    c0-7.221-1.279-1.707-1.279,0.424c0,2.121,1.699,6.364-0.846,6.791c-2.549,0.426-2.973,0.426-5.097,2.121    c-2.124,1.699-2.968,0-2.968-1.272c0-1.276-1.276-6.373-1.276-2.547c0,3.819,1.276,2.547-2.978,3.397    c-4.242,0.846-6.308-0.424-7.58,0c-1.275,0.422,0-1.273,0-2.974c0-1.698,0-5.094,0-6.793c0,0-0.452-2.158-1.732-2.125    c-1.286,0.021-1.038,2.125-1.038,2.125c0,1.7,0,5.095,0,6.793c0,1.701,1.278,3.396,0,2.974c-1.268-0.424-3.335,0.846-7.58,0    c-4.251-0.85-2.968,0.422-2.968-3.397c0-3.826-1.283,1.271-1.283,2.547c0,1.272-0.844,2.971-2.961,1.272    c-2.129-1.695-2.553-1.695-5.101-2.121c-2.549-0.427-0.844-4.67-0.844-6.791c0-2.131-1.279-7.645-1.279-0.424    c0,7.215-0.426,7.215-2.546,7.215s-4.67,0.849-5.525-2.973c-0.845-3.818-1.69,0.428-4.237,1.275    c-2.55,0.845-3.823-2.972-3.823-6.794c0-3.823-0.424-4.247-1.278-2.12c-0.844,2.12,0.854,2.12-0.844,6.369    c-1.7,4.244-6.793-1.702-8.07-3.396c-1.274-1.705-2.973-3.396-2.973-2.126c0,1.274,0.855,4.242-2.545,2.975    c-3.393-1.277-14.36-7.434-29.721-10.618c-3.08-0.639-15.715-2.137-23.167-2.996l2.102-0.134    c12.906,2.514,48.215,0.945,52.699,1.974c6.254,1.443,29.286,2.613,52.161,3.511h2.767c22.878-0.898,45.005-1.06,51.384-1.764    c7.436-0.831,18.58,1.651,40.887-1.654L362.445,425.246z"/>
		<radialGradient id="SVGID_10_" cx="251.0889" cy="722.9756" r="19.9562" gradientUnits="userSpaceOnUse">
			<stop offset="0" style="stop-color:#0069B3"/>
			<stop offset="1" style="stop-color:#F4D9CE"/>
		</radialGradient>
		<path fill="url(#SVGID_10_)" d="M235.944,800.168c-0.016-0.9-0.099-4.403,1.213-8.075c1.01-2.827-0.057-7.926-0.384-8.875    c-0.631-1.861-1.004-4.926-0.869-7.867c0.106-2.387,0.549-4.694,1.456-6.209c2.021-3.381,3.191-10.415,1.155-14.364    c-2.026-3.938-3.99-6.249-3.58-14.976c0.28-6.332-2.252-5.932-3.836-8.883c-0.679-1.252-4.35-7.824-6.381-10.077    c-2.027-2.254-9.941-15.732-10.839-17.594c-2.024-4.227-0.985-11.289,4.642-6.499c1.243,1.052,4.683,7.203,14.8,13.938    c0,0,11.872,12.048,23.759,4.568c7.761-4.885,8.342-15.011,7.92-17.561c-0.427-2.546,1.694-6.789,0-12.734    c-1.528-5.364-1.278-8.496,0-11.039c1.265-2.55,1.485-5.948,0-7.854c-1.487-1.912-0.851-7.431,0-9.344    c0.848-1.909,0.422-7.856,0-8.704c-0.427-0.846-2.124-5.092,0-7.845c0.412-0.555,0.676-0.914,0.848-2.454l0.299-1.767    c0.564-6.487-0.437-18.979-0.937-27.287c-0.678-11.231-2.427-8.678-2.639-14.84c-0.21-6.155-3.896-7.245-3.676-11.92    c0.206-4.673,1.832-1.045,1.614-4.439c-0.207-3.398-2.91-2.926-4.004-11.368c-0.347-2.778-2.478-2.115-1.838-4.231    c0.634-2.122,1.185-0.548,0.543-5.527c-0.299-2.262-1.245-8.286-2.388-7.803c-1.514,0.655-1.391-2.813-0.332-3.873    c1.063-1.065-1.831,0.183-1.831-5.223c0-3.319-6.878-7.391-4.119-8.663c2.755-1.28,1.555-3.647,0.49-4.916    c-1.061-1.273-0.388-1.547-1.14-3.648c-0.749-2.096-5.514-1.2-4.876-1.626c0.64-0.421,4.653-0.573,4.229-2.272    c-0.421-1.7,0.908-5.488-0.816-5.196c-1.95,0.317-3.413,1.617-3.735,0.646c-0.604-1.803,2.935-1.316,3.574-1.952    c0.641-0.633,0.439-5.643-0.971-5.851c-2.281-0.323-0.171-1.79-1.139-3.569c0,0-1.096,0.317-1.465-0.973    c-0.331-1.137,2.442-0.173,1.617-1.955c-0.924-2.013-2.052-2.682-2.796-2.302c-0.201,0.242-1.749,1.428-2.396,0.51    c-1.581-2.201,2.862-1.701,2.761-2.591c-0.166-1.468-0.938-7.813-2.436-6.341c-1.501,1.474-0.991,1.511-1.629,1.3    c-0.631-0.215-0.315-0.617,0.325-1.458c0.643-0.848,1.469-0.818,1.469-0.818s-1.051-3.605-2.114-2.761    c-1.064,0.841-1.815,1.628-2.663,2.051c-0.851,0.415-2.535-0.999-1.883-2.06c0.642-1.053,3.949-2.493,2.902-3.341    c-1.067-0.853-4.125-2.845-4.977-2.64c-0.857,0.205-2.783,2.21-4.27,2.413c-1.491,0.203-0.233-1.745-0.648-2.597    c-0.424-0.856,6.654-5.364-0.49-8.289c-4.563-1.867-14.329-14.801-20.688-22.537c-10.881-13.217-39.297-16.545-46.399-17.182    l8.731,1.614c32.212,11.146,41.343,32.789,53.481,53.821c1.817,3.149,24.061,50.863,29.465,80.602    c3.863,21.232,9.134,35.594,11.805,53.733c1.668,11.341-3.354,19.568-1.505,25.935c1.265,4.388-1.045,8.965-1.211,10.297    c-0.572,4.53-0.249,8.799,0.605,10.497c0.844,1.696-2.858,14.136-0.577,19.01c3.81,8.16,1.385,24.397-5.748,25.617    c-8.292,2.354-18.171-9.091-28.602-19.329c-9.466-9.295-21.514,0.515-13.251,14.109c8.262,13.595,11.437,17.003,17.727,28.913    c1.983,3.756,2.993,3.756,2.59,7.592c-0.406,3.861,3.835,13.866,2.826,17.766c-1.439,5.577-2.826,13.932-1.413,20.796    c0.697,3.385,1.816,6.864,0.606,9.489c-1.109,2.4-0.942,4.653-0.809,6.662"/>
		<radialGradient id="SVGID_11_" cx="283.5938" cy="720.1328" r="15.9715" gradientUnits="userSpaceOnUse">
			<stop offset="0" style="stop-color:#0069B3"/>
			<stop offset="1" style="stop-color:#F4D9CE"/>
		</radialGradient>
		<path fill="url(#SVGID_11_)" d="M306.607,797.14c-0.204-1.878-0.625-3.893-1.412-6.259c-1.213-3.634,0.605-6.865,1.359-10.495    c1.081-5.217-0.154-10.394-1.359-13.53c-1.011-2.624-1.446-5.696-1.011-7.873c0.808-4.039,3.027-5.46,2.624-8.076    c-0.403-2.625-0.771-3.53-0.201-6.46c0.589-3.022,1.551-6.234,2.019-8.884c0.605-3.433,2.231-5.414,3.867-7.857    c3.351-5.008,7.224-8.923,9.37-11.309c4.948-5.507,8.303-12.569,9.578-17.377c3.256-12.276-8.249-17.268-18.354-5.856    c-23.759,26.815-28.403,16.962-29.092,18.173c-6.361-4.709-8.354-16.818-4.539-24.978c2.265-4.875-1.715-15.504-0.859-17.195    c0.847-1.701,1.414-7.364,0.847-11.897c-0.168-1.329-2.548-5.371-1.274-9.76c1.842-6.367-2.561-15.022-0.884-26.363    c2.673-18.141,7.941-32.507,11.805-53.74c5.403-29.734,27.644-77.45,29.463-80.6c12.995-22.527,22.265-31.847,28.082-38.956    c3.714-4.542,15.884-14.293,18.171-15.276l0.066,0.252c-16.69,4.087-23.549,11.238-30.934,15.729    c-8.562,5.21-16.124,20.669-20.69,22.536c-7.151,2.925-0.07,7.432-0.492,8.286c-0.414,0.855,0.839,2.802-0.647,2.599    c-1.489-0.202-3.417-2.206-4.267-2.413c-0.848-0.205-3.916,1.788-4.975,2.641c-1.055,0.849,2.261,2.287,2.905,3.342    c0.641,1.058-1.034,2.474-1.887,2.057c-0.849-0.422-1.6-1.209-2.668-2.049c-1.065-0.846-2.108,2.76-2.108,2.76    s0.816-0.03,1.46,0.818c0.642,0.842,0.961,1.244,0.325,1.458c-0.641,0.212-0.127,0.175-1.618-1.3    c-1.499-1.473-2.281,4.873-2.446,6.34c-0.095,0.893,4.343,0.39,2.771,2.591c-0.657,0.918-2.205-0.268-2.403-0.509    c-0.745-0.379-1.872,0.29-2.801,2.304c-0.816,1.78,1.948,0.815,1.623,1.95c-0.37,1.292-1.461,0.979-1.461,0.979    c-0.975,1.777,1.139,3.246-1.137,3.569c-1.409,0.204-1.611,5.216-0.975,5.851c0.63,0.638,4.169,0.148,3.572,1.948    c-0.322,0.975-1.788-0.326-3.736-0.645c-1.723-0.29-0.392,3.499-0.813,5.194c-0.424,1.7,3.595,1.852,4.228,2.279    c0.64,0.42-4.121-0.475-4.874,1.62c-0.757,2.102-0.085,2.375-1.148,3.648c-1.049,1.273-2.264,3.643,0.5,4.918    c2.756,1.27-4.123,5.345-4.123,8.664c0,5.402-2.887,4.157-1.825,5.22c1.064,1.063,1.18,4.531-0.348,3.877    c-1.133-0.484-2.083,5.539-2.378,7.798c-0.653,4.983-0.094,3.405,0.55,5.531c0.63,2.117-1.496,1.45-1.85,4.227    c-1.074,8.449-3.796,7.973-4.01,11.372c-0.212,3.393,1.418-0.238,1.626,4.439c0.216,4.675-3.47,5.763-3.681,11.92    c-0.219,6.158-1.95,3.606-2.633,14.843c-0.496,8.175-1.475,20.405-0.962,26.976l-0.123,1.286c0.169,1.56,0.451,2.689,0.873,3.24    c2.119,2.759,0.425,7.006,0,7.851c-0.428,0.844-0.848,6.792,0,8.697c0.848,1.913,1.482,7.433,0,9.345    c-1.491,1.908-1.274,5.312,0,7.854c1.271,2.542,1.531,5.679,0,11.04c-1.698,5.946,0.425,10.195,0,12.74    c-0.428,2.547,0.982,11.976,8.496,17.235c4.692,3.283,9.291,5.411,16.813,1.841c9.941-4.714,20.058-19.54,22.159-22.266    c3.474-4.509,7.801-2.947,6.421,3.763c-1.743,8.517-15.5,24.227-17.97,25.64c-4.93,2.814-3.49,12.076-4.844,13.931    c-1.74,2.391-1.073,4.611-0.202,6.865c0.874,2.247-0.942,10.575-1.816,11.709c-0.871,1.12-3.572,8.234,0.202,13.729    c2.997,4.365,1.128,12.521-0.327,13.924c-0.868,0.844-1.087,9.899,1.739,14.744"/>
	</g>
	
		<radialGradient id="SVGID_12_" cx="245.1436" cy="770.4775" r="107.6866" gradientTransform="matrix(1.0651 0 0 1.0349 -20.9683 -11.6027)" gradientUnits="userSpaceOnUse">
		<stop offset="0" style="stop-color:#FFFFFF"/>
		<stop offset="0.3202" style="stop-color:#F7E4D1"/>
		<stop offset="1" style="stop-color:#E3B6AD"/>
	</radialGradient>
	<path clip-path="url(#SVGID_9_)" fill="url(#SVGID_12_)" stroke="#E5AB97" d="M269.9,683.858c-0.212,1.065-0.563,2.321-1.109,3.856   c-2.389,6.76-0.426,7.813,0.224,10.98c0.647,3.162,2.577,14.118,7.36,17.922c4.779,3.798,12.56,7.594,22.772-0.943   c10.393-8.671,17.334-17.911,19.438-20.643c3.468-4.506,9.268-4.777,7.238,3.664c-2.031,8.447-15.5,24.212-17.968,25.624   c-4.93,2.814-3.58,11.945-4.93,13.802c-1.738,2.387-0.873,5.629,0,7.886c0.871,2.246-1.154,9.285-2.031,10.421   c-0.871,1.122-2.896,9.851,0.293,14.077c3.188,4.223,0.584,12.677-0.872,14.082c-1.44,1.409-1.44,8.726,0.872,12.669   c2.319,3.947,0.865,9.296-0.293,11.264c-1.158,1.979,0.293,8.454,1.158,9.574c0.873,1.133-0.571,9.581-1.737,10.986   c-1.158,1.407-0.865,7.036,0.579,10.137c1.452,3.101,0.602,10.991-0.28,12.108c-1.562,1.974-0.642,4.117-0.299,5.065   c1.737,4.797-2.021,7.05,0,11.269c2.031,4.228-2.317,7.322-0.292,11.829c2.029,4.513-0.573,10.701-1.442,12.39   c-0.872,1.692-1.154,6.479,0.576,9.861c1.737,3.372,0.579,7.881,0,9.294c-0.576,1.407-2.322,5.067-2.322,8.442   c0,3.38,0.592,7.319,1.746,9.008c1.155,1.698,1.155,5.925,0,8.733c-1.154,2.813-1.746,8.448-1.746,10.135   c0,1.693-2.028,5.915-4.336,7.607c-2.324,1.694-1.457,6.482,2.308,7.316c-2.893,2.539-25.429,12.358-49.228-0.416   c4.777,1.798,5.751-3.801,2.277-8.033c-3.476-4.214-6.07-9.635-4.441-16.317c1.149-4.646-1.063-9.025-1.938-11.274   c-0.861-2.253-2.897-9.566,0.589-15.77c2.659-4.761,0.57-15.773-0.589-16.609c-1.153-0.845-4.593-10.414-2.612-16.346   c2.405-7.116,0.585-10.136-0.284-11.536c-0.863-1.401-2.033-10.422-0.583-12.389c1.452-1.98-0.28-9.581-0.868-10.709   c-0.582-1.127,3.351-9.678-0.906-15.403c-1.449-1.955,1.494-7.965,0.324-9.656c-1.16-1.695-0.575-5.633,0.582-7.888   c1.156-2.257,0.588-7.318-0.582-8.444c-1.16-1.133-0.861-6.199,0-7.325c0.881-1.128,0.881-7.038-0.289-10.425   c-1.147-3.378-1.44-10.697,0.588-14.074c2.019-3.382,3.188-10.416,1.151-14.368c-2.025-3.939-3.295-6.76-2.887-15.484   c0.276-6.335-2.771-6.335-4.356-9.287c-0.675-1.251-2.892-6.201-4.926-8.454c-2.028-2.255-10.413-15.813-11.609-17.487   c-3.875-5.424-0.975-12.645,4.649-7.856c1.37,1.155,8.141,11.2,20.335,18.164c6.041,3.443,14.242,8.151,21.205,2.024   c6.958-6.119,7.421-13.842,6.986-16.378c-0.433-2.531,1.185-7.751-0.552-13.666c-0.294-0.998-0.524-1.92-0.715-2.766"/>
	<path clip-path="url(#SVGID_9_)" fill="none" stroke="#1D1D1B" stroke-linecap="round" stroke-linejoin="round" d="   M167.682,927.838c6.228,14.154,33.098,58.197,79.507,34.99"/>
	
		<path clip-path="url(#SVGID_9_)" fill="none" stroke="#E5AB97" stroke-width="0.75" stroke-linecap="round" stroke-linejoin="round" d="   M164.595,432.954c32.209,11.15,41.339,32.79,53.481,53.822c1.813,3.15,24.06,50.862,29.463,80.6   c3.859,21.235,9.139,35.598,11.805,53.735c1.666,11.341-2.733,20.004-0.889,26.367c1.271,4.394-1.106,8.43-1.275,9.763   c-0.569,4.531,0,10.193,0.854,11.891c0.843,1.699-3.143,12.322-0.861,17.201c3.812,8.155,1.183,25.33-6.269,26.136   c-1.06,0.11-4.934,0.11-10.871-4.277c-5.937-4.384-10.326-9.294-14.713-13.424c-4.39-4.128-11.359-8.518-16.007-3.869   c-2.453,2.456-4.131,6.71-1.29,12.646c2.841,5.939,7.486,13.168,11.872,19.363c2.197,3.101,4.974,7.549,7.297,12.71   c1.042,2.321,3.254,4.717,2.759,7.329c-0.756,4.056,1.65,9.558,3.029,12.313c0,0,0.341,4.818-1.036,8.949   c-1.376,4.128-2.066,11.706-0.688,17.553c1.375,5.85,2.064,5.509,0.688,9.294c-1.376,3.786-1.721,8.948,0,12.046   c1.725,3.097,0.688,6.544,0,7.914c-0.688,1.376-1.376,5.51-0.343,7.571c1.03,2.07,0.688,5.512,0,6.542l-0.337,1.98   c-0.019,0.747,0.844,3.069,1.166,3.502c4.26,5.724,0.037,11.138,0.616,12.265c0.588,1.128,2.32,8.729,0.868,10.709   c-1.447,1.967-0.28,10.987,0.587,12.389c0.865,1.4,2.689,4.42,0.278,11.536c-1.98,5.932,1.461,15.501,2.616,16.346   c1.155,0.836,3.248,11.849,0.586,16.609c-3.486,6.203-1.449,13.517-0.586,15.77c0.874,2.249,3.088,6.628,1.937,11.274   c-1.628,6.683,0.965,12.104,4.442,16.317c2.031,2.473,2.537,5.421,1.656,7.078"/>
	<path clip-path="url(#SVGID_9_)" fill="none" stroke="#1D1D1B" stroke-linecap="round" stroke-linejoin="round" d="   M362.008,425.517c-22.307,3.309-33.451,0.826-40.885,1.656c-6.379,0.705-28.509,0.866-51.383,1.766h-2.768   c-22.879-0.9-45.909-2.069-52.161-3.511c-4.483-1.029-39.792,0.539-52.697-1.973"/>
	
		<path clip-path="url(#SVGID_9_)" fill="none" stroke="#E5AB97" stroke-width="0.75" stroke-linecap="round" stroke-linejoin="round" d="   M364.896,432.542c-2.29,0.981-14.459,10.734-18.175,15.278c-5.815,7.106-15.087,16.427-28.078,38.955   c-1.819,3.15-24.062,50.862-29.465,80.6c-3.861,21.235-9.129,35.598-11.803,53.735c-1.675,11.341,2.726,20.004,0.882,26.367   c-1.27,4.394,1.107,8.43,1.275,9.763c0.568,4.531,0,10.193-0.849,11.891c-0.853,1.699,3.125,12.322,0.857,17.201   c-3.813,8.155-0.748,22.784,6.27,25.39c3.012,1.117,9.205,0.084,15.144-5.854c4.008-4.007,8.776-9.291,11.875-12.646   c9.911-10.74,21.828-7.255,18.585,5.42c-2.843,11.101-10.326,18.582-13.679,22.456c-2.01,2.315-3.875,5.422-7.129,9.484   c-1.022,1.272-2.005,3.466-2.035,5.015c-0.043,2.282-0.73,3.83-1.592,6.241c0,0-0.862,4.299-0.396,7.559   c0.352,2.479-0.54,5.023-0.984,6.207c-1.029,2.755-2.062,4.823-0.34,9.638c1.721,4.822,2.41,13.081,1.03,16.869   c-1.375,3.782-2.411,5.854-0.69,10.324c1.724,4.471,1.724,11.699,0.347,15.141c-1.376,3.441-0.002,4.824,0.689,8.605l0.627,4.198   c-0.146,2.947-1.142,7.68-1.993,8.702c-1.152,1.407-0.859,7.036,0.583,10.137c1.452,3.101,0.602,10.991-0.279,12.108   c-1.563,1.974-0.645,4.117-0.304,5.065c1.739,4.797-2.017,7.05,0,11.269c2.035,4.228-2.313,7.322-0.288,11.829   c2.027,4.513-0.571,10.701-1.443,12.39c-0.87,1.692-1.154,6.479,0.579,9.861c1.735,3.372,0.578,7.881,0,9.294   c-0.579,1.407-2.324,5.067-2.324,8.442c0,3.38,0.591,7.319,1.745,9.008c1.157,1.698,1.157,5.925,0,8.733   c-1.154,2.813-1.745,8.448-1.745,10.135c0,1.693-2.031,5.915-4.336,7.607c-1.746,1.268-1.691,4.283,0.034,6.061"/>
	<path clip-path="url(#SVGID_9_)" fill="none" stroke="#1D1D1B" stroke-linecap="round" stroke-linejoin="round" d="   M369.029,927.838c-6.223,14.154-28.749,58.197-75.169,34.99"/>
	<g clip-path="url(#SVGID_9_)">
		<g>
			<path fill="#E5AB97" d="M282.078,739.375c7.459,0.004,16.557-1.261,21.776-7.197c0.176-0.2-0.095-0.474-0.293-0.293     c-5.917,5.385-13.665,7.046-21.483,7.162C281.867,739.05,281.866,739.375,282.078,739.375L282.078,739.375z"/>
		</g>
	</g>
	<g clip-path="url(#SVGID_9_)">
		<g>
			<path fill="#E5AB97" d="M280.477,762.033c3.877-0.224,7.715-1.094,11.429-2.195c3.229-0.958,7.036-2.218,9.328-4.82     c0.127-0.144-0.067-0.341-0.209-0.211c-2.709,2.488-6.444,3.746-9.889,4.818s-7.061,1.87-10.659,2.166     C280.322,761.804,280.319,762.042,280.477,762.033L280.477,762.033z"/>
		</g>
	</g>
	<g clip-path="url(#SVGID_9_)">
		<g>
			<path fill="#E5AB97" d="M282.427,790.791c7.337-1.076,14.66-2.048,19.364-8.425c0.118-0.16-0.137-0.346-0.27-0.208     c-2.778,2.854-5.31,5.115-9.168,6.392c-3.222,1.066-6.65,1.487-9.991,2.007C282.208,790.581,282.274,790.813,282.427,790.791     L282.427,790.791z"/>
		</g>
	</g>
	<g clip-path="url(#SVGID_9_)">
		<g>
			<path fill="#E5AB97" d="M284.606,811.693c5.924,0.018,15.039-0.755,17.905-6.939c0.11-0.238-0.229-0.447-0.357-0.209     c-3.167,5.846-11.597,6.732-17.548,6.828C284.4,811.376,284.399,811.692,284.606,811.693L284.606,811.693z"/>
		</g>
	</g>
	<g clip-path="url(#SVGID_9_)">
		<g>
			<path fill="#E5AB97" d="M282.711,834.618c5.887-0.29,13.017-1.606,17.734-5.408c0.171-0.138-0.047-0.376-0.223-0.288     c-5.706,2.849-11.072,4.896-17.512,5.392C282.518,834.328,282.514,834.628,282.711,834.618L282.711,834.618z"/>
		</g>
	</g>
	<g clip-path="url(#SVGID_9_)">
		<g>
			<path fill="#E5AB97" d="M283.059,856.283c6.27-0.088,14.146-0.984,18.421-6.187c0.204-0.248-0.132-0.603-0.359-0.359     c-4.57,4.873-11.704,5.925-18.062,6.202C282.838,855.949,282.836,856.286,283.059,856.283L283.059,856.283z"/>
		</g>
	</g>
	<g clip-path="url(#SVGID_9_)">
		<g>
			<path fill="#E5AB97" d="M280.795,880.967c6.195,0.242,15.187-1.09,19.127-6.519c0.138-0.189-0.149-0.374-0.307-0.236     c-5.283,4.586-11.837,6.571-18.82,6.466C280.608,880.675,280.609,880.96,280.795,880.967L280.795,880.967z"/>
		</g>
	</g>
	<g clip-path="url(#SVGID_9_)">
		<g>
			<path fill="#E5AB97" d="M278.877,900.43c6.217-0.322,14.894-1.764,19.145-6.81c0.194-0.23-0.103-0.532-0.332-0.332     c-5.068,4.438-12.207,6.328-18.813,6.923C278.738,900.224,278.734,900.438,278.877,900.43L278.877,900.43z"/>
		</g>
	</g>
	<g clip-path="url(#SVGID_9_)">
		<g>
			<path fill="#E5AB97" d="M279.157,934.987c6.125,1.445,16.213-0.652,19.626-6.386c0.156-0.262-0.237-0.484-0.404-0.236     c-2.202,3.275-6.019,4.784-9.708,5.707c-2.962,0.741-6.402,1.271-9.438,0.636C279.053,934.67,278.975,934.944,279.157,934.987     L279.157,934.987z"/>
		</g>
	</g>
	<g clip-path="url(#SVGID_9_)">
		<g>
			<path fill="#E5AB97" d="M254.903,739.363c-7.785-0.099-15.81-1.207-21.776-6.621c-0.199-0.18-0.47,0.093-0.293,0.293     c5.27,5.971,14.649,6.677,22.069,6.656C255.115,739.69,255.115,739.366,254.903,739.363L254.903,739.363z"/>
		</g>
	</g>
	<g clip-path="url(#SVGID_9_)">
		<g>
			<path fill="#E5AB97" d="M256.211,762.11c-6.006-0.869-12.983-2.258-17.624-6.438c-0.143-0.129-0.335,0.066-0.209,0.211     c4.025,4.635,12.055,5.798,17.801,6.466C256.314,762.364,256.346,762.13,256.211,762.11L256.211,762.11z"/>
		</g>
	</g>
	<g clip-path="url(#SVGID_9_)">
		<g>
			<path fill="#E5AB97" d="M253.941,790.877c-3.525-0.304-6.74-1.162-9.92-2.715c-3.118-1.522-5.417-3.924-7.824-6.346     c-0.134-0.136-0.388,0.048-0.27,0.208c4.225,5.708,11.101,8.565,18.014,9.095C254.098,791.131,254.096,790.891,253.941,790.877     L253.941,790.877z"/>
		</g>
	</g>
	<g clip-path="url(#SVGID_9_)">
		<g>
			<path fill="#E5AB97" d="M252.983,809.376c-5.937-0.703-10.876-2.56-15.214-6.766c-0.193-0.188-0.47,0.095-0.293,0.293     c4.054,4.545,9.613,6.226,15.507,6.793C253.19,809.716,253.185,809.399,252.983,809.376L252.983,809.376z"/>
		</g>
	</g>
	<g clip-path="url(#SVGID_9_)">
		<g>
			<path fill="#E5AB97" d="M254.264,834.642c-6.226-0.59-11.413-3.321-16.892-6.055c-0.177-0.088-0.393,0.148-0.223,0.288     c4.47,3.663,11.434,5.693,17.114,6.071C254.461,834.959,254.456,834.66,254.264,834.642L254.264,834.642z"/>
		</g>
	</g>
	<g clip-path="url(#SVGID_9_)">
		<g>
			<path fill="#E5AB97" d="M254.903,855.075c-5.824-0.135-11.702-0.71-15.893-5.167c-0.229-0.243-0.561,0.11-0.359,0.359     c3.882,4.797,10.538,5.211,16.252,5.151C255.125,855.417,255.125,855.08,254.903,855.075L254.903,855.075z"/>
		</g>
	</g>
	<g clip-path="url(#SVGID_9_)">
		<g>
			<path fill="#E5AB97" d="M255.9,880.647c-2.808-0.417-5.594-0.888-8.295-1.782c-2.964-0.982-5.003-2.864-7.273-4.898     c-0.156-0.141-0.442,0.048-0.307,0.236c3.628,5.045,10.111,6.042,15.837,6.729C256.023,880.951,256.062,880.672,255.9,880.647     L255.9,880.647z"/>
		</g>
	</g>
	<g clip-path="url(#SVGID_9_)">
		<g>
			<path fill="#E5AB97" d="M257.78,900.854c-5.874-0.247-11.209-3.037-15.518-6.876c-0.229-0.203-0.525,0.102-0.332,0.332     c3.677,4.372,10.234,6.777,15.85,6.763C257.922,901.073,257.921,900.86,257.78,900.854L257.78,900.854z"/>
		</g>
	</g>
	<g clip-path="url(#SVGID_9_)">
		<g>
			<path fill="#E5AB97" d="M258.096,935.02c-5.116,0.1-10.633-1.713-14.845-4.595c-0.219-0.149-0.492,0.202-0.284,0.368     c4.019,3.207,10.056,4.789,15.129,4.516C258.28,935.299,258.283,935.016,258.096,935.02L258.096,935.02z"/>
		</g>
	</g>
	<radialGradient id="SVGID_13_" cx="270.4775" cy="499.0957" r="69.3244" gradientUnits="userSpaceOnUse">
		<stop offset="0" style="stop-color:#FFFFFF"/>
		<stop offset="0.3202" style="stop-color:#F7E4D1"/>
		<stop offset="1" style="stop-color:#E3B6AD"/>
	</radialGradient>
	<path clip-path="url(#SVGID_9_)" fill="url(#SVGID_13_)" stroke="#E5AB97" stroke-linecap="round" stroke-linejoin="round" d="   M270.596,635.662c-0.43-6.677,0.515-18.505,0.996-26.478c0.683-11.23,2.415-8.685,2.633-14.843c0.21-6.15,3.899-7.242,3.684-11.918   c-0.209-4.672-1.838-1.041-1.63-4.44c0.22-3.399,2.939-2.923,4.015-11.369c0.353-2.775,2.479-2.11,1.845-4.227   c-0.641-2.123-1.199-0.551-0.545-5.527c0.296-2.266,1.241-8.29,2.375-7.802c1.527,0.65,1.41-2.814,0.348-3.874   c-1.063-1.067,1.827,0.179,1.827-5.223c0-3.323,6.877-7.396,4.121-8.665c-2.766-1.279-1.549-3.645-0.498-4.918   c1.065-1.272,0.387-1.543,1.146-3.645c0.757-2.095,5.514-1.199,4.874-1.623c-0.634-0.423-4.65-0.582-4.229-2.274   c0.428-1.7-0.909-5.488,0.816-5.199c1.949,0.32,3.412,1.62,3.733,0.642c0.602-1.797-2.938-1.309-3.571-1.949   c-0.634-0.632-0.436-5.643,0.979-5.847c2.271-0.322,0.159-1.79,1.132-3.568c0,0,1.097,0.311,1.461-0.978   c0.326-1.135-2.438-0.173-1.624-1.952c0.93-2.013,2.058-2.68,2.804-2.301c0.201,0.24,1.745,1.425,2.402,0.508   c1.575-2.204-2.866-1.699-2.77-2.592c0.167-1.466,0.945-7.813,2.446-6.341c1.495,1.475,0.98,1.515,1.617,1.303   c0.638-0.217,0.317-0.618-0.322-1.461c-0.643-0.847-1.461-0.818-1.461-0.818s1.044-3.605,2.106-2.759   c1.069,0.841,1.817,1.627,2.668,2.048c0.856,0.418,2.528-0.999,1.89-2.057c-0.646-1.054-3.962-2.493-2.903-3.343   c1.058-0.85,4.123-2.845,4.971-2.637c0.851,0.205,2.779,2.209,4.269,2.412c1.486,0.202,0.231-1.745,0.649-2.597   c0.415-0.856-6.664-5.365,0.49-8.287c4.566-1.871,12.125-17.328,20.69-22.539c9.057-5.511,17.334-15.026,43.94-17.971l4.892-0.282   c14.296-0.349,31.775,0.156,49.668-7.117c24.395-9.929,41.938-20.35,64.769-46.985l5.987-7.134   c14.856-17.904,33.353-40.18,55.495-41.55c11.627-0.722,23.07,4.366,34.979,15.56c14.527,13.643,13.755,33.704,13.172,39.528   c-0.405,4.079-2.357,10.253-5.333,17.333c-2.82,2.673-9.313,4.757-11.619,5.792c-11.595,5.203-17.784,6.343-30.975,16.933   c-13.183,10.593-37.205,5.17-40.887,4.953c-8.644-0.491-7.002,0.612-4.982,1.592c2.021,0.994,11.803,1.132,6.37,2.708   c-5.44,1.578-13.17,5.043-15.938,9.001c-2.756,3.951,0.791,2.719,2.624,2.896c1.832,0.175,6.841,0.143,1.938,4.413   c-3.065,2.673-8.034,7.958-8.174,10.873l-1.636,4.044c-0.123,0.727,1.277,1.259,4.984,1.624c7.399,0.723,6.869,1.864,4.216,3.579   c-2.66,1.723-1.099,2.673,4.253,3.196c5.348,0.523,15.379-0.085,18.254,0.201c2.88,0.278,1.91,1.771,0.557,2.828   c-1.346,1.061-14.649,9.655-16.35,14.24c-1.694,4.587,0.478,3.615,3.356,3.893c2.883,0.284,4.785,0.201,2.383,5.39   c-3.163,6.818-0.422,7.833,3.354,3.892c2.773-2.901,10.073-5.353,13.37-5.033c3.292,0.324,1.198,0.514,0.222,2.004   c-0.979,1.487-7.583,8.483-6.968,20.482c0.354,6.928,7.54,3.334,8.668,0.277c1.062-2.87,7.795-14.975,8.063-10.904l0.388,0.634   c-0.129,0.865-0.93,4.318-1.747,5.232c-3.26,3.64-2.213,10.179,2.499,7.997c4.705-2.177,6.754-9.419,7.906-10.366   c1.149-0.944,2.081-2.446,1.494,3.576c-0.583,6.019,1.225,6.455,2.754,4.229c1.543-2.22,3.682-5.181,6.139-5.996   c2.454-0.817,2.431,2.083,1.682,4.389c-0.754,2.302-1.547,10.406,2.29,6.295c3.828-4.109,6.493-7.017,6.673-8.854   c0.176-1.824,2.822-1.836,4.375,1.225c1.543,3.054,2.404,2.348,4.282-0.64c1.883-2.988,2.167-3.222,3.325,1.121   c1.153,4.334,3.104,8.752,5.087,4.717c1.975-4.022,2.098-7.973,1.878-11.164c-0.21-3.192,1.388-3.302,4.341-1.16   c2.964,2.137,5.11,5.527,8.035,4.22c1.938-0.874,0.184-1.836-0.787-2.72c-0.962-0.889-11.121-7.912-9.471-17.852   c0.642-3.896,1.431-21.816,5.785-30.557c5.257-10.583,5.851-16.215,6.604-40.476c0.117-3.774-2.289-9.694-3.341-14.316   c4.642-10.086,7.704-19.169,8.279-24.917c0.676-6.776,1.543-30.134-15.74-46.376c-13.469-12.654-27.312-18.642-41.147-17.78   c-25.705,1.59-46.297,26.4-61.335,44.52l-5.902,7.036c-21.733,25.35-38.416,35.271-61.611,44.705   c-16.485,6.707-32.735,7.103-47.067,7.455l-7.333,0.912l0.015,0.162c-7.837,0.779-17.209,2.226-22,3.614   c-7.911,2.289-26.24,8.282-29.643,9.558c-3.394,1.27-2.548-1.7-2.548-2.972c0-1.272-1.698,0.421-2.974,2.125   c-1.272,1.696-6.362,7.639-8.064,3.396c-1.699-4.248,0-4.248-0.852-6.367c-0.848-2.128-1.269-1.705-1.269,2.119   c0,3.821-1.279,7.64-3.825,6.796c-2.552-0.849-3.398-5.096-4.242-1.275c-0.853,3.822-3.397,2.971-5.522,2.971   c-2.121,0-2.543,0-2.543-7.216c0-7.218-1.28-1.705-1.28,0.424c0,2.121,1.702,6.367-0.843,6.792   c-2.55,0.427-2.976,0.427-5.102,2.123c-2.12,1.698-2.967,0-2.967-1.272c0-1.276-1.273-6.373-1.273-2.547   c0,3.819,1.273,2.547-2.981,3.396c-4.238,0.846-6.306-0.425-7.575,0c-1.28,0.423,0-1.273,0-2.972s0-5.097,0-6.796   c0,0-0.455-2.158-1.734-2.126c-1.285,0.021-1.034,2.126-1.034,2.126c0,1.699,0,5.097,0,6.796s1.275,3.395,0,2.972   c-1.274-0.425-3.338,0.846-7.583,0c-4.252-0.849-2.97,0.423-2.97-3.396c0-3.826-1.282,1.271-1.282,2.547   c0,1.272-0.846,2.97-2.962,1.272c-2.13-1.696-2.55-1.696-5.102-2.123c-2.55-0.425-0.842-4.671-0.842-6.792   c0-2.129-1.277-7.642-1.277-0.424c0,7.216-0.431,7.216-2.551,7.216c-2.115,0-4.665,0.851-5.524-2.971   c-0.844-3.821-1.688,0.426-4.238,1.275c-2.551,0.844-3.818-2.975-3.818-6.796c0-3.824-0.43-4.247-1.281-2.119   c-0.847,2.119,0.852,2.119-0.847,6.367c-1.695,4.244-6.787-1.7-8.069-3.396c-1.27-1.704-2.97-3.397-2.97-2.125   c0,1.272,0.852,4.242-2.544,2.972c-3.398-1.276-14.364-7.434-29.721-10.613c-4.443-0.923-28.746-3.632-28.746-3.632   c-14.332-0.352-30.573-0.748-47.067-7.455c-23.181-9.434-39.873-19.355-61.602-44.705l-5.902-7.036   c-15.038-18.12-35.637-42.93-61.34-44.52c-13.838-0.861-27.677,5.126-41.143,17.78c-17.287,16.242-16.419,39.601-15.739,46.376   c0.572,5.748,3.636,14.831,8.276,24.917c-1.05,4.622-3.457,10.542-3.343,14.316c0.749,24.261,1.353,29.893,6.609,40.476   c4.352,8.741,5.14,26.662,5.786,30.557c1.644,9.94-8.506,16.963-9.471,17.852c-0.975,0.883-2.729,1.846-0.792,2.72   c2.926,1.307,5.08-2.083,8.034-4.22c2.959-2.142,4.552-2.032,4.343,1.16c-0.22,3.191-0.098,7.141,1.881,11.164   c1.98,4.035,3.923-0.383,5.086-4.717c1.157-4.343,1.444-4.109,3.319-1.121c1.882,2.988,2.735,3.694,4.282,0.64   c1.554-3.061,4.197-3.049,4.377-1.225c0.179,1.837,2.847,4.745,6.674,8.854c3.841,4.111,3.043-3.993,2.287-6.295   c-0.749-2.306-0.767-5.206,1.688-4.389c2.455,0.815,4.589,3.776,6.134,5.996c1.538,2.226,3.344,1.79,2.752-4.229   c-0.59-6.021,0.348-4.52,1.499-3.576c1.148,0.947,3.2,8.189,7.909,10.366c4.702,2.182,5.752-4.357,2.493-7.997   c-0.818-0.914-1.62-4.367-1.748-5.232l0.393-0.634c0.266-4.071,6.995,8.034,8.055,10.904c1.133,3.057,8.32,6.65,8.68-0.277   c0.609-11.999-5.996-18.995-6.975-20.482c-0.974-1.491-3.069-1.68,0.227-2.004c3.289-0.32,10.585,2.132,13.363,5.033   c3.776,3.941,6.521,2.927,3.356-3.892c-2.399-5.189-0.502-5.106,2.381-5.39c2.881-0.278,5.056,0.694,3.359-3.893   c-1.696-4.584-14.999-13.179-16.344-14.24c-1.355-1.056-2.33-2.549,0.555-2.828c2.875-0.286,12.903,0.323,18.248-0.201   c5.353-0.523,6.918-1.473,4.254-3.196c-2.653-1.715-3.186-2.856,4.218-3.579c3.706-0.365,5.11-0.897,4.981-1.624l-1.632-4.044   c-0.143-2.915-5.11-8.199-8.174-10.873c-4.915-4.271,0.105-4.238,1.94-4.413c1.83-0.177,5.381,1.055,2.621-2.896   c-2.765-3.958-10.5-7.423-15.937-9.001c-5.433-1.577,4.353-1.714,6.368-2.708c2.017-0.98,3.655-2.083-4.982-1.592   c-3.685,0.217-27.703,5.64-40.881-4.953c-13.193-10.59-19.381-11.73-30.98-16.933c-2.306-1.035-8.798-3.119-11.619-5.792   c-2.978-7.08-4.927-13.254-5.335-17.333c-0.582-5.824-1.358-25.885,13.175-39.528c11.913-11.193,23.352-16.281,34.982-15.56   c22.137,1.37,40.635,23.646,55.49,41.55l5.99,7.134c22.826,26.635,40.37,37.057,64.767,46.985   c17.884,7.273,35.682,7.705,49.974,8.058c0,0,35.55,2.155,48.025,17.313c6.363,7.736,16.128,20.668,20.692,22.539   c7.145,2.922,0.067,7.431,0.486,8.287c0.416,0.852-0.839,2.799,0.649,2.597c1.486-0.203,3.415-2.208,4.267-2.412   c0.853-0.208,3.916,1.787,4.979,2.637c1.047,0.85-2.259,2.289-2.898,3.343c-0.651,1.058,1.032,2.475,1.878,2.057   c0.854-0.421,1.6-1.207,2.668-2.048c1.061-0.846,2.11,2.759,2.11,2.759s-0.821-0.029-1.464,0.818   c-0.644,0.844-0.956,1.244-0.326,1.461c0.635,0.212,0.124,0.172,1.625-1.303c1.501-1.472,2.273,4.875,2.438,6.341   c0.104,0.893-4.343,0.389-2.764,2.592c0.65,0.917,2.193-0.268,2.395-0.508c0.746-0.379,1.878,0.288,2.8,2.301   c0.825,1.778-1.946,0.817-1.615,1.952c0.365,1.289,1.464,0.978,1.464,0.978c0.969,1.779-1.142,3.247,1.136,3.568   c1.414,0.204,1.612,5.215,0.973,5.847c-0.638,0.64-4.176,0.152-3.572,1.949c0.322,0.978,1.783-0.322,3.735-0.642   c1.725-0.289,0.388,3.499,0.812,5.199c0.428,1.692-3.587,1.852-4.225,2.274c-0.637,0.424,4.123-0.472,4.876,1.623   c0.752,2.102,0.074,2.373,1.139,3.645c1.067,1.274,2.267,3.639-0.493,4.918c-2.759,1.27,4.121,5.342,4.121,8.665   c0,5.402,2.893,4.156,1.834,5.223c-1.062,1.06-1.183,4.524,0.328,3.874c1.141-0.487,2.089,5.536,2.387,7.802   c0.644,4.976,0.095,3.404-0.542,5.527c-0.639,2.117,1.49,1.452,1.841,4.227c1.089,8.445,3.799,7.97,4.003,11.369   c0.218,3.399-1.409-0.231-1.616,4.44c-0.219,4.676,3.47,5.768,3.679,11.918c0.212,6.159,1.959,3.613,2.633,14.843   c0.484,7.986,1.428,19.829,0.999,26.496l-0.444,2.594c-0.173,1.132-0.422,1.961-0.76,2.412c-2.129,2.76-0.423,7.006,0,7.85   c0.423,0.848,0.842,6.792,0,8.704c-0.854,1.914-1.489,7.432,0,9.342c1.481,1.909,1.267,5.308,0,7.854   c-1.275,2.547-1.533,5.68,0,11.037c1.696,5.95-0.423,10.195,0,12.742c0.423,2.546,0.29,13.459-7.918,17.553   c-9.474,4.729-21.941-3.709-22.211-3.872c0,0,10.469,15.569,35.104,15.188c26.046-0.404,33.388-14.673,33.388-14.673   c-5.896,3.46-16.573,7.517-22.972,3.042c-7.512-5.26-8.924-14.691-8.496-17.237c0.428-2.547-1.693-6.792,0-12.742   c1.533-5.357,1.276-8.49,0-11.037c-1.272-2.546-1.489-5.944,0-7.854c1.486-1.91,0.853-7.428,0-9.342   c-0.848-1.912-0.428-7.856,0-8.704c0.428-0.844,2.122-5.09,0-7.85c-0.343-0.451-0.598-1.29-0.765-2.442L270.596,635.662z"/>
	<g clip-path="url(#SVGID_9_)">
		<g>
			<radialGradient id="SVGID_14_" cx="511.5547" cy="510.1997" r="36.9246" gradientUnits="userSpaceOnUse">
				<stop offset="0.0056" style="stop-color:#FFFFFF"/>
				<stop offset="0.4775" style="stop-color:#FAD6C7"/>
				<stop offset="1" style="stop-color:#D4BDDC"/>
			</radialGradient>
			<path fill="url(#SVGID_14_)" d="M463.871,491.605c0.762,0.277,1.466,0.485,2.098,0.607c-1.019-4.109,8.805-11.639,12.74-8.13     c3.936,3.51-1.331,0.024,1.051-0.822c2.379-0.85,7.763-4.557,10.732-2.493c1.583-0.567,20.833-2.976,25.848,1.046     c3.99-0.086,13.072,3.883,13.693,8.125c7.61-0.359,19.184,16.337,16.132,22.793c3.005,3.393,0.25,11.978-3.456,12.852     c0.454,2.521-1.866,18.546-16.592,14.867c-2.602,2.724-16.96,10.196-27.776,0.189c-8.281,2.698-13.854-7.205-17.529-8.137     c-10.57-2.692-14.329-16.336-15.067-19.649c-1.466-0.369-8.097-5.154-3.029-10.982c-0.256-0.414-0.698-0.917-1.293-1.508"/>
			<linearGradient id="SVGID_15_" gradientUnits="userSpaceOnUse" x1="402.207" y1="473.1284" x2="463.8711" y2="473.1284">
				<stop offset="0.0056" style="stop-color:#FAD6C7"/>
				<stop offset="1" style="stop-color:#D4BDDC"/>
			</linearGradient>
			<path fill="url(#SVGID_15_)" d="M461.422,500.363c-8.942-8.829-53.412-36.453-59.215-44.97l5.777-9.5     c1.583,6.685,40.808,40.275,55.887,45.711"/>
		</g>
		<path fill="none" stroke="#000000" stroke-width="0.75" d="M408.261,446.168c1.664,7.029,44.88,43.764,57.984,46.32    c-1.022-4.104,8.807-11.639,12.738-8.129c3.934,3.508-1.329,0.023,1.047-0.822c2.387-0.852,7.763-4.558,10.735-2.492    c1.584-0.569,20.836-2.979,25.855,1.044c3.987-0.089,13.067,3.883,13.685,8.125c7.612-0.358,19.186,16.335,16.127,22.791    c3.008,3.393,0.259,11.975-3.449,12.855c0.456,2.525-1.872,18.55-16.59,14.867c-2.604,2.721-16.956,10.197-27.778,0.189    c-8.281,2.695-13.858-7.203-17.527-8.14c-10.576-2.687-14.328-16.336-15.069-19.649c-1.468-0.366-8.095-5.154-3.035-10.981    c-4.123-6.57-54.306-37.395-60.505-46.478"/>
		<path d="M485.037,485.802c-1.967-0.458-3.994-0.053-5.808,0.934c-1.759,0.95-2.951,2.859-2.813,4.877    c0.006,0.202,0.148,0.371,0.367,0.375c0.188,0.01,0.36-0.153,0.356-0.34c0.013-3.897,4.434-6.021,7.871-5.589    c0.079-0.009,0.134-0.05,0.147-0.114C485.154,485.883,485.107,485.813,485.037,485.802L485.037,485.802z"/>
		<path d="M467.917,507.816c-1.087,1.486-1.649,3.323-1.19,5.141c0.664,2.729,3.301,4.52,6.038,4.714    c0.229,0.046,0.454-0.09,0.496-0.32c0.046-0.221-0.093-0.453-0.341-0.49c-2.413-0.208-4.551-1.778-5.304-4.056    c-0.518-1.583-0.439-3.417,0.541-4.843c0.022-0.066,0.012-0.152-0.064-0.188C468.032,507.73,467.966,507.761,467.917,507.816    L467.917,507.816z"/>
		<path d="M524.47,489.48c5.438,0.436,9.987,4.869,10.162,10.36c0.045,0.257,0.278,0.446,0.551,0.417    c0.257-0.029,0.438-0.285,0.41-0.549c0.036-5.967-5.16-10.784-11.101-10.508c-0.079-0.015-0.144,0.053-0.162,0.12    C524.32,489.408,524.385,489.48,524.47,489.48L524.47,489.48z"/>
		<path d="M506.343,537.289c-3.544,4.045-10.31,2.342-13.586-1.288c-0.143-0.161-0.375-0.161-0.524,0    c-0.137,0.156-0.141,0.387-0.004,0.524c3.286,4.065,10.934,5.751,14.3,0.934c0.053-0.04,0.036-0.127,0.004-0.176    C506.466,537.246,506.392,537.252,506.343,537.289L506.343,537.289z"/>
		<path d="M529.486,535.291c-1.739,3.438-5.815,5.927-9.701,5.126c-0.241-0.021-0.472,0.164-0.504,0.417    c-0.012,0.256,0.174,0.479,0.416,0.518c4.205,0.828,8.478-2.119,10.037-5.938c0.022-0.054,0.012-0.133-0.057-0.17    C529.6,535.209,529.521,535.237,529.486,535.291L529.486,535.291z"/>
		<path d="M518.517,484.713c-1.28-2.404-4.119-3.582-6.705-3.517c-3.423,0.066-6.766,1.595-8.912,4.317    c-0.155,0.158-0.147,0.411-0.004,0.568c0.157,0.159,0.409,0.152,0.563-0.01c2.54-2.483,6.034-4.532,9.693-3.968    c1.933,0.3,4.103,0.958,5.147,2.746c0.034,0.053,0.121,0.067,0.174,0.022C518.517,484.834,518.541,484.764,518.517,484.713    L518.517,484.713z"/>
		<path d="M466.683,502.413c-1.942-4.337-5.785-7.3-9.806-9.608c-0.216-0.127-0.49-0.076-0.621,0.148    c-0.133,0.212-0.073,0.482,0.143,0.62c3.92,2.296,7.656,5.066,10.064,8.98c0.042,0.067,0.129,0.079,0.178,0.041    C466.713,502.548,466.727,502.474,466.683,502.413L466.683,502.413z"/>
	</g>
	<g clip-path="url(#SVGID_9_)">
		<g>
			
				<radialGradient id="SVGID_16_" cx="556.5186" cy="512.6777" r="36.9238" gradientTransform="matrix(-1 0 0 1 582.2266 0)" gradientUnits="userSpaceOnUse">
				<stop offset="0.0056" style="stop-color:#FFFFFF"/>
				<stop offset="0.4775" style="stop-color:#FAD6C7"/>
				<stop offset="1" style="stop-color:#D4BDDC"/>
			</radialGradient>
			<path fill="url(#SVGID_16_)" d="M73.394,494.088c-0.77,0.276-1.474,0.478-2.104,0.605c1.017-4.11-8.81-11.643-12.742-8.132     c-3.935,3.51,1.334,0.025-1.042-0.824c-2.387-0.849-7.765-4.557-10.737-2.493c-1.59-0.568-20.837-2.972-25.856,1.046     c-3.983-0.086-13.064,3.881-13.685,8.125c-7.614-0.363-19.181,16.339-16.128,22.794c-3.003,3.393-0.257,11.975,3.447,12.852     c-0.45,2.521,1.875,18.546,16.595,14.87c2.606,2.72,16.957,10.191,27.776,0.187c8.277,2.698,13.856-7.206,17.524-8.137     c10.579-2.692,14.337-16.336,15.07-19.652c1.472-0.369,8.098-5.15,3.038-10.981c0.256-0.412,0.694-0.914,1.291-1.502"/>
			
				<linearGradient id="SVGID_17_" gradientUnits="userSpaceOnUse" x1="447.1758" y1="475.6074" x2="508.832" y2="475.6074" gradientTransform="matrix(-1 0 0 1 582.2266 0)">
				<stop offset="0.0056" style="stop-color:#FAD6C7"/>
				<stop offset="1" style="stop-color:#D4BDDC"/>
			</linearGradient>
			<path fill="url(#SVGID_17_)" d="M75.84,502.845c8.944-8.833,53.405-36.458,59.211-44.975l-5.776-9.5     c-1.59,6.691-40.803,40.28-55.881,45.718"/>
		</g>
		<path fill="none" stroke="#000000" stroke-width="0.75" d="M128.994,448.648c-1.662,7.027-44.876,43.755-57.978,46.321    c1.016-4.11-8.808-11.643-12.739-8.131c-3.938,3.511,1.33,0.026-1.048-0.829c-2.379-0.845-7.762-4.553-10.734-2.49    c-1.584-0.561-20.837-2.973-25.855,1.048c-3.989-0.088-13.062,3.883-13.686,8.123c-7.614-0.358-19.183,16.334-16.128,22.794    c-3.003,3.392-0.253,11.979,3.45,12.851c-0.453,2.524,1.87,18.552,16.594,14.867c2.602,2.723,16.955,10.196,27.775,0.191    c8.283,2.696,13.856-7.205,17.526-8.14c10.58-2.69,14.331-16.335,15.072-19.648c1.471-0.366,8.1-5.153,3.033-10.985    c4.124-6.566,54.312-37.393,60.507-46.474"/>
		<path d="M52.223,488.28c1.964-0.461,3.992-0.056,5.802,0.933c1.766,0.944,2.957,2.862,2.822,4.88    c-0.015,0.203-0.154,0.368-0.368,0.371c-0.191,0.013-0.36-0.15-0.36-0.338c-0.012-3.895-4.433-6.022-7.869-5.586    c-0.085-0.01-0.127-0.049-0.146-0.117C52.104,488.362,52.146,488.295,52.223,488.28L52.223,488.28z"/>
		<path d="M69.34,510.298c1.094,1.484,1.657,3.323,1.194,5.131c-0.657,2.735-3.304,4.526-6.041,4.721    c-0.221,0.048-0.448-0.097-0.49-0.32c-0.053-0.222,0.093-0.453,0.337-0.489c2.417-0.214,4.55-1.782,5.298-4.057    c0.524-1.587,0.442-3.424-0.539-4.849c-0.019-0.063-0.009-0.149,0.069-0.183C69.228,510.21,69.298,510.24,69.34,510.298    L69.34,510.298z"/>
		<path d="M12.789,491.959c-5.431,0.434-9.987,4.87-10.16,10.362c-0.049,0.256-0.286,0.445-0.548,0.414    c-0.255-0.033-0.444-0.286-0.408-0.551c-0.036-5.963,5.15-10.78,11.094-10.504c0.089-0.016,0.146,0.049,0.162,0.115    C12.943,491.882,12.879,491.954,12.789,491.959L12.789,491.959z"/>
		<path d="M30.92,539.762c3.539,4.05,10.312,2.348,13.577-1.285c0.148-0.16,0.377-0.16,0.529,0c0.134,0.158,0.14,0.39,0.006,0.529    c-3.286,4.063-10.927,5.746-14.301,0.926c-0.054-0.03-0.037-0.119,0-0.17C30.79,539.719,30.868,539.731,30.92,539.762    L30.92,539.762z"/>
		<path d="M7.781,537.774c1.733,3.438,5.811,5.92,9.699,5.125c0.235-0.023,0.46,0.162,0.5,0.408c0.018,0.262-0.174,0.488-0.42,0.524    c-4.206,0.829-8.482-2.122-10.032-5.935c-0.03-0.058-0.011-0.138,0.058-0.174C7.665,537.685,7.738,537.715,7.781,537.774    L7.781,537.774z"/>
		<path d="M18.745,487.19c1.273-2.401,4.117-3.578,6.706-3.514c3.429,0.063,6.767,1.593,8.908,4.316    c0.155,0.158,0.149,0.411,0.009,0.569c-0.165,0.155-0.414,0.146-0.563-0.014c-2.537-2.483-6.04-4.531-9.694-3.963    c-1.93,0.299-4.105,0.953-5.143,2.745c-0.04,0.051-0.125,0.064-0.18,0.02C18.738,487.313,18.726,487.244,18.745,487.19    L18.745,487.19z"/>
		<path d="M70.578,504.889c1.943-4.333,5.783-7.298,9.805-9.602c0.213-0.136,0.489-0.078,0.628,0.14    c0.127,0.214,0.076,0.488-0.143,0.622c-3.933,2.293-7.667,5.068-10.072,8.979c-0.042,0.071-0.126,0.082-0.18,0.04    C70.554,505.027,70.534,504.954,70.578,504.889L70.578,504.889z"/>
	</g>
</g>
<line fill="none" stroke="#333333" x1="283.5" y1="161" x2="283.5" y2="216"/>
<line fill="none" stroke="#333333" x1="268" y1="277.5" x2="308" y2="277.5"/>
<line fill="none" stroke="#333333" x1="188" y1="326.5" x2="146" y2="326.5"/>
<line fill="none" stroke="#333333" x1="189" y1="335.5" x2="147" y2="335.5"/>
<line fill="none" stroke="#333333" x1="146.5" y1="327" x2="146.5" y2="336"/>
<line fill="none" stroke="#333333" x1="146" y1="331.5" x2="126" y2="331.5"/>
<line fill="none" stroke="#333333" x1="129" y1="349.5" x2="190" y2="349.5"/>
<line fill="none" stroke="#333333" x1="258" y1="298.5" x2="193" y2="298.5"/>
</svg>