<?xml version="1.0" encoding="UTF-8" standalone="no"?>
<!-- Created with Inkscape (http://www.inkscape.org/) -->

<svg
   xmlns:dc="http://purl.org/dc/elements/1.1/"
   xmlns:cc="http://creativecommons.org/ns#"
   xmlns:rdf="http://www.w3.org/1999/02/22-rdf-syntax-ns#"
   xmlns:svg="http://www.w3.org/2000/svg"
   xmlns="http://www.w3.org/2000/svg"
   xmlns:sodipodi="http://sodipodi.sourceforge.net/DTD/sodipodi-0.dtd"
   xmlns:inkscape="http://www.inkscape.org/namespaces/inkscape"
   version="1.0"
   width="211.66292"
   height="520.05621"
   viewBox="1 1 211.66292 520.05621"
   id="svg2"
   xml:space="preserve"
   inkscape:version="0.48.2 r9819"
   sodipodi:docname="west_coast.svg"><metadata
   id="metadata212"><rdf:RDF><cc:Work
       rdf:about=""><dc:format>image/svg+xml</dc:format><dc:type
         rdf:resource="http://purl.org/dc/dcmitype/StillImage" /><dc:title></dc:title></cc:Work></rdf:RDF></metadata><sodipodi:namedview
   pagecolor="#ffffff"
   bordercolor="#666666"
   borderopacity="1"
   objecttolerance="10"
   gridtolerance="10"
   guidetolerance="10"
   inkscape:pageopacity="0"
   inkscape:pageshadow="2"
   inkscape:window-width="1292"
   inkscape:window-height="796"
   id="namedview210"
   showgrid="false"
   showguides="true"
   inkscape:guide-bbox="true"
   fit-margin-top="0"
   fit-margin-left="0"
   fit-margin-right="0"
   fit-margin-bottom="0"
   inkscape:zoom="0.50375"
   inkscape:cx="75.575914"
   inkscape:cy="258.78563"
   inkscape:window-x="0"
   inkscape:window-y="0"
   inkscape:window-maximized="1"
   inkscape:current-layer="svg2" />
<defs
   id="defs4">
</defs>









































































<path
   d="m 99.372407,0.9999998 6.071123,1.737449 13.45391,3.1832083 11.85513,2.1571358 27.79922,6.5620381 31.79621,6.392237 22.31493,4.131606 -1.14315,5.393542 -4.36359,18.724058 -4.86518,28.811007 -4.0241,22.790309 0.31953,13.32049 -19.36556,-3.84535 -20.88853,-3.95932 -21.13276,1.0794 -0.71144,-1.85392 -7.38937,3.15416 -6.14894,-0.52553 -3.3774,-2.04431 -1.68106,1.01126 -6.43815,-0.0304 -2.42893,-1.77903 -7.32566,-2.51247 -1.09009,0.2054 -6.041288,-1.77482 -2.552219,2.62305 -8.477176,-0.0993 -8.392462,-5.284351 0.896253,-1.139387 -0.150349,-10.676316 -3.36621,-5.196874 -5.686059,-0.550228 -1.089959,-3.4067 -3.251603,-0.50306 -2.71529,-1.942412 -2.378492,1.44303 -3.271932,-3.861694 0.266254,-4.016002 3.748326,-0.605372 1.974671,-5.641723 -3.614766,-1.393625 -0.0027,-5.118101 5.945751,-1.138609 -3.927497,-3.607643 -2.421868,-9.675336 0.711959,-4.021926 -0.474381,-10.878622 -2.629676,-4.318106 2.53671,-12.9985942 2.915395,0.5402728 3.496327,3.8429104 3.913464,3.387284 4.553604,2.471017 6.32544,2.610208 4.246806,0.703175 4.074777,1.819988 4.711313,1.129343 3.088069,-0.355621 -0.145042,-3.326139 1.703644,-1.630057 2.804335,-1.903509 0.50845,1.538089 0.551209,2.41557 -3.068805,0.79671 -0.319012,2.90897 2.523494,1.883121 1.700458,3.253818 0.997361,2.626103 1.98673,-0.30311 0.14253,-1.787447 -1.4085,-1.724325 -0.85423,-4.404547 1.00433,-2.483392 -0.97266,-1.955272 -0.13523,-3.101103 2.21952,-4.985007 L 101.10709,9.8080004 97.494363,3.2960773 97.886623,2.169649 99.3716,1.000085 z m -12.595069,8.7654303 2.755167,-0.3456479 0.747665,1.8568608 2.011795,-2.3108887 3.21004,-0.1399792 1.202751,2.0669939 -2.002795,2.414215 0.934136,1.073083 -0.872675,2.815871 -1.859865,0.631255 c 0,0 -1.213268,0.170178 -1.232699,-0.275418 -0.01943,-0.445617 1.837214,-3.629044 1.837214,-3.629044 l -2.362635,-0.6726 -0.353781,2.008599 -0.964068,0.925889 -2.23931,-3.00936 -0.810851,-3.4098428 z"
   id="WA_1_"
   style="fill:#f3e8e1;fill-opacity:1;stroke:none;opacity:0.6"
   inkscape:connector-curvature="0" /><path
   d="m 182.19346,521.05586 5.62061,-1.3634 1.90713,-3.05941 0.61819,-3.79692 -5.04707,-0.56457 -0.67281,-1.07096 0.52227,-2.38127 -0.19106,-7.99579 2.77791,-1.06366 3.7563,-3.93371 0.48791,-6.78539 1.81817,-5.09827 2.54496,-2.78961 4.60044,-2.54999 2.11198,-1.97705 0.0205,-3.14399 -1.44585,-0.72151 -1.15825,-1.35648 -2.07108,-7.93199 -4.05665,-6.56917 0.59987,-4.52657 -3.65124,-4.29609 -21.25069,-30.34186 -28.36586,-38.66702 -33.19386,-45.05385 -18.074618,-24.75326 1.846002,-9.1084 8.006346,-36.00526 9.23806,-43.60325 -18.701575,-4.21701 -18.683151,-3.89767 -17.478628,-4.88814 -10.46377,-2.37563 -15.836978,-3.39494 -9.810578,-2.89115 -1.879934,6.57556 0.219573,10.20431 -6.38363,16.50783 -4.053681,3.72569 -0.3773148,1.5722 -2.3882623,1.21799 -1.7402564,5.85248 -0.9128844,4.4771 4.0189784,5.60133 2.4674954,5.65997 1.7595554,4.81601 -0.053695,8.89045 -2.2528373,4.32359 -0.5377177,8.01867 -1.1082045,5.16201 2.6687315,5.21379 4.0339283,6.04713 3.392457,6.52151 2.012965,5.46336 -0.242933,4.44786 -0.420548,0.68573 0.125612,2.88058 8.128329,8.31719 -0.516253,3.34597 -0.754757,3.14442 -0.769661,2.69865 0.713267,11.30111 3.10423,4.97383 2.811915,3.43533 3.791927,0.49752 1.495243,3.71372 -1.338332,4.94658 -2.780571,2.3444 -1.551084,0.0676 -0.878314,5.37297 0.839278,3.95876 4.689304,5.78857 2.535604,7.22177 2.277015,6.35371 1.95511,4.13556 5.001596,7.78616 2.146129,3.45532 0.839478,3.96325 2.270278,1.24028 0.144848,3.32168 -0.989829,2.71273 -2.011232,9.8642 -0.549579,2.68455 3.491393,3.6267 5.788286,0.41501 6.310484,2.16439 5.439969,2.65336 3.992306,-0.17409 4.167061,4.0391 3.837568,6.50208 1.686269,3.03355 5.439965,2.65326 6.693178,0.81747 2.117474,2.79819 1.083705,4.39905 -1.957489,0.97369 0.498443,1.3086 4.476701,0.91407 3.77759,0.0656 4.26361,6.25342 5.57454,5.53352 1.24568,3.05272 3.7897,5.6113 0.63816,4.4095 0.56113,12.86794 0.77156,2.40597 13.81736,1.39526 27.19371,2.59303 20.02698,1.34984 z m -124.396606,-63.78629 1.867934,2.0335 -0.14745,1.78767 -4.433317,0.0806 -0.845727,-1.62707 -0.973039,-1.9643 4.531424,-0.3103 z m 2.657105,-0.11586 1.624776,-0.95918 4.999338,2.67257 4.280571,1.47725 -1.179705,0.93985 -6.214339,-0.0626 -2.313036,-2.11776 -1.1976,-1.95001 z m 29.54016,25.93079 2.577117,3.11189 1.164269,1.2885 2.133341,0.68255 0.686361,-2.02754 -1.432904,-2.38617 -3.775823,-2.60867 -1.429078,0.28322 0.07223,1.65636 0.004,-1.7e-4 z m -1.478794,11.95126 2.620875,4.21933 1.784156,2.5918 -1.982033,0.41107 -1.843821,-1.5836 c 0,0 -1.085009,-1.95039 -1.10915,-2.50401 -0.02414,-0.55356 -0.130713,-2.99752 -0.130713,-2.99752 l 0.660688,-0.13702 z"
   id="CA_1_"
   style="fill:#f3e8e1;fill-opacity:1;stroke:none;opacity:0.6"
   inkscape:connector-curvature="0" /><path
   d="m 174.50535,232.46698 5.02514,-25.03908 4.88819,-24.56412 1.63101,-5.87928 3.08816,-8.30575 -1.85867,-3.06205 -3.44151,0.30796 -1.15392,-1.36115 0.56075,-1.60276 0.28307,-4.25121 5.77723,-7.7917 2.48125,-0.73952 1.50075,-1.63472 0.59071,-4.42699 1.20905,-0.99068 4.97884,-8.23038 5.06306,-6.19579 0.0893,-5.18073 -4.85561,-3.40483 -1.6848,-5.68509 -19.45671,-4.07584 -20.88853,-3.95934 -21.13277,1.07936 -0.71143,-1.85391 -7.38936,3.15415 -6.14894,-0.52553 -3.37736,-2.04431 -1.6811,1.01127 -6.43817,-0.0304 -2.42888,-1.77902 -7.32566,-2.5125 -1.09014,0.20542 -6.041235,-1.77482 -2.552259,2.62305 -8.477175,-0.0993 -8.392472,-5.284344 0.896303,-1.13939 -0.15035,-10.676316 -3.36617,-5.196886 -5.685903,-0.54572 -1.089958,-3.4067 -3.251603,-0.50305 -7.825656,3.168665 -2.715326,9.006515 -3.829018,13.938776 -4.04142,9.06886 -6.023999,19.59012 -8.048806,19.02006 -10.323766,17.77545 -2.483014,4.10815 -0.597998,11.8002 -1.418084,8.28256 3.321192,6.02409 9.801219,2.88252 15.836981,3.39495 10.46377,2.37564 17.478627,4.88813 18.683151,3.89766 18.715159,4.52758 m 64.63872,12.19323 -64.94803,-12.36463 46.53338,9.14971 18.9751,3.25812"
   id="OR_1_"
   style="fill:#f3e8e1;fill-opacity:1;stroke:none;opacity:0.6"
   inkscape:connector-curvature="0" />





















































































































































































































































































































































</svg>