<?xml version="1.0" encoding="UTF-8" standalone="no"?>
<!-- Created with Inkscape (http://www.inkscape.org/) -->

<svg
   xmlns:dc="http://purl.org/dc/elements/1.1/"
   xmlns:cc="http://creativecommons.org/ns#"
   xmlns:rdf="http://www.w3.org/1999/02/22-rdf-syntax-ns#"
   xmlns:svg="http://www.w3.org/2000/svg"
   xmlns="http://www.w3.org/2000/svg"
   version="1.0"
   width="211.66292"
   height="520.05621"
   viewBox="1 1 211.66292 520.05621"
   id="svg2"
   xml:space="preserve"><metadata
   id="metadata212"><rdf:RDF><cc:Work
       rdf:about=""><dc:format>image/svg+xml</dc:format><dc:type
         rdf:resource="http://purl.org/dc/dcmitype/StillImage" /><dc:title></dc:title></cc:Work></rdf:RDF></metadata>
<defs
   id="defs4">
</defs>









































































<path
   d="m 242.67506,0.9999998 14.91515,1.737449 33.05271,3.1832083 29.12493,2.1571358 68.29535,6.5620381 78.11491,6.392237 54.82189,4.131606 -2.80841,5.393542 -10.72019,18.724058 -11.95247,28.811007 -9.88615,22.790309 0.785,13.32049 -47.57607,-3.84535 -51.31761,-3.95932 -51.91762,1.0794 -1.74782,-1.85392 -18.15374,3.15416 -15.10632,-0.52553 -8.29738,-2.04431 -4.12992,1.01126 -15.81684,-0.0304 -5.96724,-1.77903 -17.99722,-2.51247 -2.67806,0.2054 -14.84185,-1.77482 -6.27013,2.62305 -20.82619,-0.0993 -20.61806,-5.284351 2.20186,-1.139387 -0.36937,-10.676316 -8.26989,-5.196874 -13.96915,-0.550228 -2.67774,-3.4067 -7.98833,-0.50306 -6.67075,-1.942412 -5.84333,1.44303 -8.03828,-3.861694 0.65412,-4.016002 9.20865,-0.605372 4.85124,-5.641723 -8.88052,-1.393625 -0.007,-5.118101 14.60715,-1.138609 -9.64883,-3.607643 -5.94989,-9.675336 1.7491,-4.021926 -1.16543,-10.878622 -6.46042,-4.318106 6.23202,-12.9985942 7.16236,0.5402728 8.58955,3.8429104 9.61435,3.387284 11.18701,2.471017 15.53994,2.610208 10.43328,0.703175 10.01065,1.819988 11.57445,1.129343 7.58658,-0.355621 -0.35633,-3.326139 4.1854,-1.630057 6.88951,-1.903509 1.24913,1.538089 1.35417,2.41557 -7.53924,0.79671 -0.78373,2.90897 6.19956,1.883121 4.17758,3.253818 2.45025,2.626103 4.88087,-0.30311 0.35016,-1.787447 -3.46031,-1.724325 -2.09862,-4.404547 2.46737,-2.483392 -2.38957,-1.955272 -0.33222,-3.101103 5.45278,-4.985007 -4.17949,-3.4792986 -8.87552,-6.5119231 0.96368,-1.1264283 3.6482,-1.169564 z m -30.94276,8.7654303 6.76872,-0.3456479 1.83681,1.8568608 4.94245,-2.3108887 7.88623,-0.1399792 2.95484,2.0669939 -4.92034,2.414215 2.29493,1.073083 -2.14394,2.815871 -4.56919,0.631255 c 0,0 -2.98068,0.170178 -3.02842,-0.275418 -0.0477,-0.445617 4.51355,-3.629044 4.51355,-3.629044 l -5.80437,-0.6726 -0.86915,2.008599 -2.36846,0.925889 -5.50139,-3.00936 -1.99205,-3.4098428 z"
   id="WA_1_"
   style="opacity:0.6;fill:#000000;fill-opacity:1;stroke:none" /><path
   d="m 446.14455,521.05586 13.80836,-1.3634 4.68531,-3.05941 1.51873,-3.79692 -12.39932,-0.56457 -1.65291,-1.07096 1.28308,-2.38127 -0.46939,-7.99579 6.82459,-1.06366 9.22824,-3.93371 1.19867,-6.78539 4.46676,-5.09827 6.2523,-2.78961 11.30207,-2.54999 5.18858,-1.97705 0.0504,-3.14399 -3.55207,-0.72151 -2.84552,-1.35648 -5.0881,-7.93199 -9.96612,-6.56917 1.47373,-4.52657 -8.97014,-4.29609 -52.20734,-30.34186 -69.68744,-38.66702 -81.54856,-45.05385 -44.40457,-24.75326 4.53514,-9.1084 19.66948,-36.00526 22.69548,-43.60325 -45.94484,-4.21701 -45.89957,-3.89767 -42.94038,-4.88814 -25.70673,-2.37563 -38.907276,-3.39494 -24.102003,-2.89115 -4.618502,6.57556 0.539433,10.20431 -15.682896,16.50783 -9.958825,3.72569 -0.926963,1.5722 -5.8673306,1.21799 -4.2753511,5.85248 -2.2427162,4.4771 9.8735699,5.60133 6.061986,5.65997 4.322763,4.81601 -0.131914,8.89045 -5.534627,4.32359 -1.321031,8.01867 -2.722566,5.16201 6.55637,5.21379 9.910298,6.04713 8.334372,6.52151 4.945324,5.46336 -0.596822,4.44786 -1.033176,0.68573 0.308596,2.88058 19.969161,8.31719 -1.268298,3.34597 -1.854239,3.14442 -1.890854,2.69865 1.752309,11.30111 7.626275,4.97383 6.908133,3.43533 9.315765,0.49752 3.673418,3.71372 -3.287929,4.94658 -6.83113,2.3444 -3.810604,0.0676 -2.157786,5.37297 2.061885,3.95876 11.520383,5.78857 6.229311,7.22177 5.594025,6.35371 4.80319,4.13556 12.287602,7.78616 5.27247,3.45532 2.06238,3.96325 5.57747,1.24028 0.35586,3.32168 -2.43175,2.71273 -4.94107,9.8642 -1.35017,2.68455 8.57743,3.6267 14.2203,0.41501 15.50319,2.16439 13.36457,2.65336 9.80804,-0.17409 10.23737,4.0391 9.4279,6.50208 4.14271,3.03355 13.36456,2.65326 16.44338,0.81747 5.20207,2.79819 2.66238,4.39905 -4.80903,0.97369 1.22454,1.3086 10.99807,0.91407 9.28054,0.0656 10.47457,6.25342 13.69517,5.53352 3.06031,3.05272 9.3103,5.6113 1.56779,4.4095 1.37854,12.86794 1.89552,2.40597 33.94561,1.39526 66.80778,2.59303 49.20101,1.34984 z m -305.60966,-63.78629 4.58902,2.0335 -0.36224,1.78767 -10.89149,0.0806 -2.07773,-1.62707 -2.3905,-1.9643 11.13251,-0.3103 z m 6.52781,-0.11586 3.99165,-0.95918 12.28205,2.67257 10.51624,1.47725 -2.89823,0.93985 -15.26699,-0.0626 -5.68252,-2.11776 -2.94219,-1.95001 z m 72.57238,25.93079 6.3313,3.11189 2.8603,1.2885 5.24106,0.68255 1.68621,-2.02754 -3.52027,-2.38617 -9.2762,-2.60867 -3.51087,0.28322 0.17745,1.65636 0.01,-1.7e-4 z m -3.633,11.95126 6.43879,4.21933 4.38321,2.5918 -4.86934,0.41107 -4.52978,-1.5836 c 0,0 -2.66558,-1.95039 -2.72489,-2.50401 -0.0593,-0.55356 -0.32113,-2.99752 -0.32113,-2.99752 l 1.62314,-0.13702 z"
   id="CA_1_"
   style="opacity:0.6;fill:#000000;fill-opacity:1;stroke:none" /><path
   d="m 427.25689,232.46698 12.34545,-25.03908 12.00899,-24.56412 4.00696,-5.87928 7.5868,-8.30575 -4.56627,-3.06205 -8.45488,0.30796 -2.83488,-1.36115 1.37762,-1.60276 0.69543,-4.25121 14.19313,-7.7917 6.09578,-0.73952 3.68694,-1.63472 1.45122,-4.42699 2.97032,-0.99068 12.2317,-8.23038 12.4386,-6.19579 0.21939,-5.18073 -11.92896,-3.40483 -4.13911,-5.68509 -47.8,-4.07584 -51.31761,-3.95934 -51.91765,1.07936 -1.74779,-1.85391 -18.15371,3.15415 -15.10633,-0.52553 -8.29728,-2.04431 -4.13002,1.01127 -15.81688,-0.0304 -5.96712,-1.77902 -17.99722,-2.5125 -2.67818,0.20542 -14.84172,-1.77482 -6.27023,2.62305 -20.82619,-0.0993 -20.61809,-5.284344 2.20198,-1.13939 -0.36937,-10.676316 -8.26979,-5.196886 -13.96876,-0.54572 -2.67774,-3.4067 -7.98833,-0.50305 -19.22558,3.168665 -6.67084,9.006515 -9.40688,13.938776 -9.92871,9.06886 -14.799374,19.59012 -19.773794,19.02006 -25.362771,17.77545 -6.100111,4.10815 -1.469123,11.8002 -3.483858,8.28256 8.159293,6.02409 24.07901,2.88252 38.907288,3.39495 25.70672,2.37564 42.94038,4.88813 45.89957,3.89766 45.97822,4.52758 m 158.80029,12.19323 -159.56019,-12.36463 114.32025,9.14971 46.61681,3.25812"
   id="OR_1_"
   style="opacity:0.6;fill:#000000;fill-opacity:1;stroke:none" />





















































































































































































































































































































































</svg>